<?xml version="1.0" encoding="utf-8"?>
<!-- Generator: Adobe Illustrator 23.1.0, SVG Export Plug-In . SVG Version: 6.00 Build 0)  -->
<svg version="1.1" id="Layer_1" xmlns="http://www.w3.org/2000/svg" xmlns:xlink="http://www.w3.org/1999/xlink" x="0px" y="0px"
	 viewBox="0 0 271.8 74.9" style="enable-background:new 0 0 271.8 74.9;" xml:space="preserve">
<style type="text/css">
	.st0{clip-path:url(#SVGID_2_);}
	.st1{fill:url(#SVGID_3_);}
	.st2{clip-path:url(#SVGID_5_);}
	.st3{fill:url(#SVGID_6_);}
	.st4{clip-path:url(#SVGID_8_);}
	.st5{fill:url(#SVGID_9_);}
	.st6{clip-path:url(#SVGID_11_);}
	.st7{fill:url(#SVGID_12_);}
	.st8{clip-path:url(#SVGID_14_);}
	.st9{fill:url(#SVGID_15_);}
	.st10{clip-path:url(#SVGID_17_);}
	.st11{fill:url(#SVGID_18_);}
	.st12{clip-path:url(#SVGID_20_);}
	.st13{fill:url(#SVGID_21_);}
	.st14{clip-path:url(#SVGID_23_);}
	.st15{fill:url(#SVGID_24_);}
	.st16{clip-path:url(#SVGID_26_);}
	.st17{fill:url(#SVGID_27_);}
	.st18{clip-path:url(#SVGID_29_);}
	.st19{fill:url(#SVGID_30_);}
	.st20{clip-path:url(#SVGID_32_);}
	.st21{fill:url(#SVGID_33_);}
	.st22{clip-path:url(#SVGID_35_);}
	.st23{fill:url(#SVGID_36_);}
	.st24{clip-path:url(#SVGID_38_);}
	.st25{fill:url(#SVGID_39_);}
	.st26{fill:#231F20;}
	.st27{fill-rule:evenodd;clip-rule:evenodd;fill:#231F20;}
</style>
<title>one logo</title>
<g>
	<defs>
		<path id="SVGID_1_" d="M149.3,45.8l-0.1,0.1l0,0c-0.2,0.1-0.4,0.3-0.2,0.5c0,0.1,0.1,0.1,0.2,0.2c-0.1,0.2-0.3,0.4-0.4,0.5
			c-0.7,0.9-0.8,1-0.7,1.3c0,0.1,0.1,0.1,0.2,0.2c-1,0.7-1.4,1.1-1.2,1.4c0,0.1,0.1,0.1,0.2,0.2c-1.3,0.9-1.3,1-1.2,1.2
			c0,0.1,0.1,0.1,0.2,0.2c-1.7,1.1-2.3,1.5-2.4,1.8c-0.6,0.3-0.9,0.6-1,0.8c0,0.1,0,0.2,0,0.3c0,0.1,0.1,0.1,0.2,0.2
			c0,0,0.1,0,0.1,0c0.2,0,0.8-0.3,5.1-2.5c1-0.5,2-1,2.1-1.1l0,0c0.1-0.1,0.2-0.2,0.2-0.3c0,0,0-0.1,0-0.1c0-0.1,0-0.2,0-0.3
			c-0.1-0.1-0.2-0.2-0.3-0.2c-0.2,0-0.5,0-0.7,0.1c1.4-0.9,1.3-1,1.2-1.2c0-0.1-0.1-0.1-0.2-0.2c-0.1,0-0.2,0-0.2,0
			c0.8-0.5,0.7-0.6,0.6-0.8c-0.1-0.1-0.1-0.2-0.2-0.2c-0.1,0-0.1,0-0.2,0c0.7-0.5,0.8-0.7,0.7-1c0-0.1-0.1-0.1-0.2-0.2
			c-0.2-0.1-0.3,0-1.3,0.6l-0.5,0.3c0.9-1.1,1-1.4,0.9-1.6c0-0.1-0.1-0.2-0.2-0.2c-0.1,0-0.1,0-0.2,0c0,0-0.1,0-0.1,0
			C149.6,45.6,149.4,45.7,149.3,45.8"/>
	</defs>
	<clipPath id="SVGID_2_">
		<use xlink:href="#SVGID_1_"  style="overflow:visible;"/>
	</clipPath>
	<g class="st0">
		
			<linearGradient id="SVGID_3_" gradientUnits="userSpaceOnUse" x1="137.894" y1="-254.0573" x2="138.2397" y2="-254.0573" gradientTransform="matrix(1.445083e-14 236 236 -1.445083e-14 60104.6289 -32540.8555)">
			<stop  offset="0" style="stop-color:#BBBDBF"/>
			<stop  offset="0.13" style="stop-color:#C1C3C4"/>
			<stop  offset="0.3" style="stop-color:#D0D2D3"/>
			<stop  offset="0.37" style="stop-color:#C7C9CA"/>
			<stop  offset="0.47" style="stop-color:#AFB1B3"/>
			<stop  offset="0.58" style="stop-color:#929496"/>
			<stop  offset="0.81" style="stop-color:#CED0D1"/>
			<stop  offset="0.82" style="stop-color:#D0D2D3"/>
			<stop  offset="1" style="stop-color:#595A5C"/>
		</linearGradient>
		<rect x="142.8" y="45.6" class="st1" width="8.6" height="9.1"/>
	</g>
</g>
<g>
	<defs>
		<path id="SVGID_4_" d="M125.1,56.6l-0.2,0.1c-0.9,0.5-2.2,1.3-3.2,1.8C122.3,58.1,123.4,57.5,125.1,56.6 M113.5,57.7
			c-0.6,0.3-1.1,0.7-1.5,0.9c0-0.2,0.1-0.3,0.1-0.5c0.1-0.5,0.1-0.5,0.1-0.7c0-0.1-0.1-0.1-0.2-0.2c-0.1,0-0.2,0-0.4,0.1
			c-0.1,0-0.2,0.1-0.3,0.1c0,0-0.1,0-0.1,0c-0.2,0.1-0.2,0.3-0.1,0.5c0,0.1,0.1,0.1,0.2,0.2c0,0,0.1,0,0.1,0c-0.3,1-0.2,1.1-0.2,1.2
			c0,0.1,0.1,0.1,0.2,0.2c0.2,0.1,0.2,0.1,2.4-1.3c2.7-1.6,10.5-6.1,12.7-6.8c-1,0.8-3.8,2.2-6,3.4c-6,3.2-7,3.8-6.7,4.5
			c0.1,0.1,0.2,0.2,0.3,0.3c0.1,0,0.1,0,0.2,0c0.3,0,0.7-0.1,1-0.2c0,0,0.1,0.1,0.2,0.1c0.2,0.1,0.2,0.1,2.3-1.1
			c1.2-0.7,3.3-1.8,5.1-2.8c-5.1,3.3-5,3.4-4.8,3.7c0.1,0.1,0.1,0.1,0.2,0.2c0.2,0,0.3,0,0.5-0.1c0,0,0.1,0.1,0.2,0.1
			c0.2,0.1,0.5,0,1.2-0.3c0,0,0,0.1,0,0.1c0.1,0.1,0.2,0.2,0.3,0.2c0.4,0.1,1.2-0.2,2.9-1.3c-0.6,0.5-0.7,0.7-0.6,1
			c0,0.1,0.1,0.2,0.2,0.2c0.2,0.1,0.4,0,2.8-1.2c-0.8,0.6-0.8,0.8-0.7,1.1c0.1,0.1,0.1,0.2,0.3,0.2c0.3,0.1,0.8-0.2,2.3-1.2
			c0,0,0.1,0,0.1-0.1c-0.6,0.5-0.7,0.8-0.5,1c0,0.1,0.1,0.1,0.2,0.2c0.2,0,0.2,0.1,1.5-0.6c-0.1,0.1-0.1,0.3-0.1,0.5
			c0,0.1,0.1,0.2,0.2,0.2c0.2,0.1,0.3,0,1.7-0.8c0.4-0.2,1-0.6,1.5-0.9c0,0.1-0.1,0.1-0.1,0.2c-0.6,0.9-0.7,1.1-0.6,1.3
			c0,0.1,0.1,0.1,0.2,0.2c0.2,0.1,0.2,0.1,3.5-1.7c0.1,0,0.2-0.1,0.3-0.1c-0.1,0.2-0.2,0.5-0.3,0.7c-0.4,0.8-0.4,0.8-0.3,1
			c0.1,0.1,0.1,0.2,0.2,0.2c0.4,0.1,1.5-0.4,7-3.5c2.4-1.4,5.5-3.1,7-3.8c-0.4,0.3-0.9,0.6-1.5,1c-1.4,0.7-3.5,1.8-6.3,3.5
			c-0.9,0.4-1.8,0.9-2.6,1.4c-1.6,0.8-1.5,0.9-1.4,1.1c0.1,0.1,0.1,0.2,0.2,0.2c0.1,0,0.2,0,0.5-0.1c0.1,0.3,0.3,0.1,3.3-1.4
			c1.4-0.7,3-1.5,4.5-2.3c-0.5,0.3-1.1,0.6-1.5,0.8c-3.6,2-4,2.3-3.8,2.8c0,0.1,0.1,0.2,0.2,0.2c0.2,0.1,0.5,0,1.6-0.6
			c-0.1,0.1-0.1,0.3,0,0.4c0.1,0.1,0.1,0.2,0.3,0.2c0.4,0.1,1.2-0.3,3.3-1.5c-1,0.9-0.9,1.1-0.8,1.3c0.1,0.1,0.1,0.2,0.2,0.2
			c0.1,0,0.3,0,0.6-0.2c0.1,0.1,0.1,0.1,0.2,0.2c0.1,0,0.2,0,0.5-0.2c0,0,0.1-0.1,0.1-0.1c0,0,0,0.1,0,0.1c0,0.1,0.1,0.2,0.2,0.2
			c0.2,0,0.3,0,0.8-0.3c0,0,0,0.1,0,0.1c0,0.1,0.1,0.1,0.2,0.2c0.2,0,0.3,0,0.6-0.2l0.1-0.1l-0.1-0.2c0.1-0.1,0.1-0.1,0.1-0.2
			c0.2-0.3,0.3-0.5,0.2-0.7l0,0c0.1-0.1,0.2-0.3,0.1-0.5c0.1-0.1,0.2-0.3,0.1-0.5c-0.1-0.1-0.1-0.2-0.2-0.2
			c-0.3-0.1-0.6,0.1-1.6,0.7c0.5-0.4,1.1-0.9,1.9-1.5c0.2-0.2,0.4-0.3,0.3-0.6c-0.1-0.1-0.1-0.1-0.2-0.2c0,0-0.1,0-0.1,0
			c0.6-0.4,0.6-0.6,0.5-0.8c-0.1-0.1-0.1-0.2-0.2-0.2c-0.1,0-0.2,0-0.2,0c0.7-0.5,0.9-0.9,0.8-1.2c0,0,0.1-0.1,0.1-0.1
			c0-0.1,0-0.2,0-0.3c-0.1-0.1-0.2-0.2-0.3-0.2h0c0.6-0.5,0.7-0.9,0.6-1.1c-0.1-0.1-0.1-0.2-0.2-0.2c-0.5-0.2-2.4,0.8-8.3,4.1
			c-2.2,1.2-4.8,2.7-6,3.3c0.7-1.4,0.7-1.6,0.6-1.8c0-0.1-0.1-0.1-0.2-0.2c-0.1,0-0.1,0-1.3,0.6c-0.6,0.3-1.5,0.8-2.2,1.1
			c0.6-0.9,0.7-1.1,0.6-1.3c-0.1-0.1-0.1-0.2-0.3-0.2c-0.2-0.1-0.5,0-1.4,0.5c0.1-0.1,0.1-0.2,0-0.3c0-0.1-0.1-0.1-0.2-0.2
			c-0.1-0.1-0.2-0.1-1.2,0.5l-1.2,0.6c0,0,0,0,0.1-0.1c0.9-0.8,1-0.9,0.8-1.1c-0.1-0.1-0.1-0.2-0.3-0.2c-0.3-0.1-0.7,0.1-1.8,0.8
			c0.8-0.6,0.9-0.8,0.8-1.1c0-0.1-0.1-0.1-0.2-0.2c-0.2-0.1-0.2-0.1-2.1,1l-0.8,0.4c0,0,0-0.1,0-0.1c2.1-1.4,2.4-1.7,2.2-2.1
			c0-0.1-0.1-0.2-0.2-0.2c0,0-0.1,0-0.1,0c0.2-0.1,0.2-0.2,0.1-0.4c0,0,0,0,0,0c0-0.1,0-0.2,0-0.2c-0.1-0.1-0.1-0.2-0.2-0.2
			c-0.4-0.1-1.2,0.3-4.7,2.3c1.4-0.9,2.9-1.9,3.7-2.4c1.3-0.8,1.3-0.8,1.2-1.1c0-0.1-0.1-0.1-0.2-0.2c0.3-0.3,0.3-0.4,0.2-0.6
			c0-0.1-0.1-0.1-0.2-0.2c-0.2,0-0.2,0-1.7,0.9c-2,1.2-3.7,2.2-5.2,3.1l-0.3,0.1c-1.9,1-3.1,1.6-3.8,2c-0.5,0.3-1,0.5-1.6,0.6
			c0.9-0.7,3.9-2.3,6.2-3.5c6-3.1,7-3.8,6.7-4.5c-0.1-0.1-0.2-0.2-0.3-0.2c-0.1,0-0.1,0-0.2,0C125.9,50.8,122.1,52.7,113.5,57.7"/>
	</defs>
	<clipPath id="SVGID_5_">
		<use xlink:href="#SVGID_4_"  style="overflow:visible;"/>
	</clipPath>
	<g class="st2">
		
			<linearGradient id="SVGID_6_" gradientUnits="userSpaceOnUse" x1="137.895" y1="-253.9113" x2="138.2407" y2="-253.9113" gradientTransform="matrix(1.447961e-14 236.47 236.47 -1.447961e-14 60173.1719 -32605.9785)">
			<stop  offset="0" style="stop-color:#BBBDBF"/>
			<stop  offset="0.13" style="stop-color:#C1C3C4"/>
			<stop  offset="0.3" style="stop-color:#D0D2D3"/>
			<stop  offset="0.37" style="stop-color:#C7C9CA"/>
			<stop  offset="0.47" style="stop-color:#AFB1B3"/>
			<stop  offset="0.58" style="stop-color:#929496"/>
			<stop  offset="0.81" style="stop-color:#CED0D1"/>
			<stop  offset="0.82" style="stop-color:#D0D2D3"/>
			<stop  offset="1" style="stop-color:#595A5C"/>
		</linearGradient>
		<rect x="111" y="50.7" class="st3" width="39.5" height="8.9"/>
	</g>
</g>
<g>
	<defs>
		<path id="SVGID_7_" d="M134.9,34.2c-2.4,1.4-6.3,3.6-7,3.7c-0.1-0.1-0.2-0.1-0.3,0c-0.2,0.1-0.2,0.3-0.1,0.5
			c0.1,0.1,0.1,0.2,0.3,0.2c0.2,0.1,0.8-0.1,1.7-0.5c-0.1,0.1-0.1,0.3,0,0.4c0,0.1,0.1,0.2,0.2,0.2c0.2,0.1,0.5,0,2-0.8
			c-0.4,0.4-0.5,0.7-0.4,0.9c0,0.1,0.1,0.1,0.2,0.2c0.1,0,0.1,0,0.3-0.1c0,0,0,0,0,0c0.1,0.1,0.1,0.2,0.3,0.2c0,0,0.1,0,0.1,0
			c0,0,0.1,0,0.1,0c0.2,0.1,0.4,0,1.9-0.9c-1.1,0.8-1.1,1-1,1.2c0.1,0.2,0.3,0.2,0.4,0.2c0,0,0,0,0,0c0.1,0.1,0.1,0.2,0.2,0.2
			c0.1,0,0.3,0,0.7-0.2c-0.3,0.3-0.3,0.3-0.2,0.5c0.1,0.1,0.2,0.2,0.3,0.2c0.1,0,0.2,0,0.2,0c0,0.1,0,0.2,0.1,0.3c0,0,0,0.1,0.1,0.1
			c0,0,0,0,0,0.1c0,0.1,0.1,0.1,0.2,0.2c0.1,0,0.1,0,0.5-0.1c-0.3,0.3-0.3,0.5-0.2,0.6c0.1,0.1,0.1,0.2,0.3,0.2
			c0.3,0.1,0.7-0.1,1.9-0.8l-0.4,0.3c-1.2,1-1.3,1.1-1.1,1.4c0.1,0.1,0.1,0.2,0.2,0.2c0.2,0,0.3,0,0.5-0.1c-0.5,0.5-0.4,0.5-0.3,0.7
			c0,0,0,0,0,0c0,0,0,0.1,0,0.1c0,0.1,0,0.2,0.1,0.2c0,0,0.1,0.1,0.1,0.1c-0.1,0.1-0.1,0.2,0,0.3l0,0c0,0,0,0.1,0,0.1
			c0,0.1,0.1,0.2,0.2,0.2c0,0,0.1,0,0.1,0c-0.2,0.2-0.2,0.3-0.1,0.5c0,0.1,0.1,0.2,0.2,0.2c0,0,0.1,0,0.1,0
			c-0.2,0.2-0.2,0.4-0.1,0.6c0,0,0,0.1,0.1,0.1c-0.1,0.1-0.1,0.2,0,0.3c0.1,0.3,0.2,0.3,0.9-0.1c-0.8,1-0.9,1.1-0.8,1.4
			c0,0.1,0.1,0.2,0.2,0.2c0.2,0,0.3,0,1.2-0.5c0,0,0,0,0,0.1c-0.2,0.6-0.2,0.6-0.1,0.8c0,0.1,0.1,0.2,0.2,0.2c0,0,0.1,0,0.1,0
			c0.1,0,0.2-0.1,0.3-0.1l0.2-0.1c0,0,0.1,0,0.1,0c0.2-0.1,0.2-0.3,0.1-0.5c0-0.1-0.1-0.1-0.2-0.2c0.2-0.8,0.3-0.9,0.2-1
			c0-0.1-0.1-0.2-0.2-0.2c-0.1,0-0.2,0-0.5,0.1l-0.2,0.2c0.1-0.1,0.1-0.2,0.2-0.2c0.8-1,0.8-1,0.7-1.2l0-0.1
			c0.1-0.1,0.1-0.3,0.1-0.4c0-0.1-0.1-0.1-0.2-0.2c0,0-0.1,0-0.1,0c0.4-0.3,0.4-0.4,0.3-0.7c0-0.1-0.1-0.2-0.2-0.2c0,0,0,0-0.1,0
			c0.3-0.3,0.4-0.4,0.3-0.5c0-0.1,0-0.2,0-0.2c0,0,0-0.1-0.1-0.1c0.1-0.1,0.1-0.3,0.1-0.4l0,0c0.1-0.1,0.1-0.2,0-0.3
			c0,0,0-0.1,0-0.1c0-0.1-0.1-0.2-0.2-0.2c-0.1,0-0.2,0-0.3,0l0,0c0.7-0.6,0.7-0.6,0.6-0.8c0-0.1-0.1-0.2-0.2-0.2
			c-0.2-0.1-0.3,0-0.9,0.3c1.1-1,1.2-1.3,1.1-1.6c-0.1-0.1-0.1-0.2-0.2-0.2c-0.1,0-0.2,0-0.3,0c0.6-0.5,0.7-0.5,0.6-0.7
			c0.1-0.1,0-0.2,0-0.3c0-0.1-0.1-0.1-0.2-0.2c0,0,0,0-0.1,0c0.4-0.3,0.4-0.4,0.3-0.6c0-0.1-0.1-0.1-0.2-0.2c0,0,0,0,0,0
			c0.3-0.3,0.3-0.5,0.3-0.7l0-0.1c0.2-0.2,0.1-0.3,0-0.4c-0.1-0.1-0.1-0.1-0.2-0.2c-0.3-0.1-0.6,0.1-2.7,1.3c0.5-0.3,1-0.7,1.4-0.9
			c1.5-1,1.6-1.1,1.5-1.3c0-0.1,0-0.2,0-0.3c0,0,0,0,0,0c0,0,0-0.1,0-0.1c0-0.1,0-0.2,0-0.3c-0.1-0.1-0.2-0.2-0.3-0.2
			c-0.2,0-0.4,0-0.6,0.1c0.9-0.6,1.1-0.8,0.9-1.1c0-0.1-0.1-0.1-0.2-0.2c-0.1,0-0.2-0.1-1.3,0.6c1.6-0.9,1.7-1.1,1.5-1.5
			c0-0.1-0.1-0.2-0.2-0.2c0,0-0.1,0-0.1,0C139,32,138.3,32.3,134.9,34.2"/>
	</defs>
	<clipPath id="SVGID_8_">
		<use xlink:href="#SVGID_7_"  style="overflow:visible;"/>
	</clipPath>
	<g class="st4">
		
			<linearGradient id="SVGID_9_" gradientUnits="userSpaceOnUse" x1="137.8959" y1="-253.945" x2="138.2416" y2="-253.945" gradientTransform="matrix(1.449186e-14 236.67 236.67 -1.449186e-14 60234.6563 -32633.8711)">
			<stop  offset="0" style="stop-color:#BBBDBF"/>
			<stop  offset="0.13" style="stop-color:#C1C3C4"/>
			<stop  offset="0.3" style="stop-color:#D0D2D3"/>
			<stop  offset="0.37" style="stop-color:#C7C9CA"/>
			<stop  offset="0.47" style="stop-color:#AFB1B3"/>
			<stop  offset="0.58" style="stop-color:#929496"/>
			<stop  offset="0.81" style="stop-color:#CED0D1"/>
			<stop  offset="0.82" style="stop-color:#D0D2D3"/>
			<stop  offset="1" style="stop-color:#595A5C"/>
		</linearGradient>
		<rect x="127.3" y="31.9" class="st5" width="12.5" height="16.5"/>
	</g>
</g>
<g>
	<defs>
		<path id="SVGID_10_" d="M137.7,26.3c0,0-0.1,0.1-0.2,0.1c0,0-0.1,0-0.1,0c-0.2,0.1-0.2,0.3-0.1,0.5c0,0,0,0.1,0.1,0.1
			c-0.2,0.3-0.3,0.5-0.2,0.7c0,0.1,0.1,0.2,0.2,0.2c0.1,0,0.2,0,0.3,0l-0.1,0.1c-0.5,0.5-0.7,0.7-0.7,0.8c0,0.1,0,0.2,0,0.3
			c0,0.1,0.1,0.1,0.2,0.2c-0.4,0.3-0.5,0.4-0.5,0.6c-0.1,0.1-0.1,0.2-0.1,0.3c-0.1,0.1-0.1,0.2,0,0.3c0,0,0,0,0,0
			c-0.3,0.2-0.3,0.3-0.2,0.5c-0.3,0.3-0.3,0.4-0.2,0.6c0,0.1,0.1,0.1,0.2,0.2c0.1,0,0.2,0,0.3,0c-1.4,1-1.5,1.1-1.3,1.4
			c0,0,0,0.1,0.1,0.1c-1.2,0.7-1.4,0.9-1.2,1.2c0,0.1,0.1,0.2,0.2,0.2c0,0,0.1,0,0.1,0c0.3,0,0.8-0.3,2.9-1.5c0.7-0.4,1.6-0.9,1.9-1
			c0.1,0,0.1,0,0.2,0c0.2-0.1,0.2-0.3,0.1-0.5c0-0.1-0.1-0.1-0.1-0.1c0.2-0.2,0.2-0.4,0.1-0.6c0-0.1-0.1-0.1-0.2-0.2
			c-0.1,0-0.2-0.1-0.6,0.1c0.8-0.6,0.9-0.8,0.8-1.1c0,0,0,0,0-0.1c0.1-0.1,0.1-0.2,0-0.3c0,0,0-0.1-0.1-0.1c0.1-0.1,0.2-0.2,0.1-0.3
			c0-0.1,0-0.2,0-0.2c0-0.1,0-0.2,0-0.3c0-0.1-0.1-0.1-0.2-0.2c0.1-0.1,0.2-0.3,0.2-0.4c0-0.1,0-0.2,0-0.3c0-0.1-0.1-0.1-0.2-0.2
			c-0.1,0-0.2,0-0.3,0c0.7-0.7,0.7-0.8,0.6-1c0-0.1-0.1-0.2-0.2-0.2c-0.2,0-0.3,0-1,0.4c0.1-0.1,0.1-0.2,0-0.3
			c-0.1-0.1-0.2-0.2-0.3-0.2C137.9,26.2,137.8,26.2,137.7,26.3"/>
	</defs>
	<clipPath id="SVGID_11_">
		<use xlink:href="#SVGID_10_"  style="overflow:visible;"/>
	</clipPath>
	<g class="st6">
		
			<linearGradient id="SVGID_12_" gradientUnits="userSpaceOnUse" x1="137.8952" y1="-253.9618" x2="138.241" y2="-253.9618" gradientTransform="matrix(1.449063e-14 236.65 236.65 -1.449063e-14 60236.8945 -32630.8691)">
			<stop  offset="0" style="stop-color:#BBBDBF"/>
			<stop  offset="0.13" style="stop-color:#C1C3C4"/>
			<stop  offset="0.3" style="stop-color:#D0D2D3"/>
			<stop  offset="0.37" style="stop-color:#C7C9CA"/>
			<stop  offset="0.47" style="stop-color:#AFB1B3"/>
			<stop  offset="0.58" style="stop-color:#929496"/>
			<stop  offset="0.81" style="stop-color:#CED0D1"/>
			<stop  offset="0.82" style="stop-color:#D0D2D3"/>
			<stop  offset="1" style="stop-color:#595A5C"/>
		</linearGradient>
		<rect x="134" y="26.2" class="st7" width="5.7" height="8.4"/>
	</g>
</g>
<g>
	<defs>
		<path id="SVGID_13_" d="M147.3,15.6c-0.3,0-1.1,0.3-3.5,1.6l-0.6,0.3c1.1-1,1.4-1.3,1.2-1.7c0-0.1-0.1-0.1-0.2-0.2
			c-0.2-0.1-0.2-0.1-1.4,0.6c-0.4,0.3-1.1,0.6-1.8,1c1.1-0.8,1.4-1.1,1.2-1.5c0-0.1-0.1-0.1-0.2-0.2c-0.2,0-0.1,0-1.7,0.8
			c-0.4,0.2-1.1,0.6-1.7,0.9c1-0.9,1.1-1.2,1-1.5c-0.1-0.1-0.1-0.2-0.2-0.2c-0.3-0.1-0.5,0.1-2.1,1c-0.4,0.3-1,0.6-1.5,0.9
			c0,0,0,0,0-0.1c0.9-1.2,1-1.4,0.9-1.7c0-0.1-0.1-0.1-0.2-0.2c-0.2,0-0.2-0.1-1.7,0.8c-0.2,0.1-0.5,0.2-0.7,0.4
			c0.8-0.7,0.8-0.8,0.7-1c-0.1-0.1-0.2-0.2-0.3-0.2c-0.2,0-0.4,0-0.5,0.1c0,0-0.1,0-0.1-0.1c-0.3-0.1-0.5,0.1-2.2,1.1
			c0,0-0.1,0-0.1,0c-0.5,0.2-0.9,0.5-1.4,0.8c-0.3,0.1-0.5,0.3-0.8,0.4c-0.1,0-0.2,0-0.3,0c-0.2,0.1-0.2,0.3-0.2,0.5
			c0.1,0.1,0.1,0.2,0.3,0.2c0.3,0,0.5,0,0.7-0.1c0,0,0.1,0,0.1,0.1c0.3,0.1,0.8-0.2,2.4-1.2c0,0,0.1,0,0.1-0.1
			c-0.7,0.7-0.7,0.7-0.6,1c0,0.1,0.1,0.1,0.2,0.2c0.2,0.1,0.3,0.1,3-1.4c0.1-0.1,0.2-0.1,0.3-0.2c-0.1,0.1-0.1,0.2-0.2,0.2
			c-0.7,0.9-0.8,1-0.7,1.3c0.1,0.1,0.2,0.2,0.3,0.2c0.3,0.1,0.9-0.2,2.8-1.3c0,0,0.1,0,0.1-0.1c-1,0.9-1.2,1.1-1,1.4
			c0,0.1,0.1,0.1,0.2,0.2c0.2,0,0.2,0.1,2.2-1c-0.8,0.6-1,0.8-0.8,1.1c0.1,0.1,0.1,0.2,0.2,0.2c0.3,0.1,1-0.2,3.8-1.8
			c-0.2,0.2-0.4,0.4-0.6,0.5c-1.4,1.2-1.6,1.4-1.4,1.7c0,0.1,0.1,0.1,0.2,0.2c0.1,0.1,0.1,0.1,0.2,0.1l0.1,0c0,0,0.1,0.1,0.1,0.1
			c0.2,0.1,0.2,0.1,2.5-1.2l1-0.5c0,0,0,0,0,0c-2.7,1.8-2.7,1.8-2.6,2.1c0,0.1,0.1,0.1,0.2,0.2c0.2,0.1,0.2,0.1,3-1.4
			c-1.9,1.4-2.3,1.8-2,2.2c0.1,0.1,0.1,0.2,0.3,0.2c0.3,0.1,0.7-0.1,1.7-0.7c-1.1,0.9-1.3,1.1-1.2,1.4c0,0.1,0.1,0.1,0.2,0.2
			c0.2,0.1,0.2,0.1,1.6-0.7c0,0,0.1-0.1,0.1-0.1c-1.5,1.2-1.5,1.3-1.3,1.5c0,0.1,0.1,0.1,0.1,0.1c0,0.1,0,0.1,0,0.2
			c0,0.1,0.1,0.2,0.2,0.2h0.1c-0.1,0.1-0.1,0.2,0,0.3c0,0.1,0.1,0.1,0.1,0.1c0,0.1,0,0.1,0.1,0.2c0,0.1,0.1,0.1,0.2,0.2
			c0.2,0,0.2,0,0.8-0.3c0.2-0.1,0.5-0.3,0.8-0.5l-0.3,0.2c-1.1,1-1.3,1.2-1.2,1.6c0,0.1,0.1,0.2,0.2,0.2c0.2,0.1,0.2,0,1.5-0.6
			c-0.2,0.3-0.4,0.5-0.6,0.7c-0.8,1-0.8,1-0.6,1.2c0,0,0,0.1,0.1,0.1c-0.1,0.1-0.1,0.2,0,0.3c0,0,0,0.1,0.1,0.1
			c-0.1,0.1,0,0.2,0,0.3c0,0.1,0.1,0.1,0.2,0.2c0.2,0,0.2,0,0.7-0.3c0.1-0.1,0.3-0.2,0.6-0.3c-0.2,0.3-0.4,0.7-0.6,0.9
			c-0.3,0.5-0.3,0.6-0.2,0.7c0,0.1,0.1,0.1,0.2,0.2c0,0,0.1,0,0.1,0c0.1,0,0.2-0.1,0.5-0.2l0,0c0,0.1,0.1,0.2,0.2,0.2
			c0.2,0.1,0.3,0,0.5-0.2c0,0,0.1,0,0.1,0c0,0,0,0,0.1,0c0.2-0.1,0.2-0.3,0.2-0.5l0,0c0.1-0.1,0.1-0.2,0-0.4c0-0.1-0.1-0.1-0.2-0.2
			c-0.1,0-0.2,0-0.3,0.1c0.6-1,0.7-1.2,0.6-1.4c0,0,0-0.1-0.1-0.1c0.1-0.1,0.2-0.3,0.1-0.4c0,0,0,0,0-0.1c0.1-0.1,0.1-0.3,0-0.4
			c0-0.1-0.1-0.1-0.2-0.2c-0.1,0-0.2-0.1-0.9,0.3c1.2-1.5,1.2-1.6,1.1-1.8c0-0.1-0.1-0.1-0.2-0.2c-0.1,0-0.2,0-0.8,0.3
			c1-0.9,1.1-1.2,1-1.5c0,0,0,0,0,0c0.1-0.1,0.1-0.2,0-0.3c0-0.1-0.1-0.1-0.1-0.1c0.2-0.3,0.2-0.4,0.1-0.5l0,0
			c0.1-0.1,0.1-0.3,0-0.4c-0.1-0.1-0.1-0.1-0.2-0.1c-0.2-0.1-0.2,0-1,0.4c1.4-1.1,1.4-1.1,1.2-1.4c0-0.1-0.1-0.2-0.2-0.2
			c-0.2,0-0.3,0-1,0.3c1.1-0.9,1.4-1.2,1.2-1.5c0-0.1-0.1-0.2-0.2-0.2c-0.2-0.1-0.5,0.1-2.2,1.1c-0.4,0.2-0.9,0.6-1.4,0.8
			c0.6-0.5,1.4-1,1.9-1.4c1.8-1.3,2.1-1.5,1.9-1.9c0-0.1-0.1-0.1-0.2-0.2c-0.1,0-0.2-0.1-0.9,0.3c1.3-0.9,1.3-1,1.1-1.3
			c0-0.1-0.1-0.1-0.2-0.2c-0.1,0-0.3,0-0.4,0c0,0-0.1,0-0.1-0.1c0,0,0,0,0,0l-0.1,0c0,0-0.1,0-0.1,0
			C147.4,15.7,147.4,15.7,147.3,15.6"/>
	</defs>
	<clipPath id="SVGID_14_">
		<use xlink:href="#SVGID_13_"  style="overflow:visible;"/>
	</clipPath>
	<g class="st8">
		
			<linearGradient id="SVGID_15_" gradientUnits="userSpaceOnUse" x1="137.8952" y1="-253.9838" x2="138.241" y2="-253.9838" gradientTransform="matrix(1.448451e-14 236.55 236.55 -1.448451e-14 60218.6563 -32617.0879)">
			<stop  offset="0" style="stop-color:#BBBDBF"/>
			<stop  offset="0.13" style="stop-color:#C1C3C4"/>
			<stop  offset="0.3" style="stop-color:#D0D2D3"/>
			<stop  offset="0.37" style="stop-color:#C7C9CA"/>
			<stop  offset="0.47" style="stop-color:#AFB1B3"/>
			<stop  offset="0.58" style="stop-color:#929496"/>
			<stop  offset="0.81" style="stop-color:#CED0D1"/>
			<stop  offset="0.82" style="stop-color:#D0D2D3"/>
			<stop  offset="1" style="stop-color:#595A5C"/>
		</linearGradient>
		<rect x="129" y="15.6" class="st9" width="19.6" height="13.6"/>
	</g>
</g>
<g>
	<defs>
		<path id="SVGID_16_" d="M129.1,36.5c-0.7,0.5-1.8,1.1-3,1.7C127.2,37.5,128.3,36.9,129.1,36.5 M125.7,35.9
			c-0.2,0.1-0.5,0.3-0.8,0.5C125.2,36.2,125.5,36,125.7,35.9 M121.8,33.8l1.5-0.8c0.2-0.1,0.4-0.2,0.6-0.3l-1,0.6
			c-0.2,0.1-0.3,0.2-0.5,0.3c-0.3,0.2-0.7,0.3-1.1,0.5L121.8,33.8 M120.5,31.2c-0.5,0.3-1,0.6-1.4,0.8
			C119.4,31.8,119.9,31.5,120.5,31.2 M121.7,18.8L121.7,18.8C121.7,18.8,121.7,18.8,121.7,18.8 M126,17.3c-0.3,0.1-0.6,0.3-0.9,0.5
			C125.4,17.6,125.7,17.4,126,17.3 M124.3,20.6c2.7-1.7,6.7-4.1,7.9-4.3c-0.9,0.8-4.8,2.9-7.7,4.4L122,22
			C122.7,21.6,123.4,21.1,124.3,20.6 M130.6,16.2c0.1-0.1,0-0.2,0-0.3c-0.1-0.1-0.2-0.2-0.3-0.2c-0.3-0.1-0.9,0.1-2,0.6
			c0-0.1,0-0.3,0-0.4c-0.1-0.1-0.1-0.2-0.2-0.2c-0.4-0.1-1.5,0.4-6.3,3.1c3.6-2.1,4-2.4,3.8-2.9c-0.1-0.1-0.2-0.2-0.3-0.2
			c-0.4-0.1-1.5,0.4-4.8,2.4c2.3-1.6,2.5-1.8,2.3-2.2c-0.1-0.1-0.2-0.2-0.3-0.2c-0.5-0.1-1.4,0.4-3.5,1.7c-0.4,0.2-0.8,0.5-1.2,0.8
			c0.4-0.3,0.8-0.6,1.1-0.9c1.4-1.1,1.4-1.1,1.2-1.4c-0.1-0.1-0.1-0.2-0.3-0.2c-0.1,0-0.3,0-0.4,0c-0.1,0-0.1,0-0.2,0
			c-0.1,0-0.2,0-0.8,0.4l-0.2,0.1c-0.3,0.2-0.8,0.4-1.3,0.7c0,0-0.1,0-0.1,0l-0.4,0.2c0.8-0.8,1-0.9,0.8-1.2
			c-0.1-0.1-0.1-0.2-0.2-0.2c-0.2-0.1-0.6,0.1-1.7,0.7c0.2-0.2,0.2-0.3,0.2-0.5c0-0.1-0.1-0.1-0.2-0.2c-0.2-0.1-0.3,0-2.2,1
			c-0.3,0.1-0.5,0.3-0.8,0.4c-0.1-1.1-0.1-1.2-0.2-1.3c0-0.1-0.1-0.1-0.2-0.2c-0.2,0-0.3,0-0.6,0.2l0.2,0.3l-0.1,0.3
			c0.1,0,0.1,0,0.2,0c0,0.3,0.1,0.7,0.1,0.9c0,0.1,0,0.2,0.1,0.3c0,0.1,0.1,0.1,0.2,0.2c0.2,0.1,0.2,0.1,1.5-0.7h0
			c-0.3,0.3-0.3,0.5-0.2,0.6c0,0.1,0.1,0.2,0.2,0.2c0.2,0.1,0.4,0,1.6-0.8c0.1,0,0.2-0.1,0.2-0.1c-0.6,0.6-0.8,0.9-0.6,1.1
			c0,0.1,0.1,0.2,0.2,0.2h0c0,0,0,0,0,0c0,0,0.1,0,0.1,0c0,0,0.1,0.1,0.2,0.1c0.3,0.1,0.6-0.1,2.2-1.1c-1.5,1.2-1.6,1.5-1.4,1.8
			c0.1,0.1,0.2,0.2,0.3,0.2c0.4,0.1,1-0.2,3.1-1.6l0.7-0.4c-0.4,0.3-0.7,0.5-1,0.7c-2.6,1.8-2.7,1.9-2.5,2.2
			c0.1,0.1,0.1,0.2,0.2,0.2c0.2,0.1,0.5,0,1.2-0.4c-1.1,0.8-1.4,1.2-1.2,1.5c0,0.1,0.1,0.2,0.2,0.2c0.1,0,0.2,0,0.2,0
			c-0.2,0.1-0.3,0.3-0.4,0.6c-0.1,0.1,0,0.3,0,0.4c0,0.1,0.1,0.1,0.2,0.2c0.2,0.1,0.2,0.1,3.8-1.9c1.5-0.8,3.6-2,5.5-3l-4.6,2.7
			c-5,3-5,3-4.8,3.3c0.1,0.1,0.2,0.2,0.3,0.2c0.2,0.1,0.7,0,1.3-0.3c-1.5,0.9-1.8,1.4-1.6,1.8c0,0,0.1,0.1,0.1,0.1
			c0,0.1-0.1,0.1-0.1,0.2c0,0.1,0,0.3,0,0.4c0,0.1,0.1,0.1,0.2,0.2c0.2,0.1,0.2,0.1,2.4-1.3c1.9-1.2,6.2-3.7,7.5-4
			c-0.9,1-5.4,3.6-7.5,4.9c-0.6,0.3-1,0.6-1.4,0.8c-1.3,0.8-1.4,0.9-1.2,1.1v0c-0.1,0.1-0.1,0.3,0,0.4c0,0.1,0.1,0.1,0.2,0.2
			c0.2,0,0.1,0,1.6-0.8c1.5-0.9,5.5-3.1,7.6-4.1c-1.5,1.1-4.5,2.9-6.3,4c-3.2,1.9-3.2,1.9-3.1,2.3c0,0.1,0.1,0.1,0.2,0.2
			c0.2,0.1,0.2,0.1,3.1-1.6l2.3-1.3c-5.8,3.5-5.8,3.7-5.6,4.1c0,0.1,0.1,0.1,0.2,0.2c-0.3,0.3-0.3,0.4-0.2,0.6l0,0c0,0,0,0,0,0
			c0,0.1,0,0.2,0,0.3c0,0,0,0,0,0c0,0,0,0.1,0,0.1c0,0.1,0,0.2,0,0.3c0.1,0.1,0.2,0.2,0.3,0.2c-0.1,0.1-0.2,0.2-0.3,0.4
			c0,0.1,0,0.2,0,0.3c0.1,0.1,0.1,0.1,0.2,0.2c0.1,0,0.2,0,0.5-0.1c-0.9,0.6-0.8,0.6-0.7,0.8c0.1,0.1,0.1,0.2,0.2,0.2c0,0,0,0,0.1,0
			c-0.4,0.3-0.4,0.5-0.3,0.7c0,0,0,0,0,0c-0.1,0.1-0.1,0.2,0,0.3c0,0,0.1,0.1,0.1,0.1c0,0-0.1,0.1-0.1,0.2c0,0.1,0,0.2,0,0.3
			c0.1,0.1,0.1,0.1,0.2,0.2c-0.1,0.1-0.2,0.2-0.2,0.3c0,0.1,0,0.2,0,0.4c0.1,0.1,0.2,0.2,0.3,0.2c0.1,0,0.2,0,0.3,0
			c-0.7,0.5-0.7,0.7-0.6,0.9c0.1,0.1,0.2,0.2,0.3,0.2c0.4,0,0.8,0,1.1-0.2c-1.6,1.1-1.5,1.3-1.4,1.5c0.1,0.1,0.2,0.2,0.3,0.3
			c0.1,0,0.2,0,0.3,0c-0.6,0.4-0.7,0.7-0.6,1c0.1,0.1,0.1,0.2,0.3,0.2c0.2,0,0.5,0,1.1-0.3c-1.5,1-1.4,1.1-1.3,1.3
			c0.1,0.1,0.2,0.2,0.3,0.2c-0.4,0.3-0.4,0.4-0.3,0.6c0,0,0,0,0,0c0,0,0,0.1,0,0.1c0,0.1,0,0.2,0,0.2c0,0.1,0,0.1,0,0.2
			c0,0.1,0,0.1,0,0.2c0,0.1,0.1,0.1,0.1,0.1c-0.1,0.1-0.1,0.1-0.2,0.2c0,0.1,0,0.2,0,0.3c0.1,0.1,0.2,0.2,0.3,0.2
			c0.2,0,0.4,0,0.5-0.1c-0.9,0.6-0.9,0.9-0.8,1.1c0.1,0.1,0.1,0.2,0.3,0.2c0.1,0,0.2,0,0.2,0c-0.4,0.4-0.6,0.6-0.6,0.9
			c0,0.1,0,0.2,0.1,0.3c0,0.1,0.1,0.1,0.2,0.2c0.2,0.1,0.3,0.1,4.8-2.4c0.2-0.1,0.4-0.2,0.7-0.3c0.3-0.1,0.6-0.2,0.8-0.3
			c-0.7,0.5-1.5,0.9-2.1,1.3c-4.7,2.9-4.6,2.9-4.4,3.3c0,0,0,0.1,0.1,0.1c-0.2,0.2-0.1,0.2-0.1,0.3c0,0.1,0.1,0.1,0.2,0.2
			c0.1,0,0.3,0,0.4,0c-0.8,0.4-0.7,0.5-0.6,0.8c0,0.1,0.1,0.1,0.2,0.2c0.1,0,0.1,0,1.6-0.7c-1.9,1.2-1.9,1.4-1.8,1.7
			c0,0.1,0.1,0.2,0.2,0.2c0.1,0,0.3,0,0.7-0.2c-0.8,0.6-1.1,1-1,1.4l0,0c0,0.1,0,0.2,0,0.3c0,0,0,0,0,0c0,0-0.1,0.1-0.1,0.1
			c-0.1,0.2,0,0.4,0.2,0.4c0,0,0,0,0,0c0.1,0,0.2,0.1,1-0.5c0.2-0.1,0.4-0.2,0.7-0.3c-2.3,1.5-2.4,1.7-2.2,2.1c0,0,0.1,0.1,0.1,0.1
			c-0.6,0.3-0.6,0.3-0.7,0.5c0,0.1,0,0.2,0,0.3c0.1,0.1,0.2,0.2,0.3,0.2c0,0,0.1,0,0.1,0c0.8,0,3.2-1.3,8.1-4.1
			c1.3-0.8,2.7-1.5,3-1.7c0,0,0.1,0,0.1,0c0.2-0.1,0.2-0.3,0.2-0.5c0,0,0,0,0-0.1c0,0,0-0.1,0.1-0.1c0-0.1,0-0.3,0-0.4
			c0-0.1-0.1-0.1-0.2-0.2c-0.2,0-0.2,0-1,0.4c-5.3,3.2-7.7,4.4-8.8,4.8c1.4-1,4.6-2.9,6.6-4c3.6-2.1,3.6-2.1,3.4-2.4c0,0,0,0,0,0
			c0-0.1,0-0.2,0-0.3c0-0.1,0-0.2,0-0.3c-0.1-0.1-0.1-0.2-0.2-0.2c-0.2-0.1-0.4,0-3.2,1.7c-0.2,0.1-0.5,0.3-0.8,0.5l-0.7,0.4
			c-0.2,0.1-0.5,0.2-0.7,0.4c-0.2,0.1-0.4,0.2-0.7,0.3c-1,0.5-1.8,0.8-2.4,1.1c1.2-0.7,2.8-1.6,4.1-2.3c4.1-2.2,5-2.7,4.7-3.3
			c-0.1-0.1-0.1-0.2-0.2-0.2c-0.2,0-0.4,0-0.6,0.1c1-0.6,0.9-0.8,0.8-1c0-0.1-0.1-0.1-0.2-0.2c0.3-0.3,0.3-0.5,0.2-0.7
			c0,0-0.1-0.1-0.1-0.1c0.2-0.2,0.1-0.2,0.1-0.3c-0.1-0.1-0.2-0.2-0.3-0.2c-0.3-0.1-1.1,0.2-2.5,0.9c2.5-1.6,2.9-2,2.9-2.3
			c0,0,0-0.1,0-0.1c0-0.1,0-0.1,0-0.2c-0.1-0.1-0.2-0.2-0.3-0.3c-0.2,0-0.3,0-0.5,0c0.9-0.6,1-0.7,0.8-1c-0.1-0.1-0.1-0.2-0.2-0.2
			c-0.2-0.1-0.6,0-1.7,0.7c2.1-1.2,2.1-1.4,2-1.7c0,0-0.1-0.1-0.1-0.1c0-0.1,0.1-0.1,0.1-0.2c0-0.1,0-0.2,0-0.3c0-0.1,0-0.2,0-0.3
			c0,0,0,0,0-0.1c0,0,0-0.1,0.1-0.1c0-0.1,0-0.2,0-0.3c2.9-1.6,3.2-2,3-2.5c-0.1-0.1-0.2-0.2-0.3-0.2c-0.6-0.2-2.5,0.9-6.7,3.4
			c-1.4,0.9-3.2,2-4.5,2.7c1.7-1.1,4.2-2.6,5.8-3.6c1.5-0.9,2.3-1.4,2.6-1.6h0c0.3-0.3,0.3-0.3,0.2-0.5c0-0.1-0.1-0.1-0.2-0.2
			c-0.1,0-0.2,0-0.6,0.2c0.7-0.5,0.9-0.9,0.7-1.2c-0.1-0.1-0.2-0.2-0.3-0.2c-0.4-0.1-1.3,0.4-4.5,2.3c-1.3,0.8-3.2,2-4.5,2.6
			c1.4-1,4.2-2.7,8.3-5.3c1.1-0.7,1.1-0.7,1-1c0-0.1-0.1-0.2-0.2-0.2c-0.2-0.1-0.3,0-3,1.6c-1.6,0.9-4.4,2.6-6,3.4
			c1.3-0.8,3.6-2.1,5.3-3.1c4.2-2.4,4.2-2.4,4-2.8c0-0.1-0.1-0.1-0.2-0.2c0.1-0.1,0.2-0.2,0.2-0.3c0-0.1,0-0.3,0-0.4c0,0,0,0,0,0
			c0,0,0-0.1,0-0.1c0.1-0.1,0-0.3,0-0.4c0,0,0,0,0-0.1c0.1-0.1,0.1-0.2,0-0.3c0,0,0,0,0,0c-0.1-0.1-0.2-0.2-0.3-0.2h-0.1
			c0.5-0.3,0.5-0.5,0.4-0.7c-0.1-0.1-0.1-0.2-0.2-0.2c-0.1,0-0.2,0-0.3,0c0.7-0.4,0.7-0.5,0.6-0.7c0-0.1-0.1-0.1-0.2-0.2
			c0.1-0.1,0.2-0.2,0.2-0.3c0-0.1,0-0.3,0-0.4c0,0,0-0.1-0.1-0.1c0,0,0.1-0.1,0.1-0.1c0-0.1,0-0.1,0-0.2l0,0c0-0.1,0-0.3,0-0.4
			c0-0.1-0.1-0.2-0.2-0.2c-0.1,0-0.1,0-0.2,0c0.5-0.3,0.5-0.4,0.3-0.6c0-0.1-0.1-0.2-0.2-0.2c-0.2-0.1-0.4,0-3.9,1.9
			c-0.4,0.2-0.9,0.5-1.3,0.7c-1.1,0.6-2,1.1-2.7,1.5c0,0,0,0,0,0c1.4-0.9,3.2-2,4.6-2.8c3.8-2.3,3.8-2.3,3.6-2.6
			c-0.1-0.1-0.2-0.2-0.3-0.2c-0.2-0.1-0.5,0-1.1,0.3c1.4-1,1.6-1.3,1.4-1.6c0,0,0,0,0,0c0,0,0-0.1,0-0.1c0-0.1,0-0.2,0-0.3
			c-0.1-0.1-0.1-0.2-0.3-0.2c-0.2-0.1-0.6,0-1.3,0.4c1.5-1.1,1.7-1.5,1.5-1.9c0-0.1-0.1-0.1-0.2-0.2c0.2-0.1,0.2-0.2,0.2-0.3
			c0-0.1,0-0.2,0-0.3c0-0.1-0.1-0.1-0.2-0.2c-0.2,0-0.2,0-1.7,0.8l-1,0.5l-1.2,0.6c0.4-0.2,0.8-0.4,1.2-0.6c6.9-3.6,8.6-4.7,8.2-5.4
			c-0.1-0.1-0.2-0.2-0.3-0.3c-0.1,0-0.1,0-0.2,0C131.8,15.7,131.2,15.9,130.6,16.2"/>
	</defs>
	<clipPath id="SVGID_17_">
		<use xlink:href="#SVGID_16_"  style="overflow:visible;"/>
	</clipPath>
	<g class="st10">
		
			<linearGradient id="SVGID_18_" gradientUnits="userSpaceOnUse" x1="137.8957" y1="-253.833" x2="138.2414" y2="-253.833" gradientTransform="matrix(1.448941e-14 236.63 236.63 -1.448941e-14 60186.7852 -32628.2773)">
			<stop  offset="0" style="stop-color:#BBBDBF"/>
			<stop  offset="0.13" style="stop-color:#C1C3C4"/>
			<stop  offset="0.3" style="stop-color:#D0D2D3"/>
			<stop  offset="0.37" style="stop-color:#C7C9CA"/>
			<stop  offset="0.47" style="stop-color:#AFB1B3"/>
			<stop  offset="0.58" style="stop-color:#929496"/>
			<stop  offset="0.81" style="stop-color:#CED0D1"/>
			<stop  offset="0.82" style="stop-color:#D0D2D3"/>
			<stop  offset="1" style="stop-color:#595A5C"/>
		</linearGradient>
		<rect x="111.2" y="15.5" class="st11" width="22.1" height="41.1"/>
	</g>
</g>
<g>
	<defs>
		<path id="SVGID_19_" d="M68.8,57c-1,0.6-2.2,1.3-2.9,1.7c0.3-0.9,0.3-1.1,0.2-1.2c0-0.1-0.1-0.2-0.2-0.2c-0.2,0-0.3,0-0.7,0.2
			l-0.1,0l0.1,0.3l0.1-0.3l-0.2,0.6c0,0,0.1,0,0.1,0c-0.1,0.2-0.1,0.4-0.2,0.5c-0.2,0.5-0.2,0.5-0.1,0.6c0.1,0.1,0.1,0.2,0.2,0.2
			c0.2,0.1,0.4,0,1.1-0.3c0,0.1,0,0.2,0.1,0.2c0.1,0.1,0.1,0.2,0.2,0.2c0,0,0.1,0,0.1,0c0.4-0.1,0.8-0.2,1.1-0.4
			c0,0.1,0,0.1,0.1,0.2c0,0.1,0.1,0.1,0.2,0.2c0.1,0,0.2,0.1,1-0.3c0,0.1,0,0.1,0.1,0.2c0,0.1,0.1,0.1,0.2,0.2c0.1,0,0.1,0,0.9-0.4
			c0.9-0.5,1.6-0.9,2.3-1.2c-1.2,0.8-1.5,1.1-1.3,1.4c0.1,0.1,0.1,0.2,0.2,0.2c0.3,0.1,0.6-0.1,2.4-1.2c0.1,0,0.1-0.1,0.2-0.1
			c-0.7,0.6-0.8,0.8-0.7,1.1c0.1,0.1,0.1,0.2,0.2,0.2c0.2,0.1,0.5,0,2.2-1c-0.4,0.4-0.5,0.6-0.3,0.8c0.1,0.2,0.4,0.1,0.5,0.1
			c0.8-0.5,1.4-0.8,1.8-1c-0.4,0.5-0.5,0.7-0.4,0.9c0,0.1,0.1,0.1,0.2,0.2c0.1,0,0.2,0,0.5-0.1c0,0.1,0.1,0.1,0.2,0.1
			c0.2,0,0.2,0,0.6-0.2c0,0,0.1,0,0.1-0.1c0,0,0,0.1,0,0.1c0,0.1,0.1,0.1,0.2,0.2c0.1,0,0.2,0,0.4-0.1c0.1,0,0.1-0.1,0.2-0.1
			c0,0,0.1,0,0.1,0c0.2-0.1,0.2-0.3,0.1-0.5c0,0,0,0,0-0.1c0.1-0.1,0.1-0.3,0-0.4c0,0,0,0,0,0c0.1-0.1,0.1-0.2,0-0.3
			c0-0.1-0.1-0.2-0.2-0.2c-0.2,0-0.3,0-0.8,0.2c0.4-0.4,0.4-0.5,0.3-0.7c0-0.1-0.1-0.2-0.2-0.2c-0.1,0-0.3-0.1-1.6,0.6
			c0.3-0.3,0.4-0.5,0.3-0.7c0-0.1-0.1-0.1-0.2-0.2c-0.2-0.1-0.3,0-1.8,0.8c-0.1,0-0.2,0.1-0.2,0.1c0.9-0.8,1.1-0.9,1-1.2
			c-0.1-0.1-0.1-0.2-0.2-0.2c-0.2-0.1-0.4,0-1,0.3c0.3-0.3,0.3-0.4,0.2-0.7c0-0.1-0.1-0.2-0.2-0.2c0,0-0.1,0-0.1,0
			c0-0.1,0-0.1-0.1-0.2c0-0.1-0.1-0.2-0.2-0.2c-0.1,0-0.1,0-0.2,0c0.1-0.2,0.1-0.2,0-0.4c-0.1-0.1-0.1-0.2-0.2-0.2c0,0-0.1,0-0.1,0
			c0.2-0.2,0.2-0.2,0.1-0.4c-0.1-0.1-0.2-0.2-0.3-0.2c-0.1,0-0.1,0-0.2,0C73.5,54.2,72,55,68.8,57"/>
	</defs>
	<clipPath id="SVGID_20_">
		<use xlink:href="#SVGID_19_"  style="overflow:visible;"/>
	</clipPath>
	<g class="st12">
		
			<linearGradient id="SVGID_21_" gradientUnits="userSpaceOnUse" x1="137.8964" y1="-253.4456" x2="138.2421" y2="-253.4456" gradientTransform="matrix(1.450962e-14 236.96 236.96 -1.450962e-14 60129.0977 -32674.0059)">
			<stop  offset="0" style="stop-color:#BBBDBF"/>
			<stop  offset="0.13" style="stop-color:#C1C3C4"/>
			<stop  offset="0.3" style="stop-color:#D0D2D3"/>
			<stop  offset="0.37" style="stop-color:#C7C9CA"/>
			<stop  offset="0.47" style="stop-color:#AFB1B3"/>
			<stop  offset="0.58" style="stop-color:#929496"/>
			<stop  offset="0.81" style="stop-color:#CED0D1"/>
			<stop  offset="0.82" style="stop-color:#D0D2D3"/>
			<stop  offset="1" style="stop-color:#595A5C"/>
		</linearGradient>
		<rect x="65" y="54.2" class="st13" width="15.2" height="5.4"/>
	</g>
</g>
<g>
	<defs>
		<path id="SVGID_22_" d="M108.3,17c-0.3,0.2-1.1,0.6-1.2,0.6c0,0-0.1,0-0.1,0c-0.2,0.1-0.2,0.3-0.1,0.5c0,0.1,0.1,0.1,0.2,0.2
			c0,0,0.1,0,0.1,0c0.1,0,0.3-0.1,1-0.5l0,0c0,0.1,0.1,0.1,0.2,0.2c0.2,0.1,0.3,0,0.7-0.2l0.1-0.1l-0.1-0.2c0.3-0.3,0.4-0.4,0.3-0.7
			c0-0.1-0.1-0.1-0.2-0.2c0,0-0.1,0-0.1,0C108.9,16.6,108.8,16.7,108.3,17"/>
	</defs>
	<clipPath id="SVGID_23_">
		<use xlink:href="#SVGID_22_"  style="overflow:visible;"/>
	</clipPath>
	<g class="st14">
		
			<linearGradient id="SVGID_24_" gradientUnits="userSpaceOnUse" x1="137.8993" y1="-253.7131" x2="138.245" y2="-253.7131" gradientTransform="matrix(1.467678e-14 239.69 239.69 -1.467678e-14 60920.5781 -33051.2031)">
			<stop  offset="0" style="stop-color:#BBBDBF"/>
			<stop  offset="0.13" style="stop-color:#C1C3C4"/>
			<stop  offset="0.3" style="stop-color:#D0D2D3"/>
			<stop  offset="0.37" style="stop-color:#C7C9CA"/>
			<stop  offset="0.47" style="stop-color:#AFB1B3"/>
			<stop  offset="0.58" style="stop-color:#929496"/>
			<stop  offset="0.81" style="stop-color:#CED0D1"/>
			<stop  offset="0.82" style="stop-color:#D0D2D3"/>
			<stop  offset="1" style="stop-color:#595A5C"/>
		</linearGradient>
		<rect x="106.7" y="16.6" class="st15" width="2.7" height="1.7"/>
	</g>
</g>
<g>
	<defs>
		<path id="SVGID_25_" d="M99.4,16.7c-0.4,0.3-1,0.6-1.4,0.8c0.1-0.2,0.1-0.4,0.2-0.6c0.2-0.7,0.3-0.9,0.2-1c0-0.1-0.1-0.1-0.2-0.2
			c-0.1,0-0.1,0-0.2,0h0c-0.2,0-0.3,0-0.8,0.2c0,0,0,0,0,0c0-0.1-0.1-0.2-0.2-0.2c-0.2,0-0.3,0-0.9,0.3c0-0.1,0-0.1,0-0.1
			c0-0.1-0.1-0.1-0.2-0.2c-0.1,0-0.2,0-0.4,0.1c-0.1,0-0.1,0.1-0.2,0.1l0.1,0.2c0,0.1-0.1,0.1-0.1,0.2C95,16.7,94.9,16.8,95,17
			c0,0,0.1,0.1,0.1,0.1C95,17.2,95,17.3,95,17.5c0,0.1,0,0.1,0,0.2c0,0.1,0.1,0.1,0.2,0.2c0.2,0.1,0.3,0,1.5-0.6
			c0.4-0.2,0.6-0.3,0.9-0.4c-0.3,1-0.3,1.2-0.3,1.4c0.1,0.1,0.1,0.2,0.2,0.2c0.2,0.1,0.5,0,1.1-0.4c-0.2,0.3-0.3,0.4-0.2,0.6
			c0.1,0.1,0.1,0.2,0.2,0.2c0.1,0,0.2,0,0.3,0c0,0,0,0.1,0,0.1c0,0.1,0.1,0.1,0.2,0.2h0c0,0,0.1,0.1,0.2,0.1l0,0
			c0,0.1,0.1,0.2,0.2,0.2l0,0c0,0,0,0,0,0.1c0,0.1,0.1,0.1,0.2,0.2c0.2,0.1,0.2,0.1,4.1-2c-0.6,0.4-1.2,0.8-1.7,1.1
			c-2,1.3-2,1.4-1.9,1.7c0,0,0,0,0,0c0,0,0,0.1,0,0.1c0,0,0,0.1,0.1,0.1c0,0.1,0,0.2,0,0.2c0,0.1,0.1,0.1,0.2,0.2c0.2,0,0.2,0,3-1.4
			c0.5-0.2,1-0.5,1.5-0.8c-4.5,3.1-4.5,3.1-4.3,3.5c0,0,0,0,0,0.1c-0.1,0.1-0.1,0.2,0,0.3c0,0.1,0.1,0.2,0.2,0.2c0.1,0,0.1,0,0.2,0
			c-0.4,0.4-0.5,0.5-0.3,0.7c0,0.1,0.1,0.1,0.2,0.2c0,0,0.1,0,0.1,0c-0.4,0.3-0.4,0.4-0.3,0.6c0,0.1,0.1,0.2,0.2,0.2
			c-0.3,0.2-0.3,0.4-0.2,0.6c0,0.1,0.1,0.1,0.2,0.2c0.2,0,0.2,0.1,1-0.4l0.3-0.2c-1.5,1.5-1.6,1.7-1.5,2c0,0,0,0,0,0.1
			c-0.1,0.1-0.1,0.3,0,0.4c0,0,0,0,0.1,0.1c-0.1,0.1-0.1,0.3-0.1,0.4c0,0,0,0.1,0.1,0.1c-0.1,0.1-0.1,0.3-0.1,0.5
			c0,0.1,0.1,0.1,0.2,0.2c0.2,0,0.3,0,1-0.3c-1,0.9-1.4,1.2-1.3,1.5c0,0.1,0,0.1,0,0.2c0,0.1,0.1,0.1,0.2,0.2c0.2,0,0.3,0,0.8-0.3
			c-1.2,1.1-1.2,1.1-1,1.4c0,0.1,0.1,0.1,0.2,0.2c-0.2,0.2-0.3,0.4-0.2,0.6c0,0.1,0.1,0.1,0.2,0.2c0.2,0.1,0.2,0,1-0.4
			c-1.4,1.4-1.3,1.6-1.2,1.8c0.1,0.1,0.1,0.2,0.2,0.2c0.2,0,0.4,0,1-0.4c-0.2,0.2-0.3,0.3-0.5,0.4c-0.9,0.7-0.9,0.8-0.7,1
			c0,0.1,0.1,0.2,0.2,0.2c0.1,0,0.3,0,0.6-0.2c-0.9,0.8-1,0.8-0.9,1.1c0,0.1,0.1,0.2,0.2,0.2c0.1,0,0.3,0,0.4,0
			c-0.6,0.6-0.7,0.8-0.6,1c0,0.1,0.1,0.1,0.2,0.2c0.2,0.1,0.2,0,1.4-0.6c0.1,0,0.1-0.1,0.2-0.1c-0.1,0.1-0.3,0.3-0.4,0.4
			c-1.2,1.2-1.5,1.4-1.3,1.7c0,0,0,0,0,0c-0.1,0.1-0.1,0.3,0,0.4c0,0.1,0.1,0.2,0.2,0.2c0.2,0.1,0.3,0,1.4-0.6c0,0,0,0-0.1,0.1
			c-1.6,1.8-1.6,1.8-1.5,2c0,0.1,0.1,0.2,0.2,0.2c0.2,0,0.3,0,1.1-0.4c-1.2,1.1-1.4,1.4-1.3,1.8c0,0,0,0.1,0.1,0.1
			c-0.1,0.1-0.2,0.2-0.1,0.4c0,0,0,0,0,0c0,0,0,0,0,0c-0.1,0.1-0.1,0.3,0,0.4c0,0.1,0.1,0.1,0.2,0.2c0,0,0.1,0,0.1,0
			c0.1,0,0.2,0,0.5-0.2c1.5-0.9,2-1.1,2.2-1.2c0.1,0,0.2,0,0.3,0c0.2-0.1,0.2-0.3,0.1-0.5l0-0.1c0.1-0.1,0.1-0.3,0-0.4
			c0,0,0,0,0-0.1c0.1-0.1,0.1-0.3,0-0.4c0-0.1-0.1-0.1-0.2-0.2c-0.1-0.1-0.2-0.1-1.4,0.6c0.1-0.1,0.2-0.2,0.3-0.3
			c1.2-1.2,1.5-1.4,1.3-1.7c0-0.1-0.1-0.1-0.2-0.2c-0.2-0.1-0.3,0-1.3,0.6c-0.1,0-0.1,0.1-0.2,0.1c0.1-0.1,0.2-0.2,0.3-0.4
			c1.5-1.6,1.5-1.6,1.4-1.8c0,0,0,0,0-0.1c0.1-0.1,0.1-0.2,0-0.4c0-0.1-0.1-0.1-0.2-0.2c-0.2-0.1-0.2-0.1-0.8,0.3
			c-0.2,0.1-0.4,0.2-0.7,0.4c0,0,0.1-0.1,0.1-0.1c1.4-1.4,1.8-1.7,1.6-2.1c0-0.1-0.1-0.2-0.2-0.2c-0.1,0-0.2,0-0.7,0.2
			c0.9-0.7,1.1-0.9,0.9-1.2c0-0.1-0.1-0.2-0.2-0.2c-0.1,0-0.2,0-0.3,0c0.6-0.5,0.6-0.7,0.5-1c0-0.1-0.1-0.2-0.2-0.2
			c-0.1,0-0.2,0-0.5,0.1c0.8-0.7,0.8-0.9,0.7-1.2c-0.1-0.1-0.1-0.2-0.2-0.2c-0.3-0.1-0.5,0.1-1.6,0.7c0.4-0.4,0.9-0.9,1.6-1.6
			c0.1-0.1,0.3-0.3,0.2-0.5c0-0.1-0.1-0.1-0.2-0.2c0.2-0.2,0.3-0.3,0.2-0.5c-0.1-0.1-0.1-0.2-0.2-0.2c-0.2-0.1-0.4,0-0.8,0.2
			c1-0.9,1.2-1,1.1-1.3c0-0.1,0-0.1,0-0.2c-0.1-0.1-0.1-0.2-0.2-0.2c-0.2,0-0.3,0-0.8,0.2c1-0.9,1.1-1.1,1-1.4c0,0,0-0.1-0.1-0.1
			c0.1-0.1,0.2-0.3,0.1-0.5c0,0,0,0,0-0.1c0.1-0.1,0.1-0.3,0.1-0.4c0,0,0,0,0-0.1c0.1-0.1,0.1-0.3,0-0.4c-0.1-0.1-0.1-0.2-0.2-0.2
			c-0.2-0.1-0.5,0-1.3,0.5l0.5-0.4c1.2-1.1,1.2-1.2,1.1-1.4c0-0.1-0.1-0.1-0.2-0.2c0.2-0.2,0.3-0.4,0.2-0.6
			c-0.1-0.1-0.1-0.2-0.2-0.2h0c0.3-0.3,0.4-0.5,0.3-0.7c0-0.1-0.1-0.1-0.2-0.2c-0.1,0-0.2,0-0.2,0c0.6-0.5,0.6-0.6,0.5-0.8
			c0,0,0,0,0,0c0.1-0.1,0.2-0.3,0.1-0.4c0,0,0,0,0,0c0-0.1-0.1-0.1-0.2-0.2c0.5-0.3,0.9-0.7,1.4-1c3.8-2.7,3.8-2.7,3.6-3l0,0
			c0,0,0,0,0-0.1c0-0.1,0-0.1,0-0.2c0-0.1,0-0.2,0-0.2c0-0.1-0.1-0.1-0.2-0.2c-0.1,0-0.2,0-0.6,0.2c-1.1,0.4-2.1,1-3.1,1.6l-0.2,0.1
			c1.3-1,1.6-1.3,1.4-1.7c0-0.1-0.1-0.1-0.2-0.2c-0.1,0-0.1,0-0.6,0.2l0,0c-0.1-0.1-0.1-0.1-0.2-0.2c-0.1,0-0.3,0-0.4,0.1l-0.1,0
			c-0.1,0-0.1,0-0.3,0.1c0,0-0.1,0-0.1-0.1c-0.1,0-0.2,0-0.8,0.3c0,0,0-0.1-0.1-0.1c0-0.1-0.1-0.1-0.2-0.2c-0.2-0.1-0.4,0-2.2,1
			l-0.3,0.2c0.7-0.6,0.9-0.8,0.7-1c-0.1-0.1-0.1-0.2-0.2-0.2c0,0-0.1,0-0.1,0C101.1,15.7,100.7,15.9,99.4,16.7"/>
	</defs>
	<clipPath id="SVGID_26_">
		<use xlink:href="#SVGID_25_"  style="overflow:visible;"/>
	</clipPath>
	<g class="st16">
		
			<linearGradient id="SVGID_27_" gradientUnits="userSpaceOnUse" x1="137.8957" y1="-253.6731" x2="138.2414" y2="-253.6731" gradientTransform="matrix(1.448329e-14 236.53 236.53 -1.448329e-14 60103.5078 -32614.4961)">
			<stop  offset="0" style="stop-color:#BBBDBF"/>
			<stop  offset="0.13" style="stop-color:#C1C3C4"/>
			<stop  offset="0.3" style="stop-color:#D0D2D3"/>
			<stop  offset="0.37" style="stop-color:#C7C9CA"/>
			<stop  offset="0.47" style="stop-color:#AFB1B3"/>
			<stop  offset="0.58" style="stop-color:#929496"/>
			<stop  offset="0.81" style="stop-color:#CED0D1"/>
			<stop  offset="0.82" style="stop-color:#D0D2D3"/>
			<stop  offset="1" style="stop-color:#595A5C"/>
		</linearGradient>
		<rect x="94.9" y="15.6" class="st17" width="14.5" height="27.8"/>
	</g>
</g>
<g>
	<defs>
		<path id="SVGID_28_" d="M95.9,46.7c2.2-1.3,6.6-4,7.7-4.1c-0.1,0.1-0.3,0.2-0.4,0.3c-1.1,0.4-3.3,1.6-6.8,3.7l-0.2,0.1l-0.2,0.1
			l-1.8,0.9C94.7,47.3,95.2,47,95.9,46.7 M96.1,39.5c-0.2,0.2-0.5,0.3-0.8,0.5l-1,0.5C95,40.1,95.6,39.7,96.1,39.5 M91.3,36.6
			L90,37.3c-1.2,0.7-2.8,1.7-3.7,2.2C87.4,38.7,89.8,37.4,91.3,36.6 M79.1,22.9L77.2,24c-1.8,0.8-2.7,1.2-3.1,1.5
			c-0.1,0-0.2,0-0.2,0c-0.2,0.1-0.2,0.3-0.2,0.4c0,0,0,0,0,0c0,0.1,0.1,0.1,0.1,0.1v0c0,0.1,0.1,0.1,0.2,0.2c0,0,0,0.1,0,0.1
			c0,0.1,0.1,0.1,0.2,0.2c0.2,0.1,0.2,0.1,2.1-1.1l0.6-0.3l1-0.5c0.6-0.3,1.1-0.5,1.5-0.7c-0.2,0.1-0.4,0.2-0.6,0.3
			c-4.1,2.5-4.3,2.7-4.1,3.2c0,0.1,0.1,0.1,0.2,0.2c0,0,0,0,0,0c0,0.1,0,0.1,0,0.2c0,0,0.1,0.1,0.1,0.1c0,0,0.1,0.1,0.1,0.1
			c0,0,0,0,0,0c0.1,0.1,0.2,0.2,0.3,0.2c0.3,0.1,0.7,0,1.5-0.4c-0.9,0.7-1,1-0.9,1.3c0.1,0.1,0.1,0.2,0.2,0.2
			c0.4,0.1,1.5-0.3,6.4-3.1c-1.1,0.8-2.7,1.8-4.9,3.2c-0.9,0.6-0.9,0.6-0.8,0.9c0.1,0.1,0.2,0.2,0.3,0.2c0.4,0.1,1.3-0.4,4.3-2.2
			c1.1-0.7,2.5-1.5,3.5-2.1c-1.3,0.9-3.4,2.1-4.7,2.9c-2.8,1.7-2.8,1.7-2.6,2c0,0.1,0.1,0.1,0.2,0.2c0.2,0.1,0.2,0.1,4.5-2.2
			c0.7-0.4,1.4-0.7,2.1-1.1c-1.4,1-3.1,2-4.1,2.7c-1.9,1.2-1.9,1.2-1.7,1.5c0,0.1,0.1,0.1,0.1,0.1c0.1,0.1,0.2,0.2,0.3,0.2
			c0.2,0.1,0.6,0,1.3-0.3c-0.9,0.6-0.9,0.8-0.8,1.1c0,0.1,0.1,0.2,0.2,0.2c0,0,0,0.1,0,0.1c0,0.1,0.1,0.2,0.2,0.2c0,0,0,0.1,0,0.1
			c0,0,0.1,0.1,0.1,0.1l0,0c0,0.1,0.1,0.1,0.1,0.1c0,0,0,0,0.1,0l0,0c0,0.1,0.1,0.1,0.1,0.1c0,0,0,0,0,0c0,0.1,0.1,0.2,0.2,0.2
			c0,0,0,0.1,0,0.1c0,0.1,0.1,0.1,0.2,0.2c0.1,0,0.1,0,0.8-0.3c-0.6,0.4-0.6,0.6-0.5,0.8c0.1,0.1,0.2,0.2,0.3,0.2
			c0.5,0.1,1.5-0.4,4.6-2.3c1-0.6,2.4-1.4,3.3-1.9c-0.8,0.5-2,1.2-3,1.8c-3.7,2.2-4.6,2.8-4.3,3.4c0.1,0.1,0.2,0.2,0.3,0.2
			c0.3,0.1,0.9-0.1,2.5-0.9c-1.8,1.1-2,1.4-1.8,1.8c0.1,0.1,0.2,0.2,0.3,0.2h0c0,0.1,0,0.1,0,0.2c0,0.1,0.1,0.1,0.2,0.2
			c0,0,0,0.1,0,0.1c0.1,0.1,0.2,0.2,0.3,0.2c0.3,0,0.6,0,0.9-0.1c-0.6,0.5-0.5,0.6-0.4,0.8c0.1,0.1,0.1,0.2,0.2,0.2
			c0.2,0,0.4,0,0.5-0.1c-0.2,0.2-0.2,0.4-0.1,0.6c0.1,0.1,0.2,0.2,0.3,0.2c0,0.1,0,0.1,0,0.2c0,0.1,0.1,0.2,0.2,0.2
			c0.3,0.1,0.8-0.2,3.5-1.8l1.1-0.7c0.5-0.3,0.9-0.5,1.3-0.7c-5.5,3.8-5.5,3.8-5.3,4.2c0.1,0.1,0.1,0.2,0.2,0.2
			c0.3,0.1,1-0.2,4.2-2.1c1.2-0.7,2.9-1.7,3.9-2.2c-1,0.8-2.8,1.9-4.1,2.7c-3.3,2.1-3.5,2.3-3.3,2.7c0.1,0.1,0.1,0.2,0.2,0.2
			c0.1,0,0.1,0,0.2,0c-0.1,0.1,0,0.2,0,0.3c0.1,0.1,0.2,0.2,0.3,0.2c0.2,0,0.5,0,0.7-0.1c-0.5,0.3-0.5,0.4-0.3,0.6
			c0,0.1,0.1,0.2,0.2,0.2c0.1,0,0.1,0,0.8-0.4l0.8-0.4c-1.2,0.8-1.3,1.1-1.2,1.4c0,0.1,0.1,0.1,0.2,0.2c0.2,0,0.2,0,1.4-0.7
			c3.7-2.2,6-3.5,7.1-3.9c-1.2,0.9-2.5,1.7-3.9,2.5c-3.5,2-4.1,2.5-3.9,3c0.1,0.1,0.2,0.2,0.3,0.2c0.1,0,0.3,0,0.4,0
			c-0.1,0.1-0.2,0.4-0.1,0.5c0.1,0.1,0.2,0.2,0.3,0.2c0.2,0.1,0.5,0,1-0.2c-0.6,0.5-0.6,0.7-0.5,0.9c0.1,0.1,0.1,0.2,0.2,0.2
			c0.4,0.1,1.3-0.3,4.4-2.2c1.1-0.7,2.6-1.5,3.5-2c-1.3,0.9-3.8,2.4-5.3,3.1c-2.4,1.4-2.4,1.4-2.3,1.7c0.1,0.1,0.1,0.2,0.2,0.2
			c0.1,0,0.2,0,0.5-0.1c-0.1,0.1-0.2,0.1-0.2,0.2c0,0.1,0,0.2,0,0.3c0.1,0.1,0.1,0.2,0.2,0.2c0.1,0,0.2,0,0.3,0
			c-0.1,0.1-0.1,0.3,0,0.4c0.1,0.1,0.1,0.2,0.2,0.2h0.1c0,0.1,0,0.2,0,0.3c0.1,0.1,0.2,0.2,0.3,0.2c0.2,0,0.3,0,0.5,0
			c-0.2,0.2-0.2,0.4-0.1,0.6c0.1,0.1,0.1,0.2,0.2,0.2h0c0,0.1,0,0.2,0.1,0.2c0.1,0.1,0.1,0.2,0.2,0.2c0.1,0,0.1,0,0.2,0
			c-0.1,0.1,0,0.3,0,0.4c0,0.1,0.1,0.1,0.2,0.2c0,0,0,0.1,0,0.1c0,0.1,0.1,0.2,0.2,0.2c0.2,0,0.2,0,1.1-0.5c0.7-0.3,1.5-0.7,2.2-1
			c-2.4,1.6-2.8,2.1-2.6,2.5c0,0,0.1,0.1,0.1,0.1c0,0,0,0,0,0c0,0.1,0.1,0.2,0.2,0.2c0.1,0,0.2,0,0.3,0c-0.1,0.1-0.1,0.3,0,0.4
			c0.1,0.1,0.1,0.2,0.2,0.2c0.1,0,0.2,0,0.3,0c-0.1,0.1-0.1,0.3,0,0.4c0,0,0,0,0,0c0.1,0.1,0.1,0.2,0.2,0.2c0,0,0,0,0.1,0
			c0,0.1,0,0.2,0.1,0.2c0,0,0,0.1,0.1,0.1c0,0.1,0.1,0.1,0.2,0.2c0.2,0,0.3,0.1,3.6-1.7c-0.7,0.5-1.5,1.2-2.6,2
			c-0.3,0.3-0.5,0.4-0.3,0.6c0,0.1,0.1,0.1,0.1,0.2l0,0c0,0,0,0,0,0c0,0.1,0.1,0.2,0.2,0.2c0.2,0.1,0.2,0.1,1.7-0.8
			c0.3-0.2,0.7-0.4,1.1-0.6c-2.2,1.6-2.4,1.8-2.2,2.2c0,0.1,0.1,0.1,0.1,0.1c0,0,0,0,0,0.1c0,0.1,0.1,0.1,0.1,0.2c0,0,0,0,0,0.1
			c0.1,0.1,0.1,0.1,0.2,0.2c0.1,0,0.3,0,0.8-0.2c-0.6,0.5-0.6,0.5-0.5,0.8c0,0.1,0.1,0.1,0.2,0.2c0.1,0,0.1,0,0.6-0.2
			c-0.3,0.3-0.3,0.4-0.3,0.6c0,0.1,0.1,0.1,0.1,0.1c0,0,0,0,0,0c0,0.1,0.1,0.1,0.2,0.2c0.1,0,0.2,0,0.5-0.1c0.1-0.1,0.2-0.1,0.3-0.2
			c-0.5,0.5-0.5,0.6-0.4,0.8c0,0,0,0.1,0.1,0.1c0,0,0,0,0.1,0.1c0,0.1,0.1,0.1,0.2,0.1c0.2,0.1,0.4,0,1.2-0.5l0.4-0.2l0,0
			c0,0.1,0,0.1-0.1,0.2c-0.2,0.5-0.2,0.6-0.2,0.8c0,0.1,0.1,0.2,0.2,0.2h0.1h0c0.1,0,0.2-0.1,0.6-0.2v0c0.1,0,0.1-0.1,0.2-0.2
			c0-0.1,0-0.2,0-0.3c0-0.1-0.1-0.1-0.2-0.2c0.1-0.3,0.2-0.6,0.2-0.9c0,0,0-0.1,0-0.1c0-0.1,0-0.1,0-0.2c-0.1-0.1-0.1-0.2-0.2-0.2
			c-0.1,0-0.1,0-0.2,0c0.5-0.4,0.5-0.5,0.5-0.7c0.1-0.1,0-0.2,0-0.3c0-0.1-0.1-0.2-0.2-0.2c0,0,0,0-0.1,0c0.3-0.3,0.4-0.5,0.3-0.7
			c0-0.1-0.1-0.1-0.2-0.2c-0.1,0-0.2,0-0.3,0c0.5-0.4,0.6-0.6,0.5-0.8c0,0,0,0,0,0c0-0.1,0-0.2,0-0.3c0,0,0,0,0,0c0-0.1,0-0.2,0-0.3
			c0-0.1-0.1-0.2-0.2-0.2c-0.2-0.1-0.3,0-1.8,0.8c2-1.5,2.2-1.6,2-1.9l0,0c0-0.1,0-0.1,0-0.2c0-0.1,0-0.1,0-0.2
			c0-0.1-0.1-0.1-0.2-0.2c-0.1,0-0.2-0.1-1.9,0.8c2.1-1.6,2.2-1.9,2.2-2.1c0-0.1,0-0.1,0-0.2c0-0.1-0.1-0.1-0.1-0.1
			c0.2-0.2,0.2-0.3,0.1-0.5c-0.1-0.1-0.1-0.2-0.2-0.2c0,0-0.1,0-0.1,0c0.5-0.3,0.5-0.4,0.4-0.6c-0.1-0.1-0.2-0.2-0.3-0.2
			c0,0-0.1,0-0.1,0c0.5-0.3,0.5-0.4,0.4-0.6c0-0.1,0-0.2,0-0.2c-0.1-0.1-0.2-0.2-0.3-0.2c-0.5-0.1-1.6,0.5-4.9,2.4
			c0.9-0.6,1.9-1.2,2.6-1.7c2.7-1.7,2.7-1.7,2.5-2.1c0,0,0,0,0,0c0,0,0-0.1,0-0.1c0-0.1,0-0.2,0-0.3c0-0.1-0.1-0.1-0.2-0.2
			c0,0-0.1,0-0.1,0c0.5-0.3,0.4-0.4,0.3-0.6c0,0-0.1-0.1-0.1-0.1c0.2-0.2,0.2-0.3,0.1-0.5c-0.1-0.1-0.2-0.2-0.3-0.2
			c-0.2,0-0.3,0-0.5,0c0.8-0.5,0.9-0.6,0.7-0.9c0-0.1-0.1-0.1-0.2-0.2c0.1-0.1,0.2-0.1,0.2-0.2c0-0.1,0-0.2,0-0.3
			c-0.1-0.1-0.1-0.2-0.2-0.2c0,0,0,0,0,0c0.4-0.3,0.4-0.4,0.3-0.6c0-0.1-0.1-0.1-0.1-0.2c0.1-0.1,0.1-0.2,0.2-0.3c0-0.1,0-0.3,0-0.4
			c-0.1-0.1-0.2-0.2-0.3-0.3c-0.5-0.1-1.4,0.2-3,1c0-0.1,0-0.2,0-0.2c-0.1-0.1-0.2-0.2-0.3-0.2c-0.3-0.1-1.1,0.2-2.8,1.2
			c2.5-1.5,2.5-1.5,2.4-1.9c-0.1-0.1-0.2-0.2-0.3-0.2c-0.1,0-0.3,0-0.4,0c0.3-0.2,0.2-0.3,0.1-0.5c0-0.1-0.1-0.1-0.2-0.2
			c-0.2-0.1-0.2,0-1.7,0.9c-1.3,0.8-4.2,2.4-6,3.3c0.7-0.5,1.7-1,2.5-1.5c3.9-2.3,4.8-2.9,4.5-3.6c-0.1-0.1-0.2-0.2-0.3-0.2
			c-0.1,0-0.3,0-0.4,0c0.3-0.2,0.2-0.3,0.1-0.5c-0.1-0.1-0.2-0.2-0.3-0.2c-0.1,0-0.2,0-0.3,0c0.1-0.2,0.1-0.3,0-0.5
			c-0.1-0.1-0.2-0.2-0.3-0.2c0,0-0.1,0-0.1,0c0-0.1,0-0.2,0-0.3c-0.1-0.1-0.1-0.2-0.2-0.2c-0.3-0.1-0.8,0.1-4.5,2.2
			c-0.1,0-0.1,0.1-0.2,0.1c3.6-2.3,4.2-2.9,4-3.4c-0.1-0.1-0.2-0.2-0.3-0.2c-0.5-0.1-1.7,0.5-5.3,2.6c0,0-0.1,0-0.1,0.1
			c0.8-0.5,1.5-1,2.1-1.5c2.7-1.8,2.7-1.8,2.6-2.1c-0.1-0.1-0.2-0.2-0.3-0.2c0-0.1,0-0.1,0-0.2c-0.1-0.1-0.2-0.2-0.3-0.2
			c-0.3,0-0.6,0-0.8,0.2c0.6-0.4,0.6-0.5,0.5-0.7c0-0.1-0.1-0.1-0.2-0.2c-0.2-0.1-0.2-0.1-2.6,1.3c-1,0.5-2.4,1.4-3.7,2.1
			c0.8-0.5,1.7-1,2.4-1.5c3.6-2.2,3.6-2.2,3.4-2.6c0-0.1-0.1-0.1-0.2-0.2c0,0,0-0.1,0-0.1c-0.1-0.1-0.1-0.2-0.3-0.2h0
			c0-0.1,0-0.1-0.1-0.2c0-0.1-0.1-0.1-0.2-0.2c-0.2-0.1-0.2-0.1-2.4,1.2c-1.4,0.8-4.2,2.5-5.8,3.2c0.8-0.5,2-1.3,3-1.9
			c4-2.4,4.7-2.9,4.4-3.5c0-0.1-0.1-0.1-0.2-0.2c-0.2-0.1-0.2-0.1-2.8,1.4c-1.5,0.9-3.9,2.3-5.3,2.9c0.8-0.6,2.3-1.4,3.3-2
			c3.6-2.1,4.4-2.7,4.1-3.3c-0.1-0.1-0.2-0.2-0.3-0.2c-0.1,0-0.2,0-0.3,0c0.1-0.1,0.1-0.3,0-0.4c0-0.1-0.1-0.1-0.2-0.2h0
			c0-0.1,0-0.1,0-0.2c0-0.1-0.1-0.1-0.1-0.2l0,0c0,0-0.1-0.1-0.1-0.1l0,0c0,0,0-0.1-0.1-0.1c0,0-0.1-0.1-0.1-0.1
			c0-0.1-0.1-0.2-0.2-0.2c0,0,0-0.1,0-0.1c0-0.1-0.1-0.1-0.2-0.2c0,0,0-0.1,0-0.1c-0.1-0.1-0.1-0.2-0.2-0.2
			c-0.3-0.1-0.8,0.1-3.5,1.8c-1.3,0.8-3.1,1.9-4.3,2.5c0.7-0.5,1.8-1.1,2.6-1.6c4.3-2.5,4.9-3,4.6-3.5c0-0.1-0.1-0.1-0.1-0.1v0
			c-0.1-0.1-0.2-0.2-0.3-0.2c-0.3-0.1-0.9,0.1-2,0.8c1.5-1.1,1.5-1.3,1.4-1.6c0-0.1-0.1-0.2-0.2-0.2c-0.1,0-0.2-0.1-1.9,0.8
			c1.5-1,1.5-1.3,1.4-1.6c-0.1-0.1-0.2-0.2-0.3-0.2c-0.3-0.1-0.9,0.1-1.8,0.6c1.4-1.1,1.3-1.3,1.1-1.5c0-0.1-0.1-0.1-0.2-0.2
			c-0.2,0-0.2,0-2,1c-1.5,0.9-4.6,2.6-6.2,3.4c1.1-0.8,3.3-2.2,4.6-3c3-1.8,3.1-1.9,2.9-2.3c0-0.1-0.1-0.1-0.1-0.1c0,0,0,0,0,0
			c0,0,0-0.1-0.1-0.1c-0.1-0.1-0.1-0.2-0.2-0.2c0,0,0-0.1,0-0.1c-0.1-0.1-0.2-0.2-0.3-0.2c-0.3-0.1-0.8,0.1-1.8,0.6
			c1.3-0.9,1.4-1.1,1.2-1.4c0-0.1-0.1-0.1-0.2-0.2c0,0,0-0.1,0-0.1c0-0.1-0.1-0.1-0.1-0.1c0,0,0,0,0,0c-0.1-0.1-0.1-0.1-0.2-0.2
			c0,0-0.1,0-0.1,0c-0.3,0-1.1,0.4-4.1,2.1"/>
	</defs>
	<clipPath id="SVGID_29_">
		<use xlink:href="#SVGID_28_"  style="overflow:visible;"/>
	</clipPath>
	<g class="st18">
		
			<linearGradient id="SVGID_30_" gradientUnits="userSpaceOnUse" x1="137.8952" y1="-253.5823" x2="138.2409" y2="-253.5823" gradientTransform="matrix(1.448022e-14 236.48 236.48 -1.448022e-14 60056.2109 -32607.4297)">
			<stop  offset="0" style="stop-color:#BBBDBF"/>
			<stop  offset="0.13" style="stop-color:#C1C3C4"/>
			<stop  offset="0.3" style="stop-color:#D0D2D3"/>
			<stop  offset="0.37" style="stop-color:#C7C9CA"/>
			<stop  offset="0.47" style="stop-color:#AFB1B3"/>
			<stop  offset="0.58" style="stop-color:#929496"/>
			<stop  offset="0.81" style="stop-color:#CED0D1"/>
			<stop  offset="0.82" style="stop-color:#D0D2D3"/>
			<stop  offset="1" style="stop-color:#595A5C"/>
		</linearGradient>
		<rect x="73.6" y="20.8" class="st19" width="30.9" height="39.9"/>
	</g>
</g>
<g>
	<defs>
		<path id="SVGID_31_" d="M72.8,35.6L72.8,35.6L72.8,35.6 M76.1,22.8c-1.5,1-3.4,2.1-4.3,2.5C73.1,24.4,74.6,23.5,76.1,22.8
			 M81.2,20.6c-0.8,0.5-2.1,1.3-3.5,2.1C78.9,21.9,80.3,21,81.2,20.6 M67.5,16.5c-0.3,0.2-0.8,0.5-1.1,0.7c0-0.2,0-0.5,0-0.6
			c0-0.5,0-0.5,0-0.6c0-0.1-0.1-0.1-0.2-0.2c-0.2,0-0.2,0-0.4,0.1c0,0-0.1,0-0.1,0.1l-0.1,0c-0.2,0.1-0.2,0.3-0.1,0.5
			c0,0.1,0.1,0.2,0.2,0.2c0,0,0.1,0,0.1,0c0,1,0,1.1,0.1,1.2c0,0.1,0.1,0.2,0.2,0.2c0.1,0,0.1,0,0.2,0c0,0,0.1,0.1,0.1,0.1
			c0.2,0.1,0.2,0.1,1.4-0.6c-0.6,0.6-0.7,0.8-0.6,1c0.1,0.1,0.1,0.2,0.2,0.2c0.2,0,0.4,0,1-0.3c-0.6,0.4-0.6,0.5-0.5,0.7
			c0.1,0.1,0.1,0.2,0.2,0.2c0.1,0,0.3,0,0.4,0c-0.1,0.1-0.1,0.3,0,0.5c0.1,0.1,0.1,0.2,0.2,0.2c0.3,0.1,0.8,0,3.9-1.8l-0.3,0.2
			c-2.7,1.9-3,2.2-2.8,2.6c0.1,0.1,0.1,0.2,0.2,0.2c0.4,0.1,1.1-0.3,4-2.1c1.1-0.7,2.7-1.6,3.8-2.2c-1.2,0.8-3.1,1.9-4.5,2.7
			c-3.1,1.8-3.1,1.8-2.9,2.2c0,0.1,0.1,0.1,0.2,0.2c0.2,0,0.2,0,1.2-0.6c4.1-2.5,6.2-3.6,7.2-4c-1.4,1-4.6,2.9-6.2,3.9
			c-2.1,1.2-2.1,1.2-1.9,1.5c0,0,0,0,0,0c0,0,0,0.1,0,0.1c0,0.1,0,0.2,0,0.3c0,0.1,0.1,0.1,0.2,0.2c0.2,0.1,0.2,0.1,2.1-0.9
			c-2.1,1.4-2.5,1.9-2.3,2.3c0,0,0,0,0,0c0,0.1,0,0.2,0,0.3c0,0,0.1,0.1,0.1,0.1c-0.1,0.1-0.1,0.1-0.1,0.2c-0.1,0.1-0.1,0.2,0,0.4
			c0.1,0.1,0.2,0.2,0.3,0.3c0.1,0,0.1,0,0.2,0c-0.7,0.4-0.6,0.5-0.5,0.7c0,0,0,0,0,0c-0.1,0.1-0.1,0.3,0,0.4c0,0.1,0.1,0.2,0.2,0.2
			c0.1,0,0.2,0,0.2,0c-0.5,0.5-0.6,0.7-0.5,0.9c0,0.1,0.1,0.1,0.2,0.2c0.1,0,0.2,0,0.8-0.3l-0.4,0.3c-0.7,0.5-0.8,0.6-0.6,0.9
			c0.1,0.1,0.1,0.2,0.2,0.2c0.2,0,0.3,0,0.9-0.3c-1.2,1.1-1.2,1.1-1.1,1.4c0,0,0.1,0.1,0.1,0.1c-0.2,0.1-0.2,0.3-0.1,0.5
			c0,0,0,0,0,0.1c-0.1,0.1-0.1,0.3,0,0.4c0,0.1,0.1,0.1,0.2,0.2c0.2,0.1,0.3,0,1.2-0.5c-0.2,0.2-0.5,0.5-0.6,0.6
			c-0.9,0.8-0.9,0.8-0.7,1.1c0.1,0.1,0.1,0.2,0.2,0.2h0c-0.4,0.4-0.3,0.5-0.3,0.7c0.1,0.1,0.1,0.1,0.2,0.2c0.2,0.1,0.4,0,1.2-0.5
			c-1.4,1.4-1.6,1.7-1.5,2c0,0.1,0.1,0.2,0.2,0.2c0.1,0,0.1,0,0.2,0c-0.5,0.5-0.5,0.7-0.4,0.9c0,0.1,0.1,0.2,0.2,0.2
			c0.2,0.1,0.4,0.1,0.6,0c-0.3,0.2-0.4,0.4-0.6,0.6c-0.1,0.1-0.1,0.1-0.2,0.2l0,0c0,0.1,0,0.2,0,0.2l0,0.1c0,0.1,0.1,0.1,0.2,0.2
			c-0.2,0.1-0.3,0.3-0.2,0.5c0.1,0.1,0.1,0.2,0.2,0.2c0.2,0.1,0.5,0,1.2-0.4c-1.4,1.4-1.5,1.6-1.4,1.9c0,0,0,0,0,0.1
			c-0.2,0.1-0.1,0.2,0,0.4c0,0,0,0.1,0.1,0.1c-0.1,0.1-0.2,0.3-0.1,0.5c0,0.1,0.1,0.2,0.2,0.2c0.2,0,0.3,0,1.2-0.5L72,41.4
			c-1.3,1.2-1.5,1.4-1.3,1.7c0,0.1,0.1,0.2,0.2,0.2c0.2,0.1,0.3,0,1.2-0.4c-1.4,1.3-1.5,1.5-1.4,1.8c0,0,0,0,0,0
			c-0.1,0.1-0.1,0.2,0,0.3c0,0.1,0.1,0.1,0.2,0.2c0.2,0.1,0.3,0,0.9-0.3c-1.3,1.2-1.2,1.3-1.1,1.6c0,0.1,0.1,0.1,0.2,0.2
			c0.1,0,0.2,0.1,1.5-0.6c-0.3,0.2-0.5,0.5-0.7,0.7c-1.1,1-1.1,1.1-1,1.3c0,0.1,0.1,0.2,0.2,0.2H71c-0.4,0.3-0.4,0.4-0.3,0.6
			c0,0,0,0,0,0c0,0.1,0,0.2,0,0.3c0.1,0.1,0.1,0.2,0.2,0.2c0.1,0,0.3,0,0.7-0.2c-1.1,1.1-1,1.3-0.9,1.5c0,0.1,0.1,0.1,0.2,0.2
			c0.2,0.1,0.3,0,1.1-0.4c-0.1,0.1-0.1,0.1-0.2,0.2c-1.2,1.2-1.2,1.2-1.1,1.5c0,0,0,0,0,0c-0.1,0.1-0.1,0.3,0,0.4
			c0,0.1,0.1,0.1,0.2,0.2c0.2,0.1,0.2,0.1,1.4-0.6c-0.1,0.1-0.3,0.3-0.4,0.4c-1.4,1.3-1.5,1.5-1.3,1.8l0,0c-0.3,0.2-0.3,0.3-0.2,0.5
			c-0.2,0.2-0.1,0.2-0.1,0.4c0,0.1,0.1,0.1,0.2,0.2c-1,0.6-1,0.7-0.9,1c0.1,0.1,0.1,0.2,0.2,0.2c0.2,0,0.9-0.3,2.9-1.4
			c0.7-0.3,1.4-0.7,1.5-0.8L74.1,54l0.1-0.3h0c0.2-0.2,0.2-0.3,0.1-0.5l0,0c0-0.1,0-0.2-0.1-0.3c0,0-0.1-0.1-0.1-0.1
			c0.1-0.1,0.1-0.3,0.1-0.4c0,0,0,0,0,0c0-0.1-0.1-0.2-0.2-0.2c-0.1,0-0.3-0.1-1.2,0.4c1.4-1.3,1.5-1.6,1.4-1.9c0,0,0,0,0,0
			c0.1-0.1,0.1-0.3,0-0.4c-0.1-0.1-0.1-0.2-0.2-0.2c-0.2,0-0.4,0-0.9,0.3c1.3-1.3,1.3-1.3,1.1-1.5c0-0.1-0.1-0.1-0.2-0.2
			c-0.2-0.1-0.3,0-1.5,0.7c-0.1,0-0.2,0.1-0.3,0.2c0.4-0.4,0.9-0.9,1.8-1.7c0.1-0.1,0.3-0.3,0.2-0.5l0,0c0-0.1,0-0.2,0-0.3
			c0-0.1-0.1-0.2-0.2-0.2l0,0c0.3-0.3,0.3-0.4,0.2-0.6c-0.1-0.1-0.1-0.2-0.2-0.2c-0.2,0-0.4,0-0.9,0.3c1.1-1.1,1.3-1.4,1.1-1.7
			c0-0.1-0.1-0.1-0.1-0.1c-0.1-0.1-0.3-0.1-0.4,0c-0.4,0.2-0.8,0.4-1.1,0.6c0.4-0.4,0.9-0.8,1.1-1c0.7-0.6,0.7-0.6,0.5-0.9
			c0,0,0,0,0,0c0.1-0.1,0.1-0.3,0-0.4c-0.1-0.1-0.1-0.2-0.2-0.2c-0.2-0.1-0.5,0-1.1,0.4c1.3-1.3,1.5-1.5,1.3-1.8
			c0-0.1-0.1-0.1-0.2-0.2c-0.2-0.1-0.2-0.1-1,0.4c-0.1,0-0.2,0.1-0.3,0.2c1.4-1.3,1.7-1.6,1.5-1.9c0,0,0-0.1-0.1-0.1
			c0.1-0.1,0.2-0.3,0.1-0.5c0,0,0,0,0,0c0.1-0.1,0.1-0.3,0-0.4c0-0.1-0.1-0.1-0.2-0.2c-0.2-0.1-0.2-0.1-1.5,0.7l0.4-0.4
			c1.3-1.3,1.4-1.4,1.3-1.7c0-0.1-0.1-0.1-0.2-0.2c0.2-0.2,0.2-0.3,0.2-0.5c0,0,0-0.1,0-0.1c-0.1-0.1-0.1-0.2-0.2-0.2
			c-0.2,0-0.4,0-0.6,0.1c1-0.9,1-0.9,0.9-1.1c0-0.1-0.1-0.1-0.2-0.2c-0.2,0-0.3,0-1.1,0.5l0.6-0.5c0.8-0.6,0.8-0.7,0.7-0.9
			c0-0.1-0.1-0.2-0.2-0.2c-0.2-0.1-0.4,0-1.4,0.6l-0.2,0.1l0.4-0.4c1.4-1.4,1.5-1.6,1.4-1.9c0-0.1-0.1-0.1-0.2-0.2
			c-0.1,0-0.1-0.1-0.6,0.2l0.5-0.4c0.2-0.1,0.4-0.3,0.2-0.5c0-0.1-0.1-0.2-0.2-0.2c-0.2-0.1-0.3,0-0.9,0.3c1.3-1.2,1.2-1.3,1.1-1.5
			c0,0,0,0,0-0.1c0.1-0.1,0.1-0.3,0-0.4c0-0.1-0.1-0.1-0.2-0.2c0.3-0.2,0.3-0.3,0.2-0.5C74,29,74,29,73.9,29c-0.1,0-0.2-0.1-0.8,0.3
			c1.1-1,1.2-1.2,1-1.4c0-0.1-0.1-0.1-0.2-0.2c-0.1,0-0.1,0-0.2,0c0.5-0.5,0.5-0.7,0.4-0.9c0-0.1-0.1-0.1-0.2-0.2
			c-0.1,0-0.2,0-0.9,0.3c0,0,0.1-0.1,0.2-0.1c1-0.8,1.1-0.9,1-1.1c0.6-0.3,1.2-0.7,2-1.2c0.6-0.3,1.1-0.5,1.7-0.7
			c3.7-1.7,5.1-2.3,5.3-2.8c0-0.1,0-0.2,0-0.3c-0.1-0.1-0.1-0.2-0.2-0.2c-0.1,0-0.3,0-0.4,0c0.1-0.1,0.2-0.4,0.1-0.5
			c-0.1-0.1-0.2-0.2-0.3-0.3c0,0,0,0-0.1,0c0-0.1,0-0.2,0-0.2c0-0.1-0.1-0.1-0.1-0.2c0,0,0,0,0-0.1c-0.1-0.1-0.2-0.2-0.3-0.2
			c-0.5-0.1-1.8,0.6-5.7,2.8c-1.2,0.6-2.2,1.1-2.9,1.5c1.7-1.1,4.2-2.6,5.6-3.4c2.6-1.5,2.6-1.5,2.4-1.9c0-0.1-0.1-0.1-0.2-0.2
			c0,0,0-0.1,0-0.1c0-0.1-0.1-0.1-0.2-0.2c-0.2-0.1-0.2-0.1-3,1.5c-0.1,0-0.2,0.1-0.3,0.2c3-1.9,2.9-2.1,2.7-2.4
			c-0.1-0.1-0.2-0.2-0.3-0.2c-0.2,0-0.4,0-0.5,0c0.3-0.3,0.3-0.4,0.2-0.6c-0.1-0.1-0.2-0.2-0.3-0.2c-0.6-0.2-2.3,0.8-5.6,2.8
			c-0.2,0.1-0.4,0.2-0.6,0.3c3-2.1,3.5-2.5,3.2-3c0-0.1-0.1-0.2-0.2-0.2c-0.1,0-0.1,0-1,0.4c-1.6,0.9-3,1.7-3.9,2.2l1.1-0.6
			c2.1-1.2,2.4-1.4,2.2-1.8c0-0.1-0.1-0.1-0.2-0.2c-0.2-0.1-0.2-0.1-1.4,0.7c-0.4,0.2-1,0.6-1.7,1c1.5-1.1,1.4-1.2,1.3-1.5
			c0-0.1-0.1-0.1-0.2-0.2c-0.2,0-0.2,0-1.1,0.5c-0.5,0.3-1.6,0.9-2.4,1.3c0.2-0.2,0.4-0.4,0.6-0.6c0.9-0.8,1-0.9,0.8-1.1
			c0-0.1-0.1-0.1-0.2-0.2c-0.1,0-0.2,0-0.4,0.1c0,0-0.1-0.1-0.1-0.1c0,0-0.1,0-0.1,0C68.9,15.7,68.6,15.9,67.5,16.5"/>
	</defs>
	<clipPath id="SVGID_32_">
		<use xlink:href="#SVGID_31_"  style="overflow:visible;"/>
	</clipPath>
	<g class="st20">
		
			<linearGradient id="SVGID_33_" gradientUnits="userSpaceOnUse" x1="137.8946" y1="-253.4715" x2="138.2403" y2="-253.4715" gradientTransform="matrix(1.447349e-14 236.37 236.37 -1.447349e-14 59987.2227 -32592.0469)">
			<stop  offset="0" style="stop-color:#BBBDBF"/>
			<stop  offset="0.13" style="stop-color:#C1C3C4"/>
			<stop  offset="0.3" style="stop-color:#D0D2D3"/>
			<stop  offset="0.37" style="stop-color:#C7C9CA"/>
			<stop  offset="0.47" style="stop-color:#AFB1B3"/>
			<stop  offset="0.58" style="stop-color:#929496"/>
			<stop  offset="0.81" style="stop-color:#CED0D1"/>
			<stop  offset="0.82" style="stop-color:#D0D2D3"/>
			<stop  offset="1" style="stop-color:#595A5C"/>
		</linearGradient>
		<rect x="65.2" y="15.5" class="st21" width="17.9" height="41"/>
	</g>
</g>
<g>
	<defs>
		<path id="SVGID_34_" d="M50.9,53.4c0.2-0.1,0.5-0.2,0.7-0.3l-1.1,0.6L50.9,53.4 M53.3,49.7l-2.3,1.2C51.7,50.5,52.5,50,53.3,49.7
			 M59.5,47.4c-0.1,0.1-0.2,0.1-0.3,0.2c-0.1,0.1-0.2,0.1-0.4,0.1L59.5,47.4 M55.9,45.7l0.7-0.4c1.3-0.6,2.4-1.2,3.2-1.6l-0.4,0.3
			c-0.7,0.3-1.5,0.8-2.7,1.5c-0.5,0.2-0.9,0.5-1.4,0.7L55.9,45.7 M39.3,16c-0.7,0.4-1.4,0.8-2.1,1.2c-0.1,0-0.2,0-0.3,0
			c-0.2,0.1-0.2,0.3-0.1,0.5c0.1,0.1,0.1,0.2,0.2,0.2c0.3,0.1,0.9-0.2,2.6-1.3c0.2-0.1,0.5-0.3,0.8-0.5c-0.6,0.7-0.8,1-0.6,1.2
			c0.1,0.1,0.1,0.2,0.3,0.2c0.1,0,0.2,0,0.2,0c0.1,0,0.3,0,1.1-0.4c-0.1,0.1-0.1,0.3,0,0.4c0,0.1,0.1,0.2,0.2,0.2
			c0.2,0.1,0.3,0,1.7-0.8l0.8-0.4c-0.1,0.2-0.2,0.3-0.3,0.5c-0.6,1-0.6,1-0.6,1.2c0,0.1,0.1,0.1,0.2,0.2c0,0,0.1,0,0.1,0
			c0.2,0.1,0.4,0,1.5-0.7c0.2-0.1,0.3-0.2,0.5-0.3c-1.1,1.2-1.1,1.4-1,1.6c0,0.1,0.1,0.1,0.2,0.2c0.1,0,0.1,0,0.4,0
			c-0.1,0.1-0.1,0.2,0,0.3c0,0.1,0.1,0.2,0.2,0.2c0.1,0,0.3,0,0.7-0.2c-0.4,0.3-0.4,0.4-0.3,0.6c0.1,0.1,0.1,0.2,0.2,0.2
			c0.3,0.1,0.6-0.1,1.7-0.7c-1,0.8-1.3,1.1-1.1,1.4c0,0.1,0.1,0.2,0.2,0.2c0.2,0,0.2,0,1.6-0.7c0.5-0.3,1.3-0.7,1.9-1
			c-0.3,0.3-0.6,0.5-0.9,0.8c-1.8,1.5-2.1,1.7-1.9,2.1c0,0,0,0.1,0.1,0.1c0,0.1,0,0.1,0.1,0.2c0.1,0.1,0.2,0.2,0.3,0.2
			c0.2,0.1,0.7,0,1.9-0.7c-1.4,1.1-1.6,1.5-1.4,1.8c0.1,0.1,0.2,0.2,0.3,0.2c0.3,0.1,0.9-0.1,2.4-1l-0.1,0.1c-2.3,1.7-2.3,1.7-2.1,2
			c0,0,0.1,0.1,0.1,0.1c0,0.1,0,0.2,0,0.3c0,0,0,0,0,0.1c0,0.1,0,0.1,0.1,0.2c0,0,0,0,0,0.1c0,0.1,0,0.1,0.1,0.2
			c0,0.1,0.1,0.2,0.2,0.2c0,0,0.1,0,0.1,0c-0.2,0.2-0.2,0.3-0.1,0.4c0.1,0.1,0.2,0.2,0.3,0.2c0.2,0,0.4,0,0.6-0.1
			c-0.8,0.5-0.8,0.5-0.6,0.8c0,0,0,0.1,0.1,0.1c0,0.1,0,0.2,0,0.3c0,0,0,0.1,0,0.1c0,0.1,0,0.1,0,0.2c0,0.1,0,0.1,0,0.2
			c0.1,0.1,0.2,0.2,0.3,0.2c0.4,0.1,1.1-0.2,2.5-1.1c0.4-0.2,0.8-0.4,1.3-0.7l-0.5,0.3c-3.5,2.3-3.6,2.3-3.4,2.7l0,0
			c0,0.1,0,0.2,0,0.3c0,0,0,0.1,0.1,0.1c-0.1,0.1-0.1,0.3,0,0.4l0,0c0,0.1,0,0.2,0,0.2c0.1,0.1,0.2,0.2,0.3,0.2
			c-0.2,0.2-0.3,0.5-0.1,0.7c0,0.1,0.1,0.1,0.2,0.2c0.2,0.1,0.2,0.1,3-1.5c1.2-0.7,3.2-1.8,4.5-2.5c-1.3,0.8-3.7,2.2-7.4,4.2
			c0,0-0.1,0-0.1,0.1l0,0c-0.2,0.1-0.3,0.3-0.2,0.5c0,0,0,0,0,0c0.1,0.1,0.1,0.2,0.4,0.1l0,0l0.2-0.1l0.4-0.2l0.1-0.1
			c-1.2,0.8-1.2,1-1.1,1.3c0,0.1,0.1,0.1,0.1,0.2c-0.2,0.1-0.2,0.2-0.1,0.4c0,0,0,0,0,0c0,0.1,0,0.3,0,0.4c0,0.1,0.1,0.1,0.2,0.2
			c0.2,0.1,0.2,0.1,2.2-1c1.3-0.7,3.7-2,5.5-2.9c-1,0.6-2.2,1.3-3.2,1.8c-4.4,2.5-4.9,2.9-4.6,3.4c0.1,0.1,0.2,0.2,0.3,0.3
			c0.2,0,0.5,0,0.7-0.1c-1.1,0.7-1.1,0.9-1,1.1c0,0.3,0,0.5,0,0.8c0.1,0.1,0.1,0.2,0.2,0.2c0.2,0,0.3,0,0.5,0
			c-0.9,0.6-0.8,0.8-0.7,1c0,0,0,0,0,0l0,0.1c0,0.1,0,0.2,0,0.3c0,0,0,0,0,0.1c0,0.1,0,0.1,0,0.2c0,0.1,0,0.3,0.1,0.4
			c-0.1,0-0.1,0.1-0.1,0.2c0,0.1,0,0.2,0,0.3c0,0,0,0,0,0.1c0,0.1,0,0.3,0,0.4c0,0.1,0.1,0.2,0.2,0.2c0.1,0,0.3,0,1.1-0.3
			c-1.4,1-1.7,1.4-1.5,1.8c0,0.1,0.1,0.1,0.2,0.2c0.2,0.1,0.2,0.1,3.1-1.6c1.6-0.9,4.2-2.5,6.1-3.4c-0.7,0.4-1.5,0.9-2.3,1.4
			c-7.3,4.4-7.6,4.7-7.3,5.2v0c0,0.1-0.1,0.1-0.1,0.2c-0.1,0.1,0,0.3,0,0.4c0.1,0.1,0.2,0.2,0.3,0.3c0,0,0,0,0,0
			c-0.7,0.4-0.7,0.5-0.6,0.8c0,0.1,0.1,0.1,0.2,0.2c0.2,0.1,0.2,0.1,3.6-1.8c-3.9,2.4-4.3,2.8-4.2,3.1c0,0.1,0,0.1,0,0.2
			c0,0,0,0,0,0.1c-0.1,0.1-0.2,0.2-0.2,0.3c0,0.1,0,0.2,0,0.3c0.1,0.1,0.2,0.2,0.3,0.2h0.1c-0.5,0.3-0.6,0.4-0.7,0.6
			c0,0.1,0,0.2,0,0.3c0.1,0.1,0.1,0.2,0.2,0.2c0.3,0.1,1.2-0.3,5.6-2.8c0.6-0.4,1.4-0.8,2-1.2l0.8-0.4c-1.8,1.1-3.9,2.4-5.5,3.4
			c-3.8,2.3-3.9,2.4-3.8,2.7c-0.2,0.2-0.4,0.4-0.5,0.6c0,0.1,0,0.2,0,0.3c-0.3,0.3-0.3,0.4-0.2,0.5c0,0.1,0.1,0.1,0.2,0.2
			c0.2,0.1,0.2,0.1,1.9-0.8c0.2-0.1,0.5-0.2,0.8-0.3l-0.8,0.5c-0.2,0.1-0.4,0.2-0.6,0.3C47,54,47,54,47,54.2c0,0,0,0,0,0
			c-0.2,0.1-0.3,0.3-0.4,0.5c0,0.1,0,0.1,0,0.2c-0.9,0.5-1.4,1-1.5,1.3c-0.1,0.1,0,0.3,0,0.4c0,0.1,0.1,0.2,0.2,0.2h0.1
			c0.5,0,2.2-0.8,11.1-5.6c1.5-0.8,2.8-1.5,3-1.6l-0.1-0.3l0-0.1c0.5-0.3,0.7-0.5,0.8-0.7c0,0,0,0,0-0.1c0.1-0.1,0.2-0.2,0.2-0.3
			c0.1-0.1,0-0.3,0-0.4c0,0,0-0.1,0-0.1c0.3-0.2,0.5-0.4,0.6-0.7c0-0.1,0-0.3,0-0.4c0.2-0.2,0.2-0.2,0.1-0.4c0-0.1-0.1-0.1-0.2-0.2
			c0.3-0.2,0.4-0.3,0.5-0.4c0-0.1,0-0.2,0-0.3c-0.1-0.1-0.2-0.2-0.3-0.3c-0.4,0-0.8,0-1.1,0.2c2.1-1.4,2.1-1.5,1.9-1.8
			c0-0.1-0.1-0.1-0.1-0.1c0.2-0.1,0.3-0.3,0.4-0.5c0-0.1,0-0.3,0-0.4l0,0c0.1-0.1,0.1-0.1,0.1-0.2c0-0.1,0-0.1,0-0.2
			c0-0.1,0-0.2,0-0.2c-0.1-0.1-0.2-0.2-0.3-0.2l0,0c-0.6-0.2-2.1,0.6-4.9,2.3c-0.4,0.2-0.8,0.4-1.3,0.7c1.8-1.1,3.6-2.2,4.7-2.8
			c2.2-1.3,2.2-1.3,2-1.6c0-0.1-0.1-0.2-0.2-0.2l0,0c0.4-0.3,0.4-0.6,0.3-0.8c0,0,0-0.1-0.1-0.1c0.1-0.1,0.1-0.1,0.1-0.2
			c0-0.1,0-0.2,0-0.3c0-0.1-0.1-0.1-0.2-0.2c-0.2-0.1-0.2-0.1-2.9,1.5l-0.4,0.3c-0.5,0.2-1.1,0.5-1.6,0.7c-1.1,0.5-2.1,1-2.9,1.4
			c1.2-0.7,2.5-1.5,3.5-2.1c4.7-2.8,4.7-2.8,4.5-3.2c-0.1-0.1-0.2-0.2-0.3-0.2c-0.5-0.1-1.7,0.4-3.8,1.5l0.7-0.4
			c3.5-1.9,3.5-1.9,3.3-2.3c0,0,0,0,0,0c0,0,0,0,0,0c0-0.1,0-0.2,0-0.3c0,0,0,0,0,0c0,0,0,0,0,0c0-0.1,0-0.3,0-0.4
			c0-0.1,0-0.1,0-0.2l0,0c0-0.1,0-0.2,0-0.3c0,0,0-0.1-0.1-0.1c0,0,0,0,0,0c0-0.1,0-0.2,0-0.3c-0.1-0.1-0.2-0.2-0.3-0.3
			c-0.2,0-0.4,0-0.6,0c0.8-0.5,0.8-0.6,0.7-0.8c-0.1-0.1-0.1-0.2-0.1-0.3c0,0,0,0,0-0.1c0-0.1,0-0.2,0-0.2c-0.1-0.1-0.2-0.2-0.3-0.2
			c-0.2-0.1-0.6,0-1.1,0.3c1.4-0.9,1.3-1,1.2-1.2c0-0.1-0.1-0.1-0.2-0.2c-0.2,0-0.2,0-1.8,0.9c-1.6,1-6,3.6-7.7,4.3
			c0.8-0.6,2.4-1.5,3.8-2.2c5-2.8,5.8-3.4,5.5-4.1c0,0-0.1-0.1-0.1-0.1c0-0.1,0-0.2,0-0.3c0-0.1-0.1-0.1-0.2-0.2
			c0.1-0.1,0.1-0.2,0-0.3c0-0.1-0.1-0.2-0.2-0.2c-0.2-0.1-0.2-0.1-2.9,1.5c-1.4,0.8-3.9,2.3-5.5,3.1c1.4-0.9,3.9-2.3,5.4-3.2
			c3-1.7,3-1.7,2.8-2.1c-0.1-0.2-0.1-0.3-0.7,0c0.5-0.4,0.4-0.6,0.3-0.8c-0.1-0.1-0.1-0.2-0.2-0.2c-0.1,0-0.3,0-0.4,0
			c0.3-0.2,0.3-0.4,0.2-0.6c0,0,0-0.1-0.1-0.1c0,0,0-0.1,0-0.1c0-0.1-0.1-0.1-0.2-0.2c0-0.1,0-0.2-0.1-0.2c0-0.1-0.1-0.1-0.1-0.1
			c0,0,0-0.1,0-0.1c-0.1-0.1-0.2-0.2-0.3-0.2c-0.3-0.1-1,0.1-2,0.7c1.5-1,1.6-1.3,1.4-1.6c0,0,0-0.1-0.1-0.1l0,0
			c0,0-0.1-0.1-0.1-0.1c0,0,0,0,0,0c0,0,0,0,0-0.1c0-0.1-0.1-0.1-0.2-0.2c0-0.1,0-0.1-0.1-0.2c0-0.1-0.1-0.1-0.2-0.2
			c-0.1,0-0.2-0.1-0.8,0.3c0.5-0.4,0.5-0.6,0.4-0.8c0-0.1-0.1-0.1-0.2-0.2c-0.1,0-0.1,0-0.2,0c0-0.1,0-0.2,0-0.3
			c0-0.1-0.1-0.1-0.2-0.2c0,0,0,0,0-0.1c0-0.1-0.1-0.1-0.2-0.2c0,0,0,0,0,0c-0.1-0.1-0.1-0.2-0.3-0.2l0,0c0,0,0-0.1,0-0.1
			c-0.1-0.1-0.1-0.2-0.3-0.2c-0.3-0.1-0.9,0.1-2.7,1.1c2.1-1.5,2-1.6,1.9-1.9c0-0.1-0.1-0.1-0.2-0.2c-0.2-0.1-0.2-0.1-1.9,0.9
			c-0.9,0.5-2.6,1.5-3.5,2c0.6-0.5,1.7-1.3,2.4-1.9c1.9-1.5,2.2-1.6,2-2c0-0.1-0.1-0.2-0.2-0.2c0,0,0,0-0.1,0c0,0,0,0,0,0
			c0-0.1-0.1-0.1-0.2-0.2c-0.2-0.1-0.3-0.1-3.2,1.5c1.8-1.5,2.2-1.8,2-2.2c0-0.1-0.1-0.2-0.2-0.2c-0.2-0.1-0.3,0-2,0.9
			c1-0.8,1.2-1,1-1.4c0-0.1-0.1-0.2-0.2-0.2c-0.2-0.1-0.3,0-0.9,0.3c0.3-0.3,0.3-0.4,0.2-0.5c-0.1-0.1-0.1-0.2-0.2-0.2
			c-0.2,0-0.3,0-0.5,0.1c0-0.2-0.1-0.4-0.3-0.4c-0.2-0.1-0.2-0.1-2.2,1c-0.2,0.1-0.5,0.3-0.7,0.4c0.3-0.3,0.6-0.7,1-1.1
			c0.3-0.3,0.4-0.4,0.3-0.7c-0.1-0.1-0.1-0.2-0.2-0.2c0,0-0.1,0-0.1,0c-0.1,0-0.2,0-0.3,0.1c-0.4,0.2-0.8,0.4-1.1,0.6
			c-0.4,0.2-0.8,0.3-1,0.5c0.8-1.2,0.8-1.3,0.7-1.4c0-0.1-0.1-0.2-0.2-0.2c-0.2,0-0.3,0-1,0.4c0.2-0.2,0.2-0.3,0.1-0.4
			c0-0.1-0.1-0.1-0.2-0.2c-0.1,0-0.1,0-0.2,0l-0.1,0c-0.1,0-0.2,0-0.5,0.2c-0.2,0.1-0.3,0.2-0.5,0.3l-0.6,0.3
			c-0.3,0.1-0.6,0.3-0.8,0.4c0.6-0.8,0.8-0.9,0.7-1.2c-0.1-0.1-0.1-0.2-0.2-0.2c0,0-0.1,0-0.1,0C41.3,14.9,40.8,15.2,39.3,16"/>
	</defs>
	<clipPath id="SVGID_35_">
		<use xlink:href="#SVGID_34_"  style="overflow:visible;"/>
	</clipPath>
	<g class="st22">
		
			<linearGradient id="SVGID_36_" gradientUnits="userSpaceOnUse" x1="137.8952" y1="-253.2749" x2="138.241" y2="-253.2749" gradientTransform="matrix(1.447226e-14 236.35 236.35 -1.447226e-14 59911.1875 -32589.5371)">
			<stop  offset="0" style="stop-color:#BBBDBF"/>
			<stop  offset="0.13" style="stop-color:#C1C3C4"/>
			<stop  offset="0.3" style="stop-color:#D0D2D3"/>
			<stop  offset="0.37" style="stop-color:#C7C9CA"/>
			<stop  offset="0.47" style="stop-color:#AFB1B3"/>
			<stop  offset="0.58" style="stop-color:#929496"/>
			<stop  offset="0.81" style="stop-color:#CED0D1"/>
			<stop  offset="0.82" style="stop-color:#D0D2D3"/>
			<stop  offset="1" style="stop-color:#595A5C"/>
		</linearGradient>
		<rect x="36.8" y="14.9" class="st23" width="25.8" height="41.9"/>
	</g>
</g>
<g>
	<defs>
		<path id="SVGID_37_" d="M55.8,53.1c-1.1,0.7-2.6,1.5-4.1,2.3C53.1,54.5,54.6,53.7,55.8,53.1 M24.8,50.9l-1,0.6
			C24.1,51.3,24.5,51.1,24.8,50.9 M23.1,39.7c1.4-0.7,2.4-1.2,3.2-1.6c-1.1,0.6-2.4,1.3-3.5,1.9c-0.6,0.3-1.1,0.6-1.6,0.8
			C21.8,40.5,22.4,40.1,23.1,39.7 M23.1,36.9l0.8-0.5c1.3-0.7,2.4-1.4,3.1-1.9c0.3-0.1,0.5-0.3,0.8-0.4c-0.8,0.8-3.8,2.4-6.1,3.6
			C22.2,37.4,22.6,37.2,23.1,36.9 M22.4,23.3c0.3-0.1,0.6-0.2,0.9-0.3c-0.7,0.4-1.3,0.7-1.8,1.1h0C21.8,23.7,22.1,23.4,22.4,23.3
			 M30.1,19.2c0.1,0,0.2-0.1,0.3-0.1l0.1-0.1c-0.4,0.2-0.8,0.5-1.3,0.7L28,20.5c-0.3,0.2-0.7,0.3-1,0.5
			C27.9,20.5,28.9,19.9,30.1,19.2 M33.5,19.2C33.4,19.2,33.4,19.2,33.5,19.2c0.1-0.1,0.4-0.2,0.6-0.3c-0.2,0.1-0.3,0.2-0.5,0.3
			C33.5,19.3,33.5,19.2,33.5,19.2 M37.5,15.1C37.5,15.1,37.5,15.1,37.5,15.1c-0.1-0.2-0.2-0.2-0.3-0.3c-0.2,0-0.5,0-0.7,0.1
			c-0.1-0.1-0.2-0.1-0.2-0.1c-0.2,0-0.5-0.1-1.6,0.3c-0.5,0-1.5,0.5-3.1,1.5c0-0.1,0-0.1-0.1-0.2c-0.1-0.1-0.1-0.2-0.3-0.2
			c-0.2-0.1-0.6-0.2-4.6,2.3l-0.1,0.1l0.2,0.3v0c-2.2,1.1-3.2,1.7-3.4,2.2c0,0,0,0.1,0,0.1c0,0,0,0.1,0,0.1
			c-0.5,0.3-0.7,0.5-0.8,0.7c0,0.1,0,0.2,0,0.2c-0.5,0.3-0.5,0.4-0.6,0.5c0,0,0,0.1,0,0.1c-0.6,0.4-1,0.8-1.1,1.2
			c-0.1,0.2-0.1,0.4,0,0.5l0,0c-0.6,0.5-1,0.9-1.2,1.2c0,0.1,0,0.2,0,0.2c-0.1,0.1-0.2,0.2-0.2,0.3c-0.1,0.1-0.1,0.3,0,0.5
			c0,0,0,0,0,0.1c-0.5,0.4-0.5,0.5-0.4,0.6l0,0c-0.1,0.1-0.3,0.2-0.3,0.3c0,0,0,0,0,0.1c-0.1,0.1-0.2,0.2-0.2,0.3
			c-0.1,0.1,0,0.3,0,0.5c0.1,0.1,0.2,0.2,0.3,0.2c0.5,0.1,1.7-0.5,6.2-3.1c1.1-0.6,2.3-1.4,3.4-2c0.8-0.4,1.5-0.7,2-0.9
			c-0.3,0.2-0.8,0.5-1.3,0.9l-0.7,0.4c-1.4,0.6-3.4,1.7-6.2,3.4c-0.8,0.4-1.7,0.8-2.6,1.3c-1.4,0.7-1.4,0.7-1.5,0.9
			c0,0.1,0,0.2,0,0.2c-0.2,0.2-0.2,0.2-0.2,0.3c-0.1,0.1-0.1,0.2-0.2,0.3c-0.1,0.1-0.1,0.3,0,0.4c0.1,0.1,0.2,0.2,0.3,0.2
			c0.3,0,0.6,0,0.8-0.2c-1.6,1-1.5,1.1-1.4,1.4c0,0.1,0.1,0.1,0.2,0.2c0.1,0,0.2,0,0.3,0c-0.6,0.5-0.9,0.9-0.8,1.2c0,0,0,0,0,0
			c0,0.1,0,0.2,0,0.3c0.1,0.1,0.2,0.2,0.3,0.3c0.3,0.1,0.8-0.1,1.6-0.5c-2.3,1.4-2.3,1.5-2.1,1.8c0,0,0,0,0,0.1c0,0-0.1,0.1-0.1,0.1
			c0,0.1,0,0.2,0,0.3c0,0,0,0,0,0.1c0,0-0.1,0.1-0.1,0.1c0,0.1,0,0.2,0,0.3c0,0.1,0.1,0.1,0.2,0.2c0.1,0,0.2,0,0.6-0.2
			c-0.9,0.6-1.1,1-0.9,1.3c0,0.1,0,0.2,0,0.3c-0.1,0.1-0.1,0.3,0,0.4c0.1,0.1,0.1,0.2,0.2,0.2c0.2,0.1,0.5,0,1.6-0.6
			c1.9-0.9,3.7-1.9,5.5-2.9c0.6-0.3,1.1-0.5,1.6-0.7c-0.6,0.3-1.2,0.7-2,1.2c-1.4,0.8-3.3,1.8-5.7,3c-1.1,0.6-1.1,0.6-1.2,0.7
			c0,0.1,0,0.2,0,0.3c0.1,0.1,0.2,0.2,0.3,0.3c0.1,0,0.2,0,0.3,0c-0.7,0.4-0.7,0.5-0.6,0.8c0,0.1,0.1,0.2,0.2,0.2
			c0.2,0.1,0.9-0.1,3.5-1.5c-3.7,2.4-3.7,2.5-3.5,2.8l0,0c0,0.1,0,0.2,0,0.2c0,0.1,0.1,0.1,0.2,0.2c0.1,0,0.2,0,0.6-0.2
			c0.5-0.2,1-0.4,1.5-0.6c-1.9,1.1-2.3,1.6-2.1,2.1c0.1,0.1,0.2,0.2,0.3,0.2c0.5,0.1,1.8-0.5,4.2-1.8l-1.8,1.1
			c-2.5,1.6-2.5,1.6-2.3,1.9c0.1,0.1,0.2,0.2,0.3,0.3c0.3,0,0.6,0,0.9-0.1c-1,0.6-1,0.8-0.9,1.1c0,0.1,0.1,0.2,0.2,0.2
			c0.1,0,0.3,0,0.6-0.1c-0.6,0.4-0.6,0.6-0.5,0.8c0.1,0.1,0.1,0.2,0.2,0.2c0.1,0,0.1,0,0.2,0c-0.1,0.1-0.1,0.1-0.2,0.2
			c0,0.1,0,0.2,0,0.3c0,0.1,0.1,0.2,0.2,0.2c0.2,0.1,0.5,0,2.7-1.3c0.9-0.5,1.8-0.9,2.5-1.3c-0.8,0.5-1.6,0.9-2.2,1.3
			c-3,1.8-3,1.8-2.8,2.1c0.1,0.1,0.1,0.2,0.2,0.2c0.1,0,0.1,0,0.2,0c-0.2,0.2-0.2,0.3-0.1,0.5c0.1,0.1,0.2,0.2,0.3,0.2
			c0.3,0.1,0.9-0.1,1.7-0.5c-1.2,0.8-1.3,1.1-1.2,1.4c0,0,0.1,0.1,0.1,0.1c0,0,0,0,0,0.1c0.1,0.1,0.2,0.2,0.3,0.2
			c0.2,0,0.5,0,0.7-0.1c-0.5,0.4-0.5,0.5-0.4,0.7c0,0.1,0.1,0.1,0.2,0.2c0.1,0,0.1,0,0.4-0.1c-0.2,0.1-0.2,0.4-0.1,0.6
			c0.1,0.1,0.2,0.2,0.3,0.2c0.4,0.1,1.3-0.3,3.3-1.5c-2.8,2-2.8,2-2.6,2.4c0,0.1,0.1,0.2,0.2,0.2c0.2,0,0.3,0,0.9-0.3
			c-0.4,0.4-0.5,0.6-0.4,0.9c0,0.1,0.1,0.1,0.2,0.2h0c0,0,0,0,0,0.1c0,0.1,0.1,0.1,0.2,0.2c0.2,0.1,0.2,0.1,1.6-0.7
			c-1.2,0.8-1.2,0.9-1,1.2c0.1,0.1,0.2,0.2,0.3,0.2h0c0,0,0,0,0,0.1c0.1,0.1,0.2,0.2,0.3,0.2c0.1,0.1,0.3,0.1,0.4,0
			c-0.1,0.1-0.1,0.3,0,0.4c0.1,0.1,0.1,0.2,0.3,0.2c0,0,0.1,0,0.1,0c0,0,0,0,0,0c0,0.1,0.1,0.1,0.1,0.1c0,0,0.1,0.1,0.1,0.1
			c0.3,0.1,0.8-0.2,2.6-1.3c0,0,0,0,0,0c-1.6,1.2-1.9,1.5-1.7,1.9c0,0.1,0.1,0.1,0.2,0.2c0.1,0,0.1,0,0.2,0c0,0,0,0.1,0,0.1
			c0,0.1,0.1,0.1,0.2,0.2c0.2,0.1,0.4,0,2.7-1.2c-1.6,1.5-1.6,1.5-1.5,1.7c0,0.1,0.1,0.1,0.2,0.2c0.2,0.1,0.4,0,1.8-0.9
			c0.3-0.2,0.8-0.5,1.2-0.7c-0.1,0.1-0.3,0.3-0.4,0.4c-1.2,1.2-1.4,1.4-1.2,1.7c0,0.1,0.1,0.2,0.2,0.2c0.2,0.1,0.4,0,1.5-0.6
			c-0.5,0.4-0.5,0.6-0.4,0.8c0.1,0.1,0.1,0.2,0.2,0.2c0.1,0,0.2,0,0.3,0c0,0.1,0.1,0.1,0.2,0.1c0.1,0,0.3,0,0.6-0.2
			c0,0.1,0,0.2,0,0.2c0,0.1,0.1,0.2,0.2,0.2c0.2,0.1,0.5-0.1,1.7-0.8c0.2-0.1,0.5-0.3,0.7-0.4c-0.1,0.1-0.1,0.2-0.2,0.2
			c-0.7,0.8-0.8,0.9-0.7,1.2c0.1,0.1,0.1,0.2,0.2,0.2c0.2,0.1,0.5-0.1,1.7-0.8c0.3-0.2,0.8-0.5,1.2-0.7c-0.5,1.4-0.5,1.5-0.4,1.6
			c0.1,0.1,0.1,0.2,0.2,0.2c0.3,0.1,0.7-0.1,2.4-1.2c0.5-0.3,1.2-0.8,1.8-1.1c-0.1,0.1-0.2,0.3-0.3,0.4c-1.1,1.4-1.1,1.4-1,1.7
			c0.1,0.1,0.2,0.2,0.3,0.2c0.1,0,0.1,0,0.2,0c0.4,0,1.3-0.3,2.8-1.1c-0.2,0.2-0.2,0.3-0.1,0.5c0,0.1,0.1,0.1,0.2,0.2
			c0.2,0.1,0.7-0.1,3.1-1.3c0,0.1,0,0.2,0.1,0.2c0,0.1,0.1,0.2,0.2,0.2c0.1,0,0.2,0,0.5-0.1c0.2,0,0.6-0.1,3.8-1.9
			c0.4-0.2,0.8-0.4,0.9-0.5l0-0.1c0.7-0.3,0.7-0.4,0.8-0.5c0-0.1,0-0.2,0-0.2c2.4-1.3,2.8-1.7,2.6-2.2c0-0.1-0.1-0.1-0.2-0.2
			c1.9-1.1,2.3-1.6,2.1-2.1c-0.1-0.1-0.1-0.2-0.2-0.2c-0.4-0.1-1.5,0.5-7.1,3.6c-3,1.7-7.2,4.1-8.9,4.8c0.2-0.2,0.3-0.5,0.5-0.7
			c1.1-1.4,1.1-1.4,0.9-1.6c-0.1-0.1-0.2-0.2-0.3-0.2c-0.4-0.1-1.1,0.3-3.1,1.5c-0.5,0.3-1,0.6-1.4,0.9c0.1-0.3,0.3-0.8,0.5-1.3
			c0,0,0-0.1,0-0.1c0-0.1,0-0.1,0-0.1c-0.1-0.1-0.1-0.2-0.2-0.2c-0.3-0.1-0.7,0.1-2.1,1c0.5-0.6,0.6-0.8,0.5-1.1
			c-0.1-0.1-0.1-0.2-0.2-0.2c-0.2,0-0.4,0-0.6,0.1c0-0.1,0-0.1,0-0.2c-0.1-0.1-0.1-0.2-0.2-0.2c0,0-0.1,0-0.2,0
			c0-0.1-0.1-0.1-0.2-0.2c-0.2-0.1-0.3,0-1.6,0.8c0,0-0.1,0-0.1,0.1c0.9-0.8,1-0.9,0.9-1.2c0-0.1-0.1-0.1-0.2-0.2
			c-0.2,0-0.2,0-1.2,0.5l-1.3,0.7l0.1-0.1c1.3-1.3,1.5-1.6,1.4-1.9c-0.1-0.1-0.1-0.2-0.2-0.2c-0.3-0.1-0.6,0.1-2,0.9
			c1.5-1.3,1.5-1.3,1.3-1.6c0-0.1-0.1-0.1-0.2-0.2c0,0,0,0-0.1,0c0-0.1,0-0.1,0-0.1c0-0.1-0.1-0.1-0.2-0.2c-0.1,0-0.1,0-0.7,0.3
			l-2.3,1.2c0.3-0.2,0.5-0.4,0.7-0.6c1.7-1.2,1.9-1.4,1.7-1.8c0,0,0-0.1-0.1-0.1c0,0-0.1-0.1-0.1-0.1c0-0.1,0-0.1-0.1-0.2
			c-0.1-0.1-0.2-0.2-0.3-0.2c-0.1,0-0.1,0-0.2,0c0.2-0.2,0.2-0.3,0.1-0.5c0-0.1-0.1-0.1-0.1-0.1c0-0.1,0-0.1,0-0.2
			c0-0.1-0.1-0.1-0.2-0.2c-0.2-0.1-0.2-0.1-1.5,0.7c-0.3,0.2-0.6,0.3-1,0.6c2.5-1.6,2.5-1.6,2.3-1.9c0,0,0-0.1-0.1-0.1
			c0-0.1,0-0.2-0.1-0.3c-0.2-0.3-0.3-0.2-0.8,0.1l-2.8,1.5c0.5-0.3,0.9-0.5,1.2-0.8c2.2-1.3,2.2-1.4,2.1-1.7
			c-0.1-0.1-0.2-0.2-0.3-0.2c-0.4-0.1-1.1,0.2-2.8,1.2c2.8-2.1,2.8-2.1,2.7-2.4c0-0.1-0.1-0.2-0.2-0.2c-0.1,0-0.2,0-0.2,0
			c0.3-0.3,0.3-0.4,0.2-0.6c-0.1-0.1-0.2-0.2-0.3-0.2c-0.2,0-0.4,0-1,0.2c1.2-0.7,1.1-0.8,1-1c0,0,0,0,0,0c0-0.1,0-0.1,0-0.2
			c0-0.1-0.1-0.1-0.2-0.2c-0.1,0-0.2-0.1-1.9,0.8c-0.1,0-0.2,0.1-0.3,0.1l-1.9,0.9c0.2-0.1,0.3-0.2,0.5-0.3c3.6-2.3,3.8-2.5,3.6-2.9
			c0-0.1-0.1-0.1-0.2-0.2c0,0-0.1,0-0.1,0c0.3-0.3,0.3-0.5,0.2-0.7c-0.1-0.1-0.2-0.2-0.3-0.2c-0.2,0-0.4,0-0.6,0.1
			c0.8-0.6,0.8-0.8,0.7-1c0-0.1-0.1-0.1-0.2-0.2c0.1-0.1,0.1-0.1,0.1-0.2c0.1-0.1,0-0.3,0-0.4c-0.1-0.1-0.1-0.2-0.2-0.2
			c0,0-0.1,0-0.1,0c0.3-0.3,0.4-0.5,0.3-0.8c0-0.1-0.1-0.1-0.2-0.2c-0.2-0.1-0.2-0.1-3.5,1.7c3.6-2.1,3.9-2.5,3.7-2.9
			c0-0.1-0.1-0.1-0.2-0.2c-0.2-0.1-0.2-0.1-2.1,1.1c-1.3,0.8-4.2,2.5-6.1,3.5c0.1-0.1,0.3-0.2,0.4-0.3c8.3-5.3,8.2-5.4,8-5.8
			c0-0.1-0.1-0.2-0.2-0.2c-0.2-0.1-0.2-0.1-2.9,1.5c-1.9,1.1-5.6,3.2-7,3.8c0.8-0.7,3-1.8,4.7-2.7c4.6-2.4,5.8-3.2,5.5-3.9
			c0,0,0,0,0-0.1c0-0.1,0-0.2,0-0.3c-0.1-0.1-0.1-0.2-0.3-0.2c-0.3-0.1-0.7,0.1-1.6,0.6c-1.2,0.5-2.3,1.1-3.4,1.8
			c1.1-0.7,2.1-1.4,2.9-1.9c2.6-1.6,2.6-1.6,2.4-1.9c0-0.1-0.1-0.1-0.2-0.2h0c0.4-0.4,0.5-0.7,0.3-0.9c0-0.1-0.1-0.2-0.2-0.2
			c0.1-0.1,0.3-0.3,0.3-0.5c0-0.1,0-0.2,0-0.3c0,0,0,0,0,0c0.1-0.1,0.1-0.3,0-0.4c0,0,0,0,0-0.1c0-0.1,0-0.2,0-0.3
			c-0.1-0.1-0.2-0.2-0.3-0.3c-0.1,0-0.2,0-0.4,0c1.1-0.6,1.1-0.8,0.9-1.1c0,0,0-0.1-0.1-0.1c0.2-0.2,0.2-0.2,0.2-0.4
			c0,0,0.1-0.1,0.1-0.1c0-0.1,0-0.3,0-0.4c0-0.1-0.1-0.1-0.2-0.2c-0.3-0.1-0.6,0.1-4.2,2.2c-1.4,0.8-3.5,2-5,2.8
			c1-0.6,2.2-1.4,3.3-2c6.1-3.6,6.7-4,6.6-4.4c0,0,0,0,0,0c0-0.1,0-0.2,0-0.3c-0.1-0.1-0.1-0.2-0.2-0.2c-0.2,0-0.4,0-0.6,0.1
			c-0.8,0.1-2.3,1-4.7,2.5c-2.1,1-3.5,1.8-4.6,2.4c2-1.3,5.2-3,7.1-3.9c3.6-1.9,3.6-1.9,3.4-2.3c0-0.1-0.1-0.2-0.2-0.2
			c-0.2-0.1-0.6,0.1-2.7,1.2c3.2-1.9,3.6-2.1,3.5-2.4c0.1-0.1,0.1-0.2,0.2-0.3c0.1-0.1,0.1-0.3,0-0.4c0.3-0.3,0.3-0.3,0.2-0.5
			c0,0,0-0.1-0.1-0.1c0.3-0.2,0.6-0.5,0.8-0.9c0-0.1,0-0.2,0-0.3c0.2-0.1,0.3-0.3,0.4-0.5c0,0,0,0,0-0.1l0,0c0-0.1,0-0.2,0-0.3
			c0,0,0,0,0-0.1c0.6-0.4,0.6-0.5,0.6-0.6c1.3-0.6,1.9-1.1,2.1-1.5c0.1-0.1,0.1-0.3,0-0.5c-0.1-0.1-0.2-0.2-0.3-0.2
			c-0.2,0-0.3,0-0.5,0c4.2-2,5.3-2.6,5.5-3c0-0.1,0-0.2,0-0.3c-0.1-0.1-0.2-0.2-0.3-0.2c-0.1,0-0.1,0-0.2,0
			C38.4,14.8,37.9,14.9,37.5,15.1"/>
	</defs>
	<clipPath id="SVGID_38_">
		<use xlink:href="#SVGID_37_"  style="overflow:visible;"/>
	</clipPath>
	<g class="st24">
		
			<linearGradient id="SVGID_39_" gradientUnits="userSpaceOnUse" x1="137.8955" y1="-253.1768" x2="138.2412" y2="-253.1768" gradientTransform="matrix(1.448267e-14 236.52 236.52 -1.448267e-14 59918.7813 -32613.0449)">
			<stop  offset="0" style="stop-color:#BBBDBF"/>
			<stop  offset="0.13" style="stop-color:#C1C3C4"/>
			<stop  offset="0.3" style="stop-color:#D0D2D3"/>
			<stop  offset="0.37" style="stop-color:#C7C9CA"/>
			<stop  offset="0.47" style="stop-color:#AFB1B3"/>
			<stop  offset="0.58" style="stop-color:#929496"/>
			<stop  offset="0.81" style="stop-color:#CED0D1"/>
			<stop  offset="0.82" style="stop-color:#D0D2D3"/>
			<stop  offset="1" style="stop-color:#595A5C"/>
		</linearGradient>
		<rect x="16.6" y="14.7" class="st25" width="41.5" height="46"/>
	</g>
</g>
<g>
	<path class="st26" d="M39.6,61c-6.5,0-12.4-2.3-16.6-6.5s-6.6-10.2-6.6-16.8c0-13.5,9.7-23.3,23.1-23.3s23.1,9.8,23.1,23.3
		c0,6.6-2.3,12.6-6.6,16.8S46.1,61,39.6,61 M39.6,15.6c-12.7,0-22,9.3-22,22.1c0,13,9,22.1,22,22.1s22-9.1,22-22.1
		C61.6,24.9,52.3,15.6,39.6,15.6 M104.1,61h-1.8c-0.2,0-0.3-0.1-0.5-0.2L74.4,27.2v24.1c0,4.2,1,5.3,5.5,5.7c0.3,0,0.5,0.3,0.5,0.6
		v1.6c0,0.3-0.3,0.6-0.6,0.6H65.4c-0.3,0-0.6-0.3-0.6-0.6c0,0,0,0,0,0v-1.6c0-0.3,0.2-0.5,0.5-0.6c3.8-0.4,5.1-0.8,5.1-4.5V22.4
		c-3.4-4.2-4.3-4.2-4.8-4.2c-0.3,0-0.6-0.3-0.6-0.6c0,0,0,0,0,0V16c0-0.3,0.3-0.6,0.6-0.6c0,0,0,0,0,0H79c0.2,0,0.3,0.1,0.5,0.2
		l21.2,26.2V23.9c0-3.8-0.7-5.4-5.4-5.8c-0.3,0-0.5-0.3-0.5-0.6V16c0-0.3,0.3-0.6,0.6-0.6c0,0,0,0,0,0H109c0.3,0,0.6,0.3,0.6,0.6
		c0,0,0,0,0,0v1.6c0,0.3-0.2,0.5-0.5,0.6c-4.3,0.5-4.5,1.8-4.5,4.5v37.6C104.6,60.7,104.4,61,104.1,61C104,61,104,61,104.1,61
		 M102.5,59.8h0.9V22.7c0-3.4,0.7-5,5-5.6v-0.5H95.9v0.5c5,0.5,5.9,2.8,5.9,6.9v19.4c0,0.3-0.3,0.6-0.6,0.6c0,0,0,0,0,0h-0.1
		c-0.2,0-0.3-0.1-0.4-0.2L78.7,16.6H66.2v0.5c1,0.2,2.3,1.1,5.3,4.8c0.1,0.1,0.1,0.2,0.1,0.3v30.3c0,4.5-2.1,5.2-5.6,5.6v0.5h13.3
		v-0.5c-4.7-0.6-6.1-2.2-6.1-6.8V25.7c0-0.3,0.3-0.6,0.6-0.6c0,0,0,0,0,0h0.1c0.2,0,0.3,0.1,0.5,0.2L102.5,59.8z M148.6,59.8h-37.3
		c-0.3,0-0.6-0.3-0.6-0.6v-1.6c0-0.3,0.2-0.5,0.5-0.6h0c3.6-0.4,5-0.5,5-4V22.1c0-3.6-2.1-3.8-5-4h-0.1c-0.3,0-0.5-0.3-0.5-0.6V16
		c0-0.3,0.3-0.6,0.6-0.6c0,0,0,0,0,0h36.8c0.3,0,0.6,0.3,0.6,0.6c0,0,0,0,0,0v12.8c0,0.3-0.3,0.6-0.6,0.6c0,0,0,0,0,0h-1.6
		c-0.3,0-0.5-0.2-0.6-0.5c-1.4-8.6-5.6-10.2-14-10.2c-3.6,0-4.1,0.3-4.1,2.4v14.2c5.4,0,8.3-1.5,9.2-9c0-0.3,0.3-0.5,0.6-0.5h1.7
		c0.3,0,0.6,0.3,0.6,0.6c0,0,0,0,0,0v21.6c0,0.3-0.3,0.6-0.6,0.6h-1.7c-0.3,0-0.5-0.2-0.6-0.5c-0.7-7.6-3.8-9.3-9.2-9.4v14.9
		c0,2.3,0.7,3,4.8,3c5.8,0,12.2-1.3,16.2-11c0.1-0.2,0.3-0.3,0.5-0.3h1.8c0.2,0,0.3,0.1,0.5,0.2c0.1,0.1,0.2,0.3,0.1,0.5l-2.5,13.3
		C149.2,59.6,148.9,59.8,148.6,59.8 M112,58.6h36.2l2.3-12.1h-0.7c-4.3,10-11.4,11.3-17.1,11.3c-3.9,0-5.9-0.6-5.9-4.1V38.2
		c0-0.3,0.3-0.6,0.6-0.6c6,0,9.9,1.7,10.9,9.9h0.5V27.1h-0.6c-1.1,8-4.7,9.5-10.5,9.5h-0.3c-0.3,0-0.6-0.3-0.6-0.6v0V21.2
		c0-3.4,1.9-3.6,5.2-3.6c8.7,0,13.5,1.7,15.1,10.7h0.5V16.6h-35.6v0.5c2.7,0.2,5.6,0.6,5.6,5.1v30.9c0,4.3-2.3,4.7-5.6,5.1L112,58.6
		z M39.6,58.9c-4.9,0-8.4-2.9-10.3-8.6c-1.4-4.3-1.6-9.2-1.6-12.5c0-6.4,1.2-21.2,11.9-21.2s11.9,14.8,11.9,21.2
		c0,3.3-0.2,8.2-1.6,12.5C48,56,44.5,58.9,39.6,58.9 M39.6,17.8c-9.7,0-10.7,14-10.7,20c0,13.3,3.6,20,10.7,20s10.7-6.7,10.7-20
		C50.3,31.7,49.3,17.8,39.6,17.8"/>
	<path class="st26" d="M153.3,14.1V9.3h-1.8V8.6h4.3v0.6H154v4.8H153.3z M156.5,14.1V8.6h1.1l1.3,3.9c0.1,0.3,0.2,0.6,0.3,0.8
		c0.1-0.2,0.2-0.5,0.3-0.9l1.3-3.8h1v5.4h-0.7V9.5l-1.6,4.5h-0.6l-1.6-4.6v4.6H156.5z"/>
	<polygon class="st26" points="113.5,74.7 53.2,0.6 53.6,0.3 113.9,74.3 	"/>
	<polygon class="st26" points="106.4,50.5 70.4,6 70.8,5.6 106.9,50.1 	"/>
	<rect x="101" y="1.9" class="st26" width="0.6" height="46.5"/>
	<rect x="103.8" y="7.2" class="st26" width="0.6" height="62.1"/>
	<rect x="102.2" y="59" class="st26" width="55.5" height="0.6"/>
	<rect x="98.8" y="60.1" class="st26" width="9" height="0.6"/>
	<rect x="111.1" y="55.4" class="st26" width="0.6" height="6.4"/>
	<rect x="61.6" y="59" class="st26" width="25.9" height="0.6"/>
	<rect x="65.1" y="54.6" class="st26" width="0.6" height="6.7"/>
	<rect x="79.5" y="55.2" class="st26" width="0.6" height="6.7"/>
	<rect x="65.3" y="12.6" class="st26" width="0.6" height="10"/>
	<rect x="56.5" y="15.7" class="st26" width="27.8" height="0.6"/>
	<rect x="89.1" y="15.7" class="st26" width="73.2" height="0.6"/>
	<rect x="73.3" y="21.8" class="st26" width="0.6" height="42.9"/>
	<rect x="70.7" y="18.4" class="st26" width="0.6" height="38.9"/>
	<rect x="116.7" y="11" class="st26" width="0.6" height="56.3"/>
	<rect x="127" y="5" class="st26" width="0.6" height="58.1"/>
	<rect x="138.9" y="22.1" class="st26" width="0.6" height="29.9"/>
	<rect x="147.8" y="13.6" class="st26" width="0.6" height="18.2"/>
	<rect x="143.9" y="28.6" class="st26" width="8.4" height="0.6"/>
	<rect x="135" y="26.3" class="st26" width="7" height="0.6"/>
	<rect x="145.7" y="45.6" class="st26" width="9" height="0.6"/>
	<rect x="135.3" y="47.8" class="st26" width="9" height="0.6"/>
	<rect x="95.1" y="13.4" class="st26" width="0.6" height="6.7"/>
	<rect x="108.7" y="12.2" class="st26" width="0.6" height="6.5"/>
	<rect x="111.1" y="13.4" class="st26" width="0.6" height="6.7"/>
	<polygon class="st26" points="148.1,63.4 147.5,63.2 152.2,39.7 152.8,39.8 	"/>
	<path class="st26" d="M39.7,32.8c-4.4,0-8-3.6-8-8s3.6-8,8-8s8,3.6,8,8S44.1,32.8,39.7,32.8L39.7,32.8 M39.7,17.5
		c-4.1,0-7.3,3.3-7.3,7.3c0,4.1,3.3,7.3,7.3,7.3c4.1,0,7.3-3.3,7.3-7.3c0,0,0,0,0,0C47,20.8,43.7,17.5,39.7,17.5"/>
	<path class="st26" d="M129.1,36.3c-4.8,0-8.7-3.9-8.7-8.7c0-4.8,3.9-8.7,8.7-8.7c4.8,0,8.7,3.9,8.7,8.7c0,0,0,0,0,0
		C137.8,32.4,133.9,36.3,129.1,36.3 M129.1,19.5c-4.5,0-8.1,3.6-8.1,8.1c0,4.5,3.6,8.1,8.1,8.1c4.5,0,8.1-3.6,8.1-8.1
		C137.2,23.2,133.6,19.5,129.1,19.5C129.1,19.5,129.1,19.5,129.1,19.5"/>
	<path class="st26" d="M129.1,55.3c-4.8,0-8.7-3.9-8.7-8.7c0-4.8,3.9-8.7,8.7-8.7c4.8,0,8.7,3.9,8.7,8.7
		C137.8,51.4,133.9,55.3,129.1,55.3 M129.1,38.5c-4.5,0-8.1,3.6-8.1,8.1c0,4.5,3.6,8.1,8.1,8.1c4.5,0,8.1-3.6,8.1-8.1
		C137.2,42.1,133.6,38.5,129.1,38.5"/>
	<path class="st26" d="M135.3,40.8c-6.4,0-11.5-5.2-11.5-11.6c0-6.4,5.2-11.5,11.6-11.5c6.4,0,11.5,5.2,11.5,11.6
		C146.8,35.7,141.7,40.8,135.3,40.8 M135.3,18.3c-6,0-10.9,4.9-10.9,10.9c0,6,4.9,10.9,10.9,10.9c6,0,10.9-4.9,10.9-10.9
		C146.2,23.2,141.3,18.3,135.3,18.3"/>
	<path class="st26" d="M39.7,58.4c-4.4,0-8-3.6-8-8c0-4.4,3.6-8,8-8s8,3.6,8,8c0,0,0,0,0,0C47.6,54.9,44.1,58.4,39.7,58.4
		 M39.7,43.1c-4.1,0-7.3,3.3-7.3,7.3s3.3,7.3,7.3,7.3c4.1,0,7.3-3.3,7.3-7.3c0,0,0,0,0,0C47,46.4,43.7,43.1,39.7,43.1"/>
	<path class="st26" d="M39.7,47.9c-6.3,0-11.3-5.1-11.3-11.4c0-6.3,5.1-11.3,11.4-11.3s11.3,5.1,11.3,11.4
		C51,42.8,46,47.9,39.7,47.9 M39.7,25.8c-5.9,0-10.8,4.8-10.8,10.7c0,5.9,4.8,10.8,10.7,10.8c5.9,0,10.8-4.8,10.8-10.7
		C50.4,30.6,45.6,25.8,39.7,25.8"/>
	<path class="st26" d="M25.7,59.3c-14,0-25.4-11.4-25.3-25.4c0-14,11.4-25.4,25.4-25.3c14,0,25.3,11.4,25.3,25.4
		C51,48,39.7,59.3,25.7,59.3 M25.7,9.2C12,9.2,0.9,20.3,0.9,34C1,47.6,12,58.7,25.7,58.7c13.7,0,24.7-11.1,24.7-24.7
		C50.4,20.3,39.4,9.2,25.7,9.2"/>
	<path class="st26" d="M53.6,67.5c-14,0-25.4-11.4-25.4-25.4s11.4-25.4,25.4-25.4c14,0,25.4,11.4,25.4,25.4c0,0,0,0,0,0
		C78.9,56.2,67.6,67.5,53.6,67.5 M53.6,17.4c-13.7,0-24.7,11.1-24.7,24.8S40,66.9,53.6,66.9c13.7,0,24.7-11.1,24.7-24.7
		C78.4,28.5,67.3,17.4,53.6,17.4"/>
	<path class="st26" d="M66.8,57.6c-2.5,0-4.5-2-4.5-4.5c0-2.5,2-4.5,4.5-4.5c2.5,0,4.5,2,4.5,4.5C71.3,55.6,69.3,57.6,66.8,57.6
		 M66.8,49.3c-2.1,0-3.9,1.7-3.9,3.9c0,2.1,1.7,3.9,3.9,3.9c2.1,0,3.9-1.7,3.9-3.9C70.7,51,68.9,49.3,66.8,49.3"/>
	<path class="st26" d="M78.1,57.6c-2.5,0-4.5-2-4.5-4.5c0-2.5,2-4.5,4.5-4.5c2.5,0,4.5,2,4.5,4.5C82.6,55.6,80.6,57.6,78.1,57.6
		 M78.1,49.3c-2.1,0-3.9,1.7-3.9,3.9c0,2.1,1.7,3.9,3.9,3.9c2.1,0,3.9-1.7,3.9-3.9c0,0,0,0,0,0C82,51,80.2,49.3,78.1,49.3"/>
	<path class="st26" d="M112.9,57.6c-2.5,0-4.5-2-4.5-4.5c0-2.5,2-4.5,4.5-4.5c2.5,0,4.5,2,4.5,4.5C117.4,55.6,115.3,57.6,112.9,57.6
		 M112.9,49.3c-2.1,0-3.9,1.7-3.9,3.9c0,2.1,1.7,3.9,3.9,3.9c2.1,0,3.9-1.7,3.9-3.9c0,0,0,0,0,0C116.7,51,115,49.3,112.9,49.3"/>
	<path class="st26" d="M129.7,23.6c-1.5,0-2.7-1.2-2.7-2.7c0-1.5,1.2-2.7,2.7-2.7c1.5,0,2.7,1.2,2.7,2.7
		C132.4,22.3,131.2,23.6,129.7,23.6 M129.7,18.7c-1.2,0-2.1,1-2.1,2.1c0,1.2,1,2.1,2.1,2.1c1.2,0,2.1-1,2.1-2.1c0,0,0,0,0,0
		C131.8,19.7,130.9,18.7,129.7,18.7"/>
	<path class="st26" d="M134.2,57.7c-9,0-16.2-7.3-16.2-16.3s7.3-16.2,16.3-16.2c9,0,16.2,7.3,16.2,16.2
		C150.4,50.4,143.1,57.7,134.2,57.7 M134.2,25.8c-8.7,0-15.7,7-15.7,15.7s7,15.7,15.7,15.7s15.7-7,15.7-15.7l0,0
		C149.8,32.8,142.8,25.8,134.2,25.8"/>
	<path class="st26" d="M112.9,26.3c-2.5,0-4.5-2-4.5-4.5c0-2.5,2-4.5,4.5-4.5c2.5,0,4.5,2,4.5,4.5C117.4,24.3,115.3,26.3,112.9,26.3
		L112.9,26.3 M112.9,18c-2.1,0-3.9,1.7-3.9,3.9c0,2.1,1.7,3.9,3.9,3.9c2.1,0,3.9-1.7,3.9-3.9c0,0,0,0,0,0
		C116.7,19.7,115,18,112.9,18"/>
	<path class="st26" d="M108.2,26.3c-2.5,0-4.5-2-4.5-4.5s2-4.5,4.5-4.5c2.5,0,4.5,2,4.5,4.5c0,0,0,0,0,0
		C112.6,24.3,110.6,26.3,108.2,26.3 M108.2,18c-2.1,0-3.9,1.7-3.9,3.9s1.7,3.9,3.9,3.9s3.9-1.7,3.9-3.9c0,0,0,0,0,0
		C112,19.7,110.3,18,108.2,18"/>
	<path class="st26" d="M96.8,26.3c-2.5,0-4.5-2-4.5-4.5c0-2.5,2-4.5,4.5-4.5c2.5,0,4.5,2,4.5,4.5c0,0,0,0,0,0
		C101.3,24.3,99.3,26.3,96.8,26.3 M96.8,18c-2.1,0-3.9,1.7-3.9,3.9c0,2.1,1.7,3.9,3.9,3.9c2.1,0,3.9-1.7,3.9-3.9c0,0,0,0,0,0
		C100.7,19.7,99,18,96.8,18"/>
	<path class="st26" d="M64.9,27.8c-2.9,0-5.2-2.3-5.2-5.2c0-2.9,2.3-5.2,5.2-5.2s5.2,2.3,5.2,5.2l0,0C70.1,25.5,67.8,27.8,64.9,27.8
		 M64.9,18c-2.6,0-4.6,2.1-4.6,4.6c0,2.6,2.1,4.6,4.6,4.6c2.6,0,4.6-2.1,4.6-4.6c0,0,0,0,0,0C69.5,20.1,67.4,18,64.9,18"/>
</g>
<g>
	<path class="st27" d="M176.6,23.8c-0.4,0.4-0.9,0.7-1.4,1c-0.3,0.1-0.6,0.2-0.9,0.2c-0.5,0-0.9-0.2-1.2-0.5
		c-0.3-0.4-0.5-0.8-0.5-1.3c0-0.3,0.1-0.6,0.2-0.9c0.3-0.4,0.7-0.8,1.1-1c0.9-0.5,1.7-0.8,2.6-1.2v-0.3c0-0.7-0.1-1.2-0.3-1.5
		c-0.3-0.3-0.6-0.4-1-0.4c-0.3,0-0.6,0.1-0.8,0.3c-0.2,0.1-0.3,0.4-0.3,0.6v0.5c0,0.2-0.1,0.4-0.2,0.6c-0.1,0.1-0.3,0.2-0.5,0.2
		c-0.2,0-0.4-0.1-0.5-0.2c-0.1-0.2-0.2-0.4-0.2-0.6c0-0.5,0.3-1,0.7-1.2c0.6-0.4,1.3-0.6,1.9-0.6c0.5,0,1.1,0.1,1.6,0.3
		c0.3,0.2,0.6,0.4,0.7,0.8c0.1,0.5,0.2,0.9,0.1,1.4v2.4c0,0.4,0,0.8,0,1.3c0,0.1,0.1,0.2,0.1,0.3c0.1,0.1,0.3,0.1,0.4,0
		c0.2-0.2,0.4-0.4,0.6-0.6v0.4c-0.6,0.8-1.1,1.2-1.7,1.2c-0.2,0-0.5-0.1-0.6-0.3C176.6,24.4,176.5,24.1,176.6,23.8 M176.6,23.3v-2.7
		c-0.5,0.2-1,0.4-1.5,0.7c-0.3,0.2-0.7,0.4-0.9,0.7c-0.2,0.2-0.3,0.5-0.3,0.8c0,0.3,0.1,0.7,0.3,0.9c0.2,0.2,0.5,0.4,0.8,0.4
		C175.4,24.1,175.9,23.8,176.6,23.3 M184.7,24c-0.3,0.3-0.6,0.6-1,0.8c-0.3,0.2-0.7,0.2-1.1,0.2c-0.8,0-1.6-0.4-2.1-1
		c-0.6-0.7-0.9-1.6-0.9-2.5c0-1,0.3-2,1-2.8c0.6-0.8,1.5-1.3,2.5-1.3c0.6,0,1.2,0.2,1.6,0.6v-1.3c0-0.5,0-1-0.1-1.5
		c0-0.1-0.1-0.3-0.2-0.4c-0.1-0.1-0.2-0.1-0.3-0.1c-0.2,0-0.4,0-0.5,0.1l-0.1-0.3l2.2-0.9h0.3V22c0,0.5,0,1,0.1,1.5
		c0,0.1,0.1,0.3,0.2,0.4c0.1,0.1,0.2,0.1,0.3,0.1c0.2,0,0.4-0.1,0.6-0.1l0.1,0.3l-2.1,0.9h-0.3V24z M184.7,23.5v-3.7
		c0-0.3-0.1-0.7-0.3-1c-0.1-0.3-0.4-0.5-0.6-0.7c-0.2-0.1-0.5-0.2-0.8-0.2c-0.5,0-0.9,0.2-1.2,0.6c-0.5,0.6-0.7,1.3-0.7,2.4
		c0,1,0.2,1.9,0.7,2.4c0.4,0.5,0.9,0.8,1.5,0.8C183.9,24.2,184.4,23.9,184.7,23.5 M187.3,17.6h3.4v0.3h-0.2c-0.2,0-0.3,0-0.5,0.2
		c-0.1,0.1-0.2,0.2-0.2,0.4c0,0.2,0.1,0.4,0.2,0.6l1.7,4l1.7-4.1c0.1-0.2,0.2-0.4,0.2-0.7c0-0.1,0-0.1-0.1-0.2
		c-0.1-0.1-0.1-0.1-0.2-0.2c-0.2,0-0.4,0-0.5,0v-0.3h2.3v0.3c-0.2,0-0.4,0.1-0.6,0.2c-0.2,0.2-0.4,0.5-0.5,0.8l-2.6,6.2h-0.3
		l-2.6-6.1c-0.1-0.2-0.2-0.4-0.3-0.6c-0.1-0.1-0.2-0.2-0.4-0.3c-0.2-0.1-0.3-0.1-0.5-0.1L187.3,17.6z M197,20.4
		c0,1.1,0.2,1.9,0.8,2.5c0.4,0.6,1.1,0.9,1.8,0.9c0.4,0,0.9-0.1,1.2-0.4c0.4-0.3,0.7-0.8,0.9-1.3l0.2,0.2c-0.1,0.7-0.5,1.4-1,2
		c-0.5,0.6-1.2,0.9-2,0.9c-0.9,0-1.7-0.4-2.2-1c-0.6-0.8-1-1.7-0.9-2.7c0-1.2,0.3-2.2,1-2.9c0.6-0.7,1.5-1.1,2.4-1
		c0.7,0,1.5,0.3,2,0.8c0.5,0.6,0.8,1.3,0.8,2.1L197,20.4z M197,19.9h3.3c0-0.3-0.1-0.7-0.2-1c-0.1-0.3-0.3-0.5-0.6-0.7
		c-0.2-0.2-0.5-0.2-0.8-0.3c-0.4,0-0.9,0.2-1.2,0.5C197.2,18.9,197,19.4,197,19.9 M205,17.5v1.6c0.6-1.1,1.2-1.6,1.9-1.6
		c0.3,0,0.5,0.1,0.7,0.3c0.2,0.2,0.3,0.4,0.3,0.6c0,0.2-0.1,0.4-0.2,0.5c-0.1,0.1-0.3,0.2-0.5,0.2c-0.2,0-0.5-0.1-0.6-0.3
		c-0.1-0.1-0.3-0.2-0.5-0.3c-0.1,0-0.2,0.1-0.3,0.2c-0.3,0.3-0.5,0.7-0.7,1.1v3.5c0,0.3,0,0.6,0.1,0.9c0.1,0.1,0.2,0.3,0.3,0.3
		c0.2,0.1,0.5,0.2,0.7,0.1v0.3h-3.7v-0.3c0.3,0,0.6,0,0.8-0.2c0.1-0.1,0.2-0.2,0.3-0.4c0-0.3,0-0.5,0-0.8v-2.8c0-0.5,0-1-0.1-1.5
		c0-0.1-0.1-0.3-0.2-0.3c-0.1-0.1-0.2-0.1-0.3-0.1c-0.2,0-0.4,0-0.6,0.1l-0.1-0.3l2.2-0.9L205,17.5z M210.4,15.3v2.4h1.7v0.5h-1.7
		v4.7c0,0.3,0,0.7,0.2,0.9c0.1,0.2,0.3,0.3,0.5,0.2c0.2,0,0.4-0.1,0.5-0.2c0.2-0.1,0.3-0.3,0.4-0.5h0.3c-0.1,0.5-0.4,0.9-0.8,1.2
		c-0.3,0.2-0.7,0.4-1,0.4c-0.2,0-0.5-0.1-0.7-0.2c-0.2-0.1-0.4-0.3-0.5-0.6c-0.1-0.4-0.2-0.8-0.2-1.2v-4.8h-1.1V18
		c0.3-0.1,0.6-0.3,0.9-0.6c0.3-0.3,0.6-0.6,0.8-1c0.2-0.3,0.4-0.7,0.5-1.1L210.4,15.3z M214.6,13.7c0.2,0,0.4,0.1,0.6,0.2
		c0.2,0.1,0.2,0.4,0.2,0.6c0,0.2-0.1,0.4-0.2,0.6c-0.1,0.2-0.4,0.2-0.6,0.2c-0.2,0-0.4-0.1-0.6-0.2c-0.2-0.1-0.2-0.4-0.2-0.6
		c0-0.2,0.1-0.4,0.2-0.6C214.2,13.8,214.4,13.7,214.6,13.7 M215.2,17.4v5.8c0,0.3,0,0.6,0.1,0.9c0,0.1,0.2,0.3,0.3,0.3
		c0.2,0.1,0.5,0.1,0.7,0.1v0.3h-3.5v-0.3c0.2,0,0.5,0,0.7-0.1c0.1-0.1,0.2-0.2,0.3-0.3c0.1-0.3,0.1-0.6,0.1-0.9v-2.8
		c0-0.5,0-1-0.1-1.5c0-0.1-0.1-0.3-0.2-0.3c-0.1-0.1-0.2-0.1-0.3-0.1c-0.2,0-0.4,0-0.5,0.1l-0.1-0.3l2.2-0.9L215.2,17.4z
		 M221.9,17.4v2.5h-0.3c-0.1-0.6-0.4-1.1-0.8-1.6c-0.3-0.3-0.8-0.4-1.2-0.4c-0.3,0-0.6,0.1-0.9,0.3c-0.2,0.1-0.3,0.4-0.3,0.6
		c0,0.3,0.1,0.5,0.2,0.8c0.3,0.3,0.6,0.5,1,0.7l1.1,0.6c1.1,0.5,1.6,1.2,1.6,2.1c0,0.6-0.3,1.2-0.7,1.6c-0.5,0.4-1.1,0.6-1.7,0.6
		c-0.5,0-1-0.1-1.5-0.2c-0.1,0-0.3-0.1-0.4-0.1c-0.1,0-0.2,0.1-0.3,0.2h-0.3v-2.6h0.3c0.1,0.6,0.4,1.2,0.8,1.7
		c0.4,0.4,0.9,0.5,1.4,0.5c0.3,0,0.6-0.1,0.9-0.3c0.2-0.2,0.3-0.5,0.3-0.8c0-0.3-0.1-0.7-0.4-0.9c-0.5-0.4-1-0.7-1.5-0.9
		c-0.6-0.2-1.1-0.6-1.5-1c-0.2-0.3-0.4-0.7-0.3-1.1c0-0.6,0.2-1.1,0.6-1.5c0.4-0.4,1-0.6,1.6-0.6c0.4,0,0.7,0.1,1,0.2
		c0.2,0.1,0.4,0.1,0.5,0.1c0.1,0,0.1,0,0.2-0.1c0.1-0.1,0.1-0.2,0.2-0.2L221.9,17.4z M225.3,13.7c0.4,0,0.8,0.4,0.8,0.8
		c0,0.2-0.1,0.4-0.2,0.6c-0.1,0.2-0.4,0.2-0.6,0.2c-0.4,0-0.8-0.4-0.8-0.8v0c0-0.2,0.1-0.4,0.2-0.6
		C224.9,13.8,225.1,13.7,225.3,13.7 M226,17.5v5.8c0,0.3,0,0.6,0.1,0.9c0.1,0.1,0.2,0.3,0.3,0.3c0.2,0.1,0.5,0.1,0.7,0.1v0.3h-3.5
		v-0.3c0.2,0,0.5,0,0.7-0.1c0.1-0.1,0.2-0.2,0.3-0.3c0.1-0.3,0.1-0.6,0.1-0.9v-2.8c0-0.5,0-1-0.1-1.5c0-0.1-0.1-0.3-0.2-0.3
		c-0.1-0.1-0.2-0.1-0.3-0.1c-0.2,0-0.4,0-0.5,0.1l-0.1-0.3l2.2-0.9L226,17.5z M230.1,19c0.8-1,1.6-1.5,2.4-1.5c0.4,0,0.7,0.1,1,0.3
		c0.3,0.2,0.6,0.6,0.7,1c0.1,0.5,0.2,1,0.2,1.4v3.1c0,0.3,0,0.6,0.1,0.9c0.1,0.1,0.2,0.2,0.3,0.3c0.2,0.1,0.5,0.1,0.7,0.1v0.3h-3.6
		v-0.3h0.2c0.2,0,0.5,0,0.7-0.2c0.1-0.1,0.2-0.3,0.3-0.4c0-0.2,0-0.5,0-0.7v-3c0-0.5-0.1-1-0.3-1.4c-0.2-0.3-0.5-0.5-0.9-0.4
		c-0.6,0-1.2,0.3-1.9,1v3.8c0,0.3,0,0.6,0.1,0.9c0.1,0.1,0.2,0.3,0.3,0.3c0.2,0.1,0.5,0.1,0.8,0.1v0.3h-3.6v-0.3h0.2
		c0.3,0,0.6-0.1,0.7-0.3c0.2-0.3,0.2-0.7,0.2-1.1v-2.7c0-0.5,0-1.1-0.1-1.6c0-0.1-0.1-0.3-0.2-0.4c-0.1-0.1-0.2-0.1-0.3-0.1
		c-0.2,0-0.4,0-0.5,0.1l-0.1-0.3l2.2-0.9h0.3L230.1,19z M237.9,22.2c-0.4-0.2-0.8-0.5-1-0.9c-0.2-0.4-0.4-0.8-0.3-1.3
		c0-0.7,0.3-1.4,0.8-1.8c0.6-0.5,1.3-0.8,2.1-0.8c0.6,0,1.3,0.2,1.8,0.5h1.5c0.1,0,0.3,0,0.4,0c0,0,0.1,0,0.1,0.1
		c0,0.1,0.1,0.2,0.1,0.3c0,0.1,0,0.2,0,0.3c0,0-0.1,0-0.1,0.1c-0.1,0-0.3,0-0.4,0h-0.9c0.3,0.4,0.5,0.9,0.4,1.4
		c0,0.7-0.3,1.3-0.8,1.7c-0.6,0.5-1.3,0.8-2.1,0.7c-0.4,0-0.7-0.1-1.1-0.2c-0.2,0.1-0.3,0.3-0.5,0.5c-0.1,0.1-0.1,0.2-0.1,0.4
		c0,0.1,0,0.2,0.1,0.3c0.1,0.1,0.3,0.2,0.5,0.2c0.1,0,0.5,0,1.1,0.1c0.7,0,1.4,0,2.1,0.1c0.4,0,0.9,0.2,1.2,0.5
		c0.3,0.3,0.4,0.7,0.4,1.1c0,0.7-0.3,1.3-0.8,1.7c-0.9,0.8-2,1.2-3.2,1.1c-0.9,0-1.8-0.2-2.6-0.7c-0.4-0.3-0.6-0.5-0.6-0.8
		c0-0.1,0-0.3,0.1-0.4c0.2-0.3,0.3-0.6,0.6-0.8c0-0.1,0.3-0.3,0.8-0.9c-0.2-0.1-0.4-0.3-0.6-0.4c-0.1-0.1-0.2-0.3-0.2-0.4
		c0-0.2,0.1-0.5,0.2-0.6C237.2,22.9,237.6,22.5,237.9,22.2 M239.3,17.8c-0.4,0-0.7,0.2-1,0.5c-0.3,0.4-0.4,0.9-0.4,1.4
		c0,0.7,0.1,1.4,0.5,1.9c0.2,0.3,0.6,0.5,1,0.5c0.4,0,0.7-0.2,1-0.5c0.3-0.4,0.4-0.9,0.4-1.4c0-0.7-0.1-1.4-0.5-2
		C240.1,18,239.7,17.8,239.3,17.8 M237.9,24.9c-0.2,0.2-0.4,0.5-0.6,0.7c-0.1,0.2-0.2,0.4-0.2,0.6c0,0.3,0.2,0.5,0.5,0.7
		c0.7,0.4,1.5,0.5,2.3,0.5c0.9,0,1.6-0.2,2.1-0.5c0.4-0.2,0.6-0.6,0.7-1.1c0-0.3-0.2-0.5-0.4-0.6c-0.5-0.2-1.1-0.2-1.6-0.2
		C239.7,25,238.8,25,237.9,24.9 M255.8,18h3.3v0.3c-0.4,0-0.7,0.1-1,0.3c-0.4,0.4-0.8,0.9-1,1.5c-0.4,0.8-1,1.6-1.6,2.3
		c0.4,0.4,0.8,0.8,1.3,1.1c0.3,0.2,0.7,0.3,1.1,0.3c0.3,0,0.7-0.1,0.9-0.3c0.3-0.2,0.4-0.5,0.5-0.9l0.3,0.2
		c-0.1,0.6-0.4,1.2-0.9,1.6c-0.4,0.3-1,0.5-1.5,0.5c-0.5,0-0.9-0.1-1.3-0.3c-0.5-0.3-1-0.7-1.5-1.2c-0.5,0.5-1.1,0.9-1.8,1.2
		c-0.5,0.2-1.1,0.3-1.7,0.3c-0.8,0-1.5-0.2-2.1-0.7c-0.5-0.4-0.8-1-0.8-1.7c0-0.7,0.3-1.4,0.7-1.9c0.5-0.6,1.3-1.3,2.6-2
		c-0.2-0.4-0.4-0.9-0.5-1.3c-0.1-0.3-0.1-0.7-0.1-1c0-0.8,0.3-1.6,1-2c0.5-0.4,1.1-0.6,1.8-0.6c0.6,0,1.1,0.2,1.5,0.6
		c0.4,0.3,0.6,0.8,0.6,1.4c0,0.5-0.2,1.1-0.6,1.5c-0.6,0.6-1.3,1-2,1.4c0.6,1.1,1.3,2.2,2.1,3.3c0.9-1.1,1.4-2,1.4-2.8
		c0-0.2-0.1-0.5-0.2-0.6c-0.1-0.1-0.3-0.2-0.5-0.2L255.8,18z M252.8,18.2c0.6-0.2,1.1-0.6,1.5-1.1c0.3-0.4,0.5-0.8,0.5-1.3
		c0-0.3-0.1-0.7-0.3-0.9c-0.2-0.2-0.5-0.4-0.9-0.4c-0.4,0-0.8,0.2-1,0.5c-0.2,0.3-0.3,0.6-0.3,0.9c0,0.3,0,0.6,0.1,0.9
		C252.4,17.1,252.6,17.6,252.8,18.2 M254,23.1c-0.7-1-1.2-1.6-1.4-2.1c-0.3-0.4-0.5-1-0.9-1.6c-0.5,0.3-1,0.7-1.4,1.2
		c-0.3,0.4-0.5,0.9-0.5,1.4c0,0.5,0.2,1.1,0.5,1.5c0.4,0.4,0.9,0.7,1.5,0.6c0.3,0,0.7-0.1,1-0.2C253.2,23.7,253.6,23.5,254,23.1
		 M178.1,40.9c-0.1,0.8-0.5,1.6-1.1,2.2c-1.1,1-2.8,1-3.8,0c-0.1-0.1-0.1-0.1-0.2-0.2c-0.6-0.8-1-1.8-0.9-2.8c0-1,0.3-2,1-2.8
		c0.6-0.7,1.5-1.1,2.4-1.1c0.6,0,1.2,0.2,1.7,0.6c0.4,0.3,0.7,0.7,0.7,1.2c0,0.2-0.1,0.4-0.2,0.5c-0.1,0.1-0.3,0.2-0.5,0.2
		c-0.3,0-0.5-0.1-0.7-0.3c-0.1-0.2-0.2-0.4-0.2-0.6c0-0.3-0.1-0.5-0.3-0.7c-0.2-0.2-0.5-0.2-0.8-0.2c-0.5,0-1,0.2-1.3,0.6
		c-0.5,0.6-0.7,1.3-0.6,2c0,0.8,0.2,1.6,0.6,2.3c0.3,0.6,1,1,1.7,1c0.5,0,1-0.2,1.4-0.5c0.4-0.4,0.7-0.8,0.8-1.3L178.1,40.9z
		 M182.6,36.2c1,0,2,0.4,2.6,1.3c0.6,0.7,0.9,1.5,0.8,2.4c0,0.7-0.2,1.3-0.5,2c-0.5,1.2-1.8,2-3.1,2c-1,0-2-0.5-2.6-1.3
		c-0.5-0.7-0.8-1.6-0.8-2.5c0-0.7,0.2-1.4,0.5-2C180.2,36.9,181.3,36.2,182.6,36.2 M182.4,36.7c-0.3,0-0.6,0.1-0.8,0.3
		c-0.3,0.2-0.6,0.5-0.7,0.9c-0.2,0.5-0.3,1-0.3,1.6c0,0.9,0.2,1.9,0.6,2.7c0.4,0.8,1,1.1,1.6,1.1c0.5,0,1-0.2,1.3-0.6
		c0.3-0.4,0.5-1.1,0.5-2.2c0-1.3-0.3-2.3-0.8-3C183.5,37,182.9,36.7,182.4,36.7 M189.3,37.7c0.5-0.5,0.8-0.8,0.9-0.9
		c0.2-0.2,0.5-0.4,0.8-0.5c0.3-0.1,0.5-0.2,0.8-0.2c0.4,0,0.8,0.1,1.2,0.4c0.3,0.3,0.6,0.7,0.6,1.1c0.4-0.5,0.9-0.9,1.4-1.2
		c0.4-0.2,0.7-0.3,1.2-0.3c0.4,0,0.7,0.1,1,0.3c0.3,0.2,0.6,0.6,0.7,1c0.1,0.5,0.2,0.9,0.2,1.4V42c0,0.3,0,0.6,0.1,0.9
		c0.1,0.1,0.2,0.2,0.3,0.3c0.2,0.1,0.5,0.1,0.7,0.1v0.3h-3.5v-0.3h0.2c0.3,0,0.5,0,0.7-0.2c0.1-0.1,0.2-0.2,0.3-0.4
		c0-0.3,0-0.5,0-0.8v-3.1c0-0.4,0-0.8-0.2-1.2c-0.2-0.3-0.6-0.5-1-0.5c-0.3,0-0.6,0.1-0.8,0.2c-0.4,0.2-0.7,0.5-1,0.8v0.1v0.3V42
		c0,0.3,0,0.6,0.1,0.9c0.1,0.1,0.2,0.2,0.3,0.3c0.2,0.1,0.5,0.1,0.8,0.1v0.3h-3.6v-0.3c0.3,0,0.6,0,0.8-0.1c0.2-0.1,0.3-0.2,0.3-0.4
		c0-0.3,0.1-0.5,0-0.8v-3.1c0-0.4-0.1-0.9-0.3-1.3c-0.2-0.3-0.6-0.5-1-0.5c-0.3,0-0.6,0.1-0.8,0.2c-0.4,0.2-0.7,0.5-1,0.8V42
		c0,0.3,0,0.6,0.1,0.9c0.1,0.1,0.2,0.2,0.3,0.3c0.2,0.1,0.5,0.1,0.8,0.1v0.3h-3.6v-0.3c0.2,0,0.5,0,0.7-0.1c0.1-0.1,0.2-0.2,0.3-0.3
		c0.1-0.3,0.1-0.6,0.1-0.9v-2.8c0-0.5,0-1-0.1-1.5c0-0.1-0.1-0.3-0.2-0.3c-0.1-0.1-0.2-0.1-0.3-0.1c-0.2,0-0.4,0-0.5,0.1l-0.1-0.3
		l2.2-0.9h0.3L189.3,37.7z M201.8,37.7c0.5-0.5,0.8-0.8,0.9-0.9c0.2-0.2,0.5-0.4,0.8-0.5c0.3-0.1,0.5-0.2,0.8-0.2
		c0.4,0,0.8,0.1,1.2,0.4c0.3,0.3,0.6,0.7,0.6,1.1c0.4-0.5,0.9-0.9,1.4-1.2c0.4-0.2,0.7-0.3,1.1-0.3c0.4,0,0.7,0.1,1,0.3
		c0.3,0.2,0.6,0.6,0.7,1c0.1,0.5,0.2,0.9,0.2,1.4V42c0,0.3,0,0.6,0.1,0.9c0.1,0.1,0.2,0.2,0.3,0.3c0.2,0.1,0.5,0.1,0.7,0.1v0.3h-3.5
		v-0.3h0.1c0.3,0,0.5,0,0.7-0.2c0.1-0.1,0.2-0.2,0.3-0.4c0-0.3,0-0.5,0-0.8v-3.1c0-0.4,0-0.8-0.2-1.2c-0.2-0.3-0.6-0.5-1-0.5
		c-0.3,0-0.6,0.1-0.8,0.2c-0.4,0.2-0.7,0.5-1,0.8v0.1v0.3V42c0,0.3,0,0.6,0.1,0.9c0.1,0.1,0.2,0.2,0.3,0.3c0.2,0.1,0.5,0.1,0.8,0.1
		v0.3h-3.6v-0.3c0.3,0,0.6,0,0.8-0.1c0.2-0.1,0.3-0.2,0.3-0.4c0-0.3,0-0.5,0-0.8v-3.1c0-0.4-0.1-0.9-0.3-1.3c-0.2-0.3-0.6-0.5-1-0.5
		c-0.3,0-0.6,0.1-0.8,0.2c-0.4,0.2-0.7,0.5-1,0.8V42c0,0.3,0,0.6,0.1,0.9c0.1,0.1,0.2,0.2,0.3,0.3c0.2,0.1,0.5,0.1,0.8,0.1v0.3h-3.6
		v-0.3c0.2,0,0.5,0,0.7-0.1c0.1-0.1,0.2-0.2,0.3-0.3c0.1-0.3,0.1-0.6,0.1-0.9v-2.8c0-0.5,0-1-0.1-1.5c0-0.1-0.1-0.3-0.2-0.3
		c-0.1-0.1-0.2-0.1-0.3-0.1c-0.2,0-0.4,0-0.5,0.1l-0.1-0.3l2.2-0.9h0.3L201.8,37.7z M218.5,36.4v4.4c0,0.5,0,1,0.1,1.5
		c0,0.1,0.1,0.3,0.2,0.4c0.1,0.1,0.2,0.1,0.3,0.1c0.2,0,0.4-0.1,0.5-0.1l0.1,0.3l-2.2,0.9h-0.3v-1.5c-0.4,0.5-0.9,0.9-1.4,1.3
		c-0.3,0.2-0.7,0.3-1,0.3c-0.4,0-0.7-0.1-1-0.3c-0.3-0.2-0.5-0.5-0.6-0.9c-0.1-0.5-0.2-1-0.2-1.6v-3.2c0-0.2,0-0.5-0.1-0.7
		c-0.1-0.1-0.2-0.2-0.3-0.3c-0.3-0.1-0.5-0.1-0.8-0.1v-0.3h2.5v4.8c0,0.7,0.1,1.1,0.3,1.3c0.2,0.2,0.5,0.3,0.8,0.3
		c0.3,0,0.5-0.1,0.8-0.2c0.4-0.2,0.7-0.5,1-0.8v-4.1c0-0.3,0-0.6-0.2-0.8c-0.3-0.2-0.6-0.3-0.9-0.2v-0.3H218.5z M222.3,37.7
		c0.8-1,1.6-1.5,2.4-1.5c0.4,0,0.7,0.1,1,0.3c0.3,0.2,0.6,0.6,0.7,1c0.1,0.5,0.2,1,0.2,1.4V42c0,0.3,0,0.6,0.1,0.9
		c0.1,0.1,0.2,0.2,0.3,0.3c0.2,0.1,0.5,0.1,0.7,0.1v0.3h-3.6v-0.3h0.2c0.2,0,0.5,0,0.7-0.2c0.1-0.1,0.2-0.3,0.3-0.4
		c0-0.2,0-0.5,0-0.7v-2.9c0-0.5-0.1-1-0.2-1.4c-0.2-0.3-0.5-0.5-0.9-0.4c-0.6,0-1.2,0.3-1.9,1V42c0,0.3,0,0.6,0.1,0.9
		c0.1,0.1,0.2,0.3,0.3,0.3c0.3,0.1,0.5,0.1,0.8,0.1v0.3H220v-0.3h0.2c0.3,0,0.6-0.1,0.7-0.3c0.2-0.3,0.2-0.7,0.2-1.1v-2.7
		c0-0.5,0-1.1-0.1-1.6c0-0.1-0.1-0.3-0.2-0.4c-0.1-0.1-0.2-0.1-0.3-0.1c-0.2,0-0.4,0-0.5,0.1l-0.1-0.3l2.2-0.9h0.3L222.3,37.7z
		 M230.1,32.4c0.4,0,0.8,0.3,0.8,0.8c0,0,0,0,0,0c0,0.2-0.1,0.4-0.2,0.6c-0.3,0.3-0.8,0.3-1.1,0c0,0,0,0,0,0c-0.3-0.3-0.3-0.8,0-1.1
		C229.7,32.5,229.9,32.4,230.1,32.4 M230.8,36.2V42c0,0.3,0,0.6,0.1,0.9c0.1,0.1,0.2,0.3,0.3,0.3c0.2,0.1,0.5,0.1,0.7,0.1v0.3h-3.5
		v-0.3c0.2,0,0.5,0,0.7-0.1c0.1-0.1,0.2-0.2,0.3-0.3c0.1-0.3,0.1-0.6,0.1-0.9v-2.8c0-0.5,0-1-0.1-1.5c0-0.1-0.1-0.3-0.2-0.3
		c-0.1-0.1-0.2-0.1-0.3-0.1c-0.2,0-0.4,0-0.5,0.1l-0.1-0.3l2.2-0.9L230.8,36.2z M238.9,40.9c-0.1,0.8-0.5,1.6-1.1,2.2
		c-0.5,0.5-1.2,0.8-1.9,0.8c-0.8,0-1.6-0.4-2.1-1c-0.6-0.8-1-1.8-0.9-2.8c0-1,0.3-2,1-2.8c0.6-0.7,1.5-1.1,2.4-1.1
		c0.6,0,1.3,0.2,1.8,0.6c0.4,0.3,0.7,0.7,0.7,1.2c0,0.2-0.1,0.4-0.2,0.5c-0.1,0.1-0.3,0.2-0.5,0.2c-0.3,0-0.5-0.1-0.7-0.3
		c-0.1-0.2-0.2-0.4-0.2-0.6c0-0.3-0.1-0.5-0.3-0.7c-0.2-0.2-0.5-0.2-0.8-0.2c-0.5,0-1,0.2-1.3,0.6c-0.4,0.6-0.7,1.3-0.6,2
		c0,0.8,0.2,1.6,0.6,2.3c0.3,0.6,1,1,1.7,1c0.5,0,1-0.2,1.4-0.5c0.4-0.4,0.7-0.8,0.8-1.3L238.9,40.9z M244,42.6
		c-0.4,0.4-0.9,0.7-1.4,1c-0.3,0.1-0.6,0.2-0.9,0.2c-0.5,0-0.9-0.2-1.2-0.5c-0.3-0.4-0.5-0.8-0.5-1.3c0-0.3,0.1-0.6,0.2-0.9
		c0.3-0.4,0.7-0.8,1.1-1c0.9-0.5,1.7-0.8,2.7-1.1v-0.3c0-0.7-0.1-1.2-0.3-1.5c-0.3-0.3-0.6-0.4-1-0.4c-0.3,0-0.6,0.1-0.8,0.3
		c-0.2,0.1-0.3,0.4-0.3,0.6V38c0,0.2-0.1,0.4-0.2,0.6c-0.1,0.1-0.3,0.2-0.5,0.2c-0.2,0-0.4-0.1-0.5-0.2c-0.1-0.2-0.2-0.4-0.2-0.6
		c0-0.5,0.3-1,0.7-1.2c0.6-0.4,1.2-0.6,1.9-0.6c0.5,0,1.1,0.1,1.6,0.3c0.3,0.2,0.6,0.4,0.7,0.8c0.1,0.5,0.2,0.9,0.1,1.4v2.4
		c0,0.4,0,0.8,0,1.3c0,0.1,0.1,0.2,0.1,0.3c0.1,0.1,0.1,0.1,0.2,0.1c0.1,0,0.2,0,0.2-0.1c0.2-0.2,0.4-0.4,0.6-0.6v0.4
		c-0.6,0.8-1.1,1.2-1.7,1.2c-0.2,0-0.5-0.1-0.6-0.3C244.1,43.2,244,42.9,244,42.6 M244,42.1v-2.8c-0.8,0.3-1.3,0.5-1.5,0.7
		c-0.3,0.2-0.6,0.4-0.9,0.7c-0.4,0.5-0.4,1.3,0.1,1.8c0.2,0.2,0.5,0.4,0.8,0.4C242.8,42.8,243.4,42.6,244,42.1 M249.2,34v2.4h1.7V37
		h-1.7v4.7c0,0.3,0,0.7,0.2,0.9c0.1,0.2,0.3,0.3,0.5,0.2c0.2,0,0.4-0.1,0.5-0.2c0.2-0.1,0.3-0.3,0.4-0.5h0.3
		c-0.1,0.5-0.4,0.9-0.8,1.2c-0.3,0.2-0.7,0.4-1,0.4c-0.2,0-0.5-0.1-0.7-0.2c-0.2-0.1-0.4-0.3-0.5-0.6c-0.1-0.4-0.2-0.8-0.2-1.2V37
		h-1.1v-0.3c0.3-0.1,0.6-0.3,0.9-0.6c0.3-0.3,0.6-0.6,0.8-1c0.2-0.4,0.4-0.7,0.5-1.1L249.2,34z M253.4,32.4c0.2,0,0.4,0.1,0.6,0.2
		c0.3,0.3,0.3,0.8,0,1.1c-0.1,0.2-0.3,0.2-0.6,0.2c-0.2,0-0.4-0.1-0.6-0.2c-0.2-0.2-0.2-0.4-0.2-0.6
		C252.6,32.8,252.9,32.4,253.4,32.4C253.4,32.4,253.4,32.4,253.4,32.4 M254,36.2V42c0,0.3,0,0.6,0.1,0.9c0.1,0.1,0.2,0.3,0.3,0.3
		c0.2,0.1,0.5,0.1,0.7,0.1v0.3h-3.5v-0.3c0.2,0,0.5,0,0.7-0.1c0.1-0.1,0.2-0.2,0.3-0.3c0.1-0.3,0.1-0.6,0.1-0.9v-2.8
		c0-0.5,0-1-0.1-1.5c0-0.1-0.1-0.3-0.2-0.3c-0.1-0.1-0.2-0.1-0.3-0.1c-0.2,0-0.4,0-0.5,0.1l-0.1-0.3l2.2-0.9L254,36.2z M259.5,36.2
		c1,0,2,0.4,2.6,1.3c0.6,0.7,0.8,1.5,0.8,2.4c0,0.7-0.2,1.3-0.5,2c-0.3,0.6-0.7,1.1-1.3,1.5c-0.5,0.3-1.2,0.5-1.8,0.5
		c-1,0-2-0.5-2.6-1.3c-0.5-0.7-0.8-1.6-0.8-2.5c0-0.7,0.2-1.4,0.5-2c0.3-0.6,0.7-1.1,1.3-1.5C258.3,36.3,258.9,36.2,259.5,36.2
		 M259.3,36.7c-0.3,0-0.6,0.1-0.8,0.3c-0.3,0.2-0.6,0.5-0.7,0.9c-0.2,0.5-0.3,1-0.3,1.6c0,0.9,0.2,1.9,0.6,2.7
		c0.4,0.8,1,1.1,1.6,1.1c0.5,0,1-0.2,1.3-0.6c0.3-0.4,0.5-1.1,0.5-2.2c0-1.3-0.3-2.3-0.8-3C260.4,37,259.9,36.7,259.3,36.7
		 M266.2,37.7c0.8-1,1.6-1.5,2.4-1.5c0.4,0,0.7,0.1,1,0.3c0.3,0.2,0.6,0.6,0.7,1c0.1,0.5,0.2,1,0.2,1.4V42c0,0.3,0,0.6,0.1,0.9
		c0.1,0.1,0.2,0.2,0.3,0.3c0.2,0.1,0.5,0.1,0.7,0.1v0.3H268v-0.3h0.2c0.2,0,0.5,0,0.7-0.2c0.1-0.1,0.2-0.3,0.3-0.4
		c0-0.2,0-0.5,0-0.7v-2.9c0-0.5-0.1-1-0.3-1.4c-0.2-0.3-0.5-0.5-0.9-0.4c-0.6,0-1.2,0.3-1.9,1V42c0,0.3,0,0.6,0.1,0.9
		c0.1,0.1,0.2,0.3,0.3,0.3c0.2,0.1,0.5,0.1,0.8,0.1v0.3h-3.6v-0.3h0.2c0.3,0,0.6-0.1,0.7-0.3c0.1-0.3,0.2-0.7,0.2-1.1v-2.7
		c0-0.5,0-1.1-0.1-1.6c0-0.1-0.1-0.3-0.2-0.4c-0.1-0.1-0.2-0.1-0.3-0.1c-0.2,0-0.4,0-0.5,0.1l-0.1-0.3l2.2-0.9h0.3L266.2,37.7z
		 M177.1,54.4v2.5h-0.3c-0.2-0.8-0.5-1.3-0.8-1.6c-0.3-0.3-0.8-0.4-1.2-0.4c-0.3,0-0.6,0.1-0.9,0.3c-0.2,0.2-0.3,0.4-0.3,0.6
		c0,0.3,0.1,0.5,0.3,0.8c0.3,0.3,0.6,0.5,1,0.7l1.2,0.6c1.1,0.5,1.6,1.2,1.6,2.1c0,0.6-0.3,1.2-0.7,1.6c-0.5,0.4-1.1,0.6-1.7,0.6
		c-0.5,0-1-0.1-1.5-0.2c-0.1,0-0.3-0.1-0.4-0.1c-0.1,0-0.2,0.1-0.3,0.2h-0.3v-2.6h0.3c0.1,0.6,0.4,1.2,0.8,1.7
		c0.4,0.4,0.9,0.5,1.4,0.5c0.3,0,0.6-0.1,0.9-0.3c0.2-0.2,0.3-0.5,0.3-0.8c0-0.3-0.1-0.7-0.4-0.9c-0.5-0.4-1-0.7-1.5-0.9
		c-0.6-0.2-1.1-0.6-1.5-1c-0.2-0.3-0.4-0.7-0.3-1.1c0-0.6,0.2-1.1,0.6-1.5c0.4-0.4,1-0.6,1.6-0.6c0.4,0,0.7,0.1,1,0.2
		c0.2,0.1,0.4,0.1,0.5,0.1c0.1,0,0.1,0,0.2-0.1c0.1-0.1,0.1-0.2,0.2-0.2L177.1,54.4z M180,57.3c-0.1,0.9,0.2,1.8,0.8,2.5
		c0.4,0.6,1.1,0.9,1.9,0.9c0.4,0,0.9-0.1,1.2-0.4c0.4-0.4,0.7-0.8,0.9-1.3l0.2,0.2c-0.1,0.7-0.5,1.4-1,2c-0.5,0.6-1.2,0.9-2,0.9
		c-0.9,0-1.7-0.4-2.2-1c-0.6-0.8-1-1.7-0.9-2.7c0-1.2,0.3-2.2,1-2.9c0.6-0.7,1.5-1.1,2.4-1c0.7,0,1.5,0.3,2,0.8
		c0.5,0.6,0.8,1.3,0.8,2.1L180,57.3z M180,56.9h3.3c0-0.3-0.1-0.7-0.2-1c-0.1-0.3-0.3-0.5-0.6-0.7c-0.2-0.2-0.5-0.3-0.8-0.3
		c-0.4,0-0.9,0.2-1.2,0.5C180.2,55.8,180,56.3,180,56.9 M188,54.4V56c0.6-1.1,1.2-1.6,1.8-1.6c0.3,0,0.5,0.1,0.7,0.3
		c0.2,0.2,0.3,0.4,0.3,0.6c0,0.2-0.1,0.4-0.2,0.5c-0.1,0.1-0.3,0.2-0.5,0.2c-0.2,0-0.4-0.1-0.6-0.3c-0.1-0.1-0.3-0.2-0.5-0.3
		c-0.1,0-0.2,0.1-0.3,0.2c-0.3,0.3-0.5,0.7-0.7,1.1v3.5c0,0.3,0,0.6,0.1,0.9c0.1,0.1,0.2,0.3,0.3,0.3c0.2,0.1,0.5,0.2,0.7,0.1v0.3
		h-3.7v-0.3c0.3,0,0.6,0,0.8-0.2c0.1-0.1,0.2-0.2,0.3-0.4c0-0.3,0.1-0.5,0-0.8v-2.8c0-0.5,0-1-0.1-1.5c0-0.1-0.1-0.3-0.2-0.3
		c-0.1-0.1-0.2-0.1-0.3-0.1c-0.2,0-0.4,0-0.5,0.1l-0.1-0.3l2.2-0.9L188,54.4z M190.9,54.6h3.4v0.3h-0.2c-0.2,0-0.3,0-0.5,0.2
		c-0.1,0.1-0.2,0.2-0.2,0.4c0,0.2,0.1,0.4,0.2,0.7l1.7,4L197,56c0.1-0.2,0.2-0.4,0.2-0.7c0-0.1,0-0.1-0.1-0.2
		c-0.1-0.1-0.1-0.1-0.2-0.2c-0.2,0-0.4-0.1-0.5,0v-0.3h2.4v0.3c-0.2,0-0.4,0.1-0.6,0.2c-0.2,0.2-0.4,0.5-0.5,0.8l-2.6,6.2h-0.3
		l-2.6-6.1c-0.1-0.2-0.2-0.4-0.3-0.6c-0.1-0.1-0.2-0.2-0.4-0.3c-0.2-0.1-0.3-0.1-0.5-0.1L190.9,54.6z M201.2,50.6
		c0.4,0,0.8,0.4,0.8,0.8c0,0,0,0,0,0c0,0.2-0.1,0.4-0.2,0.6c-0.3,0.3-0.8,0.3-1.1,0c-0.1-0.1-0.2-0.3-0.2-0.6
		C200.3,51,200.7,50.6,201.2,50.6 M201.8,54.4v5.8c0,0.3,0,0.6,0.1,0.9c0.1,0.1,0.2,0.3,0.3,0.3c0.2,0.1,0.5,0.1,0.7,0.1v0.3h-3.5
		v-0.3c0.2,0,0.5,0,0.7-0.1c0.1-0.1,0.2-0.2,0.3-0.3c0.1-0.3,0.1-0.6,0.1-0.9v-2.8c0-0.5,0-1-0.1-1.5c0-0.1-0.1-0.2-0.2-0.3
		c-0.1-0.1-0.2-0.1-0.3-0.1c-0.2,0-0.4,0.1-0.5,0.1l-0.1-0.3l2.2-0.9L201.8,54.4z M209.9,59.1c-0.1,0.8-0.5,1.6-1.1,2.2
		c-1.1,1-2.8,1-3.9-0.1c-0.1-0.1-0.1-0.1-0.2-0.2c-0.6-0.7-0.9-1.6-0.9-2.8c0-1,0.3-2,1-2.8c0.6-0.7,1.5-1.1,2.4-1.1
		c0.6,0,1.3,0.2,1.7,0.6c0.4,0.3,0.7,0.7,0.7,1.2c0,0.2-0.1,0.4-0.2,0.5c-0.2,0.1-0.3,0.2-0.5,0.2c-0.3,0-0.5-0.1-0.7-0.3
		c-0.1-0.2-0.2-0.4-0.2-0.6c0-0.3-0.1-0.5-0.3-0.7c-0.2-0.2-0.5-0.3-0.8-0.2c-0.5,0-1,0.2-1.3,0.6c-0.4,0.6-0.7,1.3-0.6,2
		c0,0.8,0.2,1.6,0.6,2.3c0.4,0.6,1,1,1.7,1c0.5,0,1-0.2,1.4-0.5c0.4-0.4,0.7-0.8,0.8-1.3L209.9,59.1z M212.2,57.3
		c0,1.1,0.2,1.9,0.8,2.5c0.4,0.6,1.1,0.9,1.8,0.9c0.4,0,0.9-0.1,1.2-0.4c0.4-0.4,0.7-0.8,0.9-1.3l0.2,0.2c-0.1,0.7-0.4,1.4-1,2
		c-0.5,0.6-1.2,0.9-2,0.9c-0.9,0-1.7-0.4-2.2-1c-0.6-0.8-1-1.7-0.9-2.7c0-1.2,0.3-2.2,0.9-2.9c0.6-0.7,1.5-1.1,2.4-1
		c0.7,0,1.5,0.3,2,0.8c0.5,0.6,0.8,1.3,0.8,2.1L212.2,57.3z M212.2,56.9h3.3c0-0.3-0.1-0.7-0.2-1c-0.1-0.3-0.3-0.5-0.6-0.7
		c-0.2-0.2-0.5-0.3-0.8-0.3c-0.4,0-0.9,0.2-1.2,0.5C212.4,55.8,212.2,56.3,212.2,56.9 M222.8,54.4v2.5h-0.3
		c-0.2-0.8-0.4-1.3-0.8-1.6c-0.3-0.3-0.8-0.4-1.2-0.4c-0.3,0-0.6,0.1-0.9,0.3c-0.2,0.2-0.3,0.4-0.3,0.6c0,0.3,0.1,0.5,0.2,0.8
		c0.3,0.3,0.6,0.5,1,0.7l1.1,0.6c1.1,0.5,1.6,1.2,1.6,2.1c0,0.6-0.3,1.2-0.7,1.6c-0.5,0.4-1.1,0.6-1.7,0.6c-0.5,0-1-0.1-1.5-0.2
		c-0.1,0-0.3-0.1-0.4-0.1c-0.1,0-0.2,0.1-0.3,0.2h-0.3v-2.6h0.3c0.1,0.6,0.4,1.2,0.8,1.7c0.4,0.4,0.9,0.5,1.4,0.5
		c0.3,0,0.6-0.1,0.9-0.3c0.2-0.2,0.3-0.5,0.3-0.8c0-0.3-0.1-0.7-0.4-0.9c-0.5-0.4-1-0.7-1.5-0.9c-0.6-0.2-1.1-0.6-1.5-1
		c-0.2-0.3-0.4-0.7-0.3-1.1c0-0.6,0.2-1.1,0.6-1.5c0.4-0.4,1-0.6,1.6-0.6c0.4,0,0.7,0.1,1,0.2c0.2,0.1,0.4,0.1,0.5,0.1
		c0.1,0,0.1,0,0.2-0.1c0.1-0.1,0.1-0.1,0.2-0.2L222.8,54.4z M232.6,50.6v9.6c0,0.3,0,0.6,0.1,0.9c0.1,0.1,0.2,0.3,0.3,0.3
		c0.2,0.1,0.5,0.1,0.8,0.1v0.3h-3.5v-0.3c0.2,0,0.5,0,0.7-0.1c0.1-0.1,0.2-0.2,0.3-0.3c0.1-0.3,0.1-0.6,0.1-0.9v-6.6
		c0-0.5,0-1-0.1-1.5c0-0.1-0.1-0.3-0.2-0.4c-0.1-0.1-0.2-0.1-0.3-0.1c-0.2,0-0.4,0.1-0.5,0.1l-0.1-0.3l2.1-0.9L232.6,50.6z
		 M236.7,52.2v2.4h1.7v0.5h-1.7v4.7c0,0.3,0,0.7,0.2,0.9c0.1,0.2,0.3,0.3,0.5,0.2c0.2,0,0.4-0.1,0.5-0.2c0.2-0.1,0.3-0.3,0.4-0.5
		h0.3c-0.1,0.5-0.4,0.9-0.8,1.2c-0.3,0.2-0.7,0.4-1,0.4c-0.2,0-0.5-0.1-0.7-0.2c-0.2-0.1-0.4-0.3-0.5-0.6c-0.1-0.4-0.2-0.8-0.2-1.2
		v-4.8h-1.1v-0.3c0.3-0.1,0.6-0.3,0.9-0.6c0.3-0.3,0.6-0.6,0.8-1c0.2-0.3,0.4-0.7,0.5-1.1L236.7,52.2z M244.2,61
		c-0.3,0.3-0.6,0.6-1,0.8c-0.3,0.2-0.7,0.2-1.1,0.2c-0.8,0-1.6-0.4-2.1-1c-0.6-0.7-0.9-1.6-0.9-2.5c0-1,0.3-2,1-2.8
		c0.6-0.8,1.5-1.3,2.5-1.3c0.6,0,1.2,0.2,1.6,0.6v-1.3c0-0.5,0-1-0.1-1.5c0-0.1-0.1-0.3-0.2-0.4c-0.1-0.1-0.2-0.1-0.3-0.1
		c-0.2,0-0.4,0.1-0.5,0.1l-0.1-0.3l2.1-0.9h0.3v8.3c0,0.5,0,1,0.1,1.5c0,0.1,0.1,0.3,0.2,0.4c0.1,0.1,0.2,0.1,0.3,0.1
		c0.2,0,0.4-0.1,0.6-0.1l0.1,0.3l-2.1,0.9h-0.4L244.2,61z M244.2,60.4v-3.7c0-0.3-0.1-0.7-0.3-1c-0.1-0.3-0.4-0.5-0.6-0.7
		c-0.2-0.1-0.5-0.2-0.8-0.2c-0.5,0-0.9,0.2-1.2,0.6c-0.5,0.6-0.7,1.3-0.7,2.4c0,1.1,0.2,1.9,0.7,2.4c0.4,0.5,0.9,0.8,1.5,0.8
		C243.3,61.1,243.8,60.8,244.2,60.4 M248.6,60.3c0.5,0,0.9,0.4,0.9,0.9c0,0,0,0,0,0c0,0.2-0.1,0.5-0.3,0.6c-0.3,0.3-0.9,0.3-1.2,0
		c0,0,0,0,0,0c-0.3-0.3-0.3-0.9,0-1.2c0,0,0,0,0,0C248.2,60.4,248.4,60.3,248.6,60.3"/>
</g>
</svg>
