<?xml version="1.0" encoding="utf-8"?>
<!-- Generator: Adobe Illustrator 25.4.1, SVG Export Plug-In . SVG Version: 6.00 Build 0)  -->
<svg version="1.1" id="Layer_1" xmlns="http://www.w3.org/2000/svg" xmlns:xlink="http://www.w3.org/1999/xlink" x="0px" y="0px"
	 viewBox="0 0 164 74.9" style="enable-background:new 0 0 164 74.9;" xml:space="preserve">
<style type="text/css">
	.st0{clip-path:url(#SVGID_00000170962140946097348660000002342973726690340512_);}
	.st1{fill:url(#SVGID_00000162316461949159066220000000751666790260085425_);}
	.st2{clip-path:url(#SVGID_00000118368697055352302230000012120884477340575934_);}
	.st3{fill:url(#SVGID_00000172415683364378830340000012761597734911530628_);}
	.st4{clip-path:url(#SVGID_00000123407709807588726890000002615211838789507239_);}
	.st5{fill:url(#SVGID_00000065758100540795237200000010336034558687753368_);}
	.st6{clip-path:url(#SVGID_00000103961295656932490880000014228373742766022282_);}
	.st7{fill:url(#SVGID_00000069365927807382307050000002806944956722481824_);}
	.st8{clip-path:url(#SVGID_00000178194958115906278940000003272360672223540366_);}
	.st9{fill:url(#SVGID_00000132055372419338719980000007500806658930763174_);}
	.st10{clip-path:url(#SVGID_00000029021812165096674720000007563974032582142397_);}
	.st11{fill:url(#SVGID_00000141432071165637225760000016677839366029741238_);}
	.st12{clip-path:url(#SVGID_00000008144817416607959740000017747094018926955186_);}
	.st13{fill:url(#SVGID_00000176730557708924113960000017640708014409990535_);}
	.st14{clip-path:url(#SVGID_00000119107389572848247000000002442694270716116864_);}
	.st15{fill:url(#SVGID_00000107575350794576715350000011759326125790044343_);}
	.st16{clip-path:url(#SVGID_00000102514905561774551140000012441176413418251933_);}
	.st17{fill:url(#SVGID_00000183227814667537268780000002360101958368659859_);}
	.st18{clip-path:url(#SVGID_00000170266086735200264960000006046996248128050825_);}
	.st19{fill:url(#SVGID_00000050645753745007876080000017709496901381777335_);}
	.st20{clip-path:url(#SVGID_00000150087507254349063970000017515785272377726115_);}
	.st21{fill:url(#SVGID_00000124123764491216952180000006459796846058603176_);}
	.st22{clip-path:url(#SVGID_00000035521285241911098900000016219996749987930008_);}
	.st23{fill:url(#SVGID_00000061441864023919121640000001566583577845180079_);}
	.st24{clip-path:url(#SVGID_00000006695554277757617480000004800125175638164118_);}
	.st25{fill:url(#SVGID_00000075879252912884307830000004627925820662612619_);}
	.st26{fill:#231F20;}
</style>
<g>
	<g>
		<defs>
			<path id="SVGID_1_" d="M149.3,45.8l-0.1,0.1l0,0c-0.2,0.1-0.4,0.3-0.2,0.5c0,0.1,0.1,0.1,0.2,0.2c-0.1,0.2-0.3,0.4-0.4,0.5
				c-0.7,0.9-0.8,1-0.7,1.3c0,0.1,0.1,0.1,0.2,0.2c-1,0.7-1.4,1.1-1.2,1.4c0,0.1,0.1,0.1,0.2,0.2c-1.3,0.9-1.3,1-1.2,1.2
				c0,0.1,0.1,0.1,0.2,0.2c-1.7,1.1-2.3,1.5-2.4,1.8c-0.6,0.3-0.9,0.6-1,0.8c0,0.1,0,0.2,0,0.3s0.1,0.1,0.2,0.2h0.1
				c0.2,0,0.8-0.3,5.1-2.5c1-0.5,2-1,2.1-1.1l0,0c0.1-0.1,0.2-0.2,0.2-0.3v-0.1c0-0.1,0-0.2,0-0.3c-0.1-0.1-0.2-0.2-0.3-0.2
				c-0.2,0-0.5,0-0.7,0.1c1.4-0.9,1.3-1,1.2-1.2c0-0.1-0.1-0.1-0.2-0.2c-0.1,0-0.2,0-0.2,0c0.8-0.5,0.7-0.6,0.6-0.8
				c-0.1-0.1-0.1-0.2-0.2-0.2c-0.1,0-0.1,0-0.2,0c0.7-0.5,0.8-0.7,0.7-1c0-0.1-0.1-0.1-0.2-0.2c-0.2-0.1-0.3,0-1.3,0.6l-0.5,0.3
				c0.9-1.1,1-1.4,0.9-1.6c0-0.1-0.1-0.2-0.2-0.2c-0.1,0-0.1,0-0.2,0h-0.1C149.6,45.6,149.4,45.7,149.3,45.8"/>
		</defs>
		<clipPath id="SVGID_00000170987797554991501690000009957109855295634321_">
			<use xlink:href="#SVGID_1_"  style="overflow:visible;"/>
		</clipPath>
		<g style="clip-path:url(#SVGID_00000170987797554991501690000009957109855295634321_);">
			
				<linearGradient id="SVGID_00000029040779331576854650000012349999182027255440_" gradientUnits="userSpaceOnUse" x1="-154.5213" y1="938.8073" x2="-154.1756" y2="938.8073" gradientTransform="matrix(1.445083e-14 236 -236 1.445083e-14 221705.625 36469.1445)">
				<stop  offset="0" style="stop-color:#BBBDBF"/>
				<stop  offset="0.13" style="stop-color:#C1C3C4"/>
				<stop  offset="0.3" style="stop-color:#D0D2D3"/>
				<stop  offset="0.37" style="stop-color:#C7C9CA"/>
				<stop  offset="0.47" style="stop-color:#AFB1B3"/>
				<stop  offset="0.58" style="stop-color:#929496"/>
				<stop  offset="0.81" style="stop-color:#CED0D1"/>
				<stop  offset="0.82" style="stop-color:#D0D2D3"/>
				<stop  offset="1" style="stop-color:#595A5C"/>
			</linearGradient>
			
				<rect x="142.8" y="45.6" style="fill:url(#SVGID_00000029040779331576854650000012349999182027255440_);" width="8.6" height="9.1"/>
		</g>
	</g>
</g>
<g>
	<g>
		<defs>
			<path id="SVGID_00000115512973775121981050000017988892197402515624_" d="M125.1,56.6l-0.2,0.1c-0.9,0.5-2.2,1.3-3.2,1.8
				C122.3,58.1,123.4,57.5,125.1,56.6 M113.5,57.7c-0.6,0.3-1.1,0.7-1.5,0.9c0-0.2,0.1-0.3,0.1-0.5c0.1-0.5,0.1-0.5,0.1-0.7
				c0-0.1-0.1-0.1-0.2-0.2c-0.1,0-0.2,0-0.4,0.1c-0.1,0-0.2,0.1-0.3,0.1h-0.1c-0.2,0.1-0.2,0.3-0.1,0.5c0,0.1,0.1,0.1,0.2,0.2h0.1
				c-0.3,1-0.2,1.1-0.2,1.2c0,0.1,0.1,0.1,0.2,0.2c0.2,0.1,0.2,0.1,2.4-1.3c2.7-1.6,10.5-6.1,12.7-6.8c-1,0.8-3.8,2.2-6,3.4
				c-6,3.2-7,3.8-6.7,4.5c0.1,0.1,0.2,0.2,0.3,0.3c0.1,0,0.1,0,0.2,0c0.3,0,0.7-0.1,1-0.2c0,0,0.1,0.1,0.2,0.1
				c0.2,0.1,0.2,0.1,2.3-1.1c1.2-0.7,3.3-1.8,5.1-2.8c-5.1,3.3-5,3.4-4.8,3.7c0.1,0.1,0.1,0.1,0.2,0.2c0.2,0,0.3,0,0.5-0.1
				c0,0,0.1,0.1,0.2,0.1c0.2,0.1,0.5,0,1.2-0.3v0.1c0.1,0.1,0.2,0.2,0.3,0.2c0.4,0.1,1.2-0.2,2.9-1.3c-0.6,0.5-0.7,0.7-0.6,1
				c0,0.1,0.1,0.2,0.2,0.2c0.2,0.1,0.4,0,2.8-1.2c-0.8,0.6-0.8,0.8-0.7,1.1c0.1,0.1,0.1,0.2,0.3,0.2c0.3,0.1,0.8-0.2,2.3-1.2
				c0,0,0.1,0,0.1-0.1c-0.6,0.5-0.7,0.8-0.5,1c0,0.1,0.1,0.1,0.2,0.2c0.2,0,0.2,0.1,1.5-0.6c-0.1,0.1-0.1,0.3-0.1,0.5
				c0,0.1,0.1,0.2,0.2,0.2c0.2,0.1,0.3,0,1.7-0.8c0.4-0.2,1-0.6,1.5-0.9c0,0.1-0.1,0.1-0.1,0.2c-0.6,0.9-0.7,1.1-0.6,1.3
				c0,0.1,0.1,0.1,0.2,0.2c0.2,0.1,0.2,0.1,3.5-1.7c0.1,0,0.2-0.1,0.3-0.1c-0.1,0.2-0.2,0.5-0.3,0.7c-0.4,0.8-0.4,0.8-0.3,1
				c0.1,0.1,0.1,0.2,0.2,0.2c0.4,0.1,1.5-0.4,7-3.5c2.4-1.4,5.5-3.1,7-3.8c-0.4,0.3-0.9,0.6-1.5,1c-1.4,0.7-3.5,1.8-6.3,3.5
				c-0.9,0.4-1.8,0.9-2.6,1.4c-1.6,0.8-1.5,0.9-1.4,1.1c0.1,0.1,0.1,0.2,0.2,0.2c0.1,0,0.2,0,0.5-0.1c0.1,0.3,0.3,0.1,3.3-1.4
				c1.4-0.7,3-1.5,4.5-2.3c-0.5,0.3-1.1,0.6-1.5,0.8c-3.6,2-4,2.3-3.8,2.8c0,0.1,0.1,0.2,0.2,0.2c0.2,0.1,0.5,0,1.6-0.6
				c-0.1,0.1-0.1,0.3,0,0.4c0.1,0.1,0.1,0.2,0.3,0.2c0.4,0.1,1.2-0.3,3.3-1.5c-1,0.9-0.9,1.1-0.8,1.3c0.1,0.1,0.1,0.2,0.2,0.2
				c0.1,0,0.3,0,0.6-0.2c0.1,0.1,0.1,0.1,0.2,0.2c0.1,0,0.2,0,0.5-0.2l0.1-0.1v0.1c0,0.1,0.1,0.2,0.2,0.2c0.2,0,0.3,0,0.8-0.3v0.1
				c0,0.1,0.1,0.1,0.2,0.2c0.2,0,0.3,0,0.6-0.2l0.1-0.1l-0.1-0.2c0.1-0.1,0.1-0.1,0.1-0.2c0.2-0.3,0.3-0.5,0.2-0.7l0,0
				c0.1-0.1,0.2-0.3,0.1-0.5c0.1-0.1,0.2-0.3,0.1-0.5c-0.1-0.1-0.1-0.2-0.2-0.2c-0.3-0.1-0.6,0.1-1.6,0.7c0.5-0.4,1.1-0.9,1.9-1.5
				c0.2-0.2,0.4-0.3,0.3-0.6c-0.1-0.1-0.1-0.1-0.2-0.2h-0.1c0.6-0.4,0.6-0.6,0.5-0.8c-0.1-0.1-0.1-0.2-0.2-0.2c-0.1,0-0.2,0-0.2,0
				c0.7-0.5,0.9-0.9,0.8-1.2l0.1-0.1c0-0.1,0-0.2,0-0.3c-0.1-0.1-0.2-0.2-0.3-0.2l0,0c0.6-0.5,0.7-0.9,0.6-1.1
				c-0.1-0.1-0.1-0.2-0.2-0.2c-0.5-0.2-2.4,0.8-8.3,4.1c-2.2,1.2-4.8,2.7-6,3.3c0.7-1.4,0.7-1.6,0.6-1.8c0-0.1-0.1-0.1-0.2-0.2
				c-0.1,0-0.1,0-1.3,0.6c-0.6,0.3-1.5,0.8-2.2,1.1c0.6-0.9,0.7-1.1,0.6-1.3c-0.1-0.1-0.1-0.2-0.3-0.2c-0.2-0.1-0.5,0-1.4,0.5
				c0.1-0.1,0.1-0.2,0-0.3c0-0.1-0.1-0.1-0.2-0.2c-0.1-0.1-0.2-0.1-1.2,0.5l-1.2,0.6c0,0,0,0,0.1-0.1c0.9-0.8,1-0.9,0.8-1.1
				c-0.1-0.1-0.1-0.2-0.3-0.2c-0.3-0.1-0.7,0.1-1.8,0.8c0.8-0.6,0.9-0.8,0.8-1.1c0-0.1-0.1-0.1-0.2-0.2c-0.2-0.1-0.2-0.1-2.1,1
				l-0.8,0.4v-0.1c2.1-1.4,2.4-1.7,2.2-2.1c0-0.1-0.1-0.2-0.2-0.2h-0.1c0.2-0.1,0.2-0.2,0.1-0.4l0,0c0-0.1,0-0.2,0-0.2
				c-0.1-0.1-0.1-0.2-0.2-0.2c-0.4-0.1-1.2,0.3-4.7,2.3c1.4-0.9,2.9-1.9,3.7-2.4c1.3-0.8,1.3-0.8,1.2-1.1c0-0.1-0.1-0.1-0.2-0.2
				c0.3-0.3,0.3-0.4,0.2-0.6c0-0.1-0.1-0.1-0.2-0.2c-0.2,0-0.2,0-1.7,0.9c-2,1.2-3.7,2.2-5.2,3.1l-0.3,0.1c-1.9,1-3.1,1.6-3.8,2
				c-0.5,0.3-1,0.5-1.6,0.6c0.9-0.7,3.9-2.3,6.2-3.5c6-3.1,7-3.8,6.7-4.5c-0.1-0.1-0.2-0.2-0.3-0.2c-0.1,0-0.1,0-0.2,0
				C125.9,50.8,122.1,52.7,113.5,57.7"/>
		</defs>
		<clipPath id="SVGID_00000130638616221217920050000006586682032111889833_">
			<use xlink:href="#SVGID_00000115512973775121981050000017988892197402515624_"  style="overflow:visible;"/>
		</clipPath>
		<g style="clip-path:url(#SVGID_00000130638616221217920050000006586682032111889833_);">
			
				<linearGradient id="SVGID_00000125598182786923494100000005717389459026003123_" gradientUnits="userSpaceOnUse" x1="-154.5254" y1="938.6639" x2="-154.1797" y2="938.6639" gradientTransform="matrix(1.447961e-14 236.47 -236.47 1.447961e-14 222096.5938 36542.6719)">
				<stop  offset="0" style="stop-color:#BBBDBF"/>
				<stop  offset="0.13" style="stop-color:#C1C3C4"/>
				<stop  offset="0.3" style="stop-color:#D0D2D3"/>
				<stop  offset="0.37" style="stop-color:#C7C9CA"/>
				<stop  offset="0.47" style="stop-color:#AFB1B3"/>
				<stop  offset="0.58" style="stop-color:#929496"/>
				<stop  offset="0.81" style="stop-color:#CED0D1"/>
				<stop  offset="0.82" style="stop-color:#D0D2D3"/>
				<stop  offset="1" style="stop-color:#595A5C"/>
			</linearGradient>
			
				<rect x="111" y="50.7" style="fill:url(#SVGID_00000125598182786923494100000005717389459026003123_);" width="39.5" height="8.9"/>
		</g>
	</g>
</g>
<g>
	<g>
		<defs>
			<path id="SVGID_00000170967573872539140100000004180382433872455069_" d="M134.9,34.2c-2.4,1.4-6.3,3.6-7,3.7
				c-0.1-0.1-0.2-0.1-0.3,0c-0.2,0.1-0.2,0.3-0.1,0.5c0.1,0.1,0.1,0.2,0.3,0.2c0.2,0.1,0.8-0.1,1.7-0.5c-0.1,0.1-0.1,0.3,0,0.4
				c0,0.1,0.1,0.2,0.2,0.2c0.2,0.1,0.5,0,2-0.8c-0.4,0.4-0.5,0.7-0.4,0.9c0,0.1,0.1,0.1,0.2,0.2c0.1,0,0.1,0,0.3-0.1l0,0
				c0.1,0.1,0.1,0.2,0.3,0.2h0.1h0.1c0.2,0.1,0.4,0,1.9-0.9c-1.1,0.8-1.1,1-1,1.2s0.3,0.2,0.4,0.2l0,0c0.1,0.1,0.1,0.2,0.2,0.2
				c0.1,0,0.3,0,0.7-0.2c-0.3,0.3-0.3,0.3-0.2,0.5c0.1,0.1,0.2,0.2,0.3,0.2s0.2,0,0.2,0c0,0.1,0,0.2,0.1,0.3c0,0,0,0.1,0.1,0.1
				c0,0,0,0,0,0.1s0.1,0.1,0.2,0.2c0.1,0,0.1,0,0.5-0.1c-0.3,0.3-0.3,0.5-0.2,0.6s0.1,0.2,0.3,0.2c0.3,0.1,0.7-0.1,1.9-0.8l-0.4,0.3
				c-1.2,1-1.3,1.1-1.1,1.4c0.1,0.1,0.1,0.2,0.2,0.2c0.2,0,0.3,0,0.5-0.1c-0.5,0.5-0.4,0.5-0.3,0.7l0,0v0.1c0,0.1,0,0.2,0.1,0.2
				l0.1,0.1c-0.1,0.1-0.1,0.2,0,0.3l0,0v0.1c0,0.1,0.1,0.2,0.2,0.2h0.1c-0.2,0.2-0.2,0.3-0.1,0.5c0,0.1,0.1,0.2,0.2,0.2h0.1
				c-0.2,0.2-0.2,0.4-0.1,0.6c0,0,0,0.1,0.1,0.1c-0.1,0.1-0.1,0.2,0,0.3c0.1,0.3,0.2,0.3,0.9-0.1c-0.8,1-0.9,1.1-0.8,1.4
				c0,0.1,0.1,0.2,0.2,0.2c0.2,0,0.3,0,1.2-0.5c0,0,0,0,0,0.1c-0.2,0.6-0.2,0.6-0.1,0.8c0,0.1,0.1,0.2,0.2,0.2h0.1
				c0.1,0,0.2-0.1,0.3-0.1l0.2-0.1h0.1c0.2-0.1,0.2-0.3,0.1-0.5c0-0.1-0.1-0.1-0.2-0.2c0.2-0.8,0.3-0.9,0.2-1c0-0.1-0.1-0.2-0.2-0.2
				c-0.1,0-0.2,0-0.5,0.1l-0.2,0.2c0.1-0.1,0.1-0.2,0.2-0.2c0.8-1,0.8-1,0.7-1.2v-0.1c0.1-0.1,0.1-0.3,0.1-0.4
				c0-0.1-0.1-0.1-0.2-0.2h-0.1c0.4-0.3,0.4-0.4,0.3-0.7c0-0.1-0.1-0.2-0.2-0.2c0,0,0,0-0.1,0c0.3-0.3,0.4-0.4,0.3-0.5
				c0-0.1,0-0.2,0-0.2s0-0.1-0.1-0.1c0.1-0.1,0.1-0.3,0.1-0.4l0,0c0.1-0.1,0.1-0.2,0-0.3v-0.1c0-0.1-0.1-0.2-0.2-0.2
				c-0.1,0-0.2,0-0.3,0l0,0c0.7-0.6,0.7-0.6,0.6-0.8c0-0.1-0.1-0.2-0.2-0.2c-0.2-0.1-0.3,0-0.9,0.3c1.1-1,1.2-1.3,1.1-1.6
				c-0.1-0.1-0.1-0.2-0.2-0.2c-0.1,0-0.2,0-0.3,0c0.6-0.5,0.7-0.5,0.6-0.7c0.1-0.1,0-0.2,0-0.3s-0.1-0.1-0.2-0.2c0,0,0,0-0.1,0
				c0.4-0.3,0.4-0.4,0.3-0.6c0-0.1-0.1-0.1-0.2-0.2l0,0c0.3-0.3,0.3-0.5,0.3-0.7v-0.1c0.2-0.2,0.1-0.3,0-0.4
				c-0.1-0.1-0.1-0.1-0.2-0.2c-0.3-0.1-0.6,0.1-2.7,1.3c0.5-0.3,1-0.7,1.4-0.9c1.5-1,1.6-1.1,1.5-1.3c0-0.1,0-0.2,0-0.3l0,0v-0.1
				c0-0.1,0-0.2,0-0.3c-0.1-0.1-0.2-0.2-0.3-0.2c-0.2,0-0.4,0-0.6,0.1c0.9-0.6,1.1-0.8,0.9-1.1c0-0.1-0.1-0.1-0.2-0.2
				c-0.1,0-0.2-0.1-1.3,0.6c1.6-0.9,1.7-1.1,1.5-1.5c0-0.1-0.1-0.2-0.2-0.2h-0.1C139,32,138.3,32.3,134.9,34.2"/>
		</defs>
		<clipPath id="SVGID_00000034079202297551332740000000697555112440937395_">
			<use xlink:href="#SVGID_00000170967573872539140100000004180382433872455069_"  style="overflow:visible;"/>
		</clipPath>
		<g style="clip-path:url(#SVGID_00000034079202297551332740000000697555112440937395_);">
			
				<linearGradient id="SVGID_00000009550477785578815320000018145783522653836205_" gradientUnits="userSpaceOnUse" x1="-154.5267" y1="938.6983" x2="-154.181" y2="938.6983" gradientTransform="matrix(1.449186e-14 236.67 -236.67 1.449186e-14 222295.2812 36573.7773)">
				<stop  offset="0" style="stop-color:#BBBDBF"/>
				<stop  offset="0.13" style="stop-color:#C1C3C4"/>
				<stop  offset="0.3" style="stop-color:#D0D2D3"/>
				<stop  offset="0.37" style="stop-color:#C7C9CA"/>
				<stop  offset="0.47" style="stop-color:#AFB1B3"/>
				<stop  offset="0.58" style="stop-color:#929496"/>
				<stop  offset="0.81" style="stop-color:#CED0D1"/>
				<stop  offset="0.82" style="stop-color:#D0D2D3"/>
				<stop  offset="1" style="stop-color:#595A5C"/>
			</linearGradient>
			
				<rect x="127.3" y="31.9" style="fill:url(#SVGID_00000009550477785578815320000018145783522653836205_);" width="12.5" height="16.5"/>
		</g>
	</g>
</g>
<g>
	<g>
		<defs>
			<path id="SVGID_00000029041050329553426720000004765193552272886707_" d="M137.7,26.3c0,0-0.1,0.1-0.2,0.1h-0.1
				c-0.2,0.1-0.2,0.3-0.1,0.5c0,0,0,0.1,0.1,0.1c-0.2,0.3-0.3,0.5-0.2,0.7c0,0.1,0.1,0.2,0.2,0.2c0.1,0,0.2,0,0.3,0l-0.1,0.1
				c-0.5,0.5-0.7,0.7-0.7,0.8c0,0.1,0,0.2,0,0.3c0,0.1,0.1,0.1,0.2,0.2c-0.4,0.3-0.5,0.4-0.5,0.6c-0.1,0.1-0.1,0.2-0.1,0.3
				c-0.1,0.1-0.1,0.2,0,0.3l0,0c-0.3,0.2-0.3,0.3-0.2,0.5c-0.3,0.3-0.3,0.4-0.2,0.6c0,0.1,0.1,0.1,0.2,0.2c0.1,0,0.2,0,0.3,0
				c-1.4,1-1.5,1.1-1.3,1.4c0,0,0,0.1,0.1,0.1c-1.2,0.7-1.4,0.9-1.2,1.2c0,0.1,0.1,0.2,0.2,0.2h0.1c0.3,0,0.8-0.3,2.9-1.5
				c0.7-0.4,1.6-0.9,1.9-1c0.1,0,0.1,0,0.2,0c0.2-0.1,0.2-0.3,0.1-0.5c0-0.1-0.1-0.1-0.1-0.1c0.2-0.2,0.2-0.4,0.1-0.6
				c0-0.1-0.1-0.1-0.2-0.2c-0.1,0-0.2-0.1-0.6,0.1c0.8-0.6,0.9-0.8,0.8-1.1c0,0,0,0,0-0.1c0.1-0.1,0.1-0.2,0-0.3c0,0,0-0.1-0.1-0.1
				c0.1-0.1,0.2-0.2,0.1-0.3c0-0.1,0-0.2,0-0.2c0-0.1,0-0.2,0-0.3c0-0.1-0.1-0.1-0.2-0.2c0.1-0.1,0.2-0.3,0.2-0.4s0-0.2,0-0.3
				c0-0.1-0.1-0.1-0.2-0.2c-0.1,0-0.2,0-0.3,0c0.7-0.7,0.7-0.8,0.6-1c0-0.1-0.1-0.2-0.2-0.2c-0.2,0-0.3,0-1,0.4
				c0.1-0.1,0.1-0.2,0-0.3c-0.1-0.1-0.2-0.2-0.3-0.2C137.9,26.2,137.8,26.2,137.7,26.3"/>
		</defs>
		<clipPath id="SVGID_00000075164441821073630320000007728455062903895990_">
			<use xlink:href="#SVGID_00000029041050329553426720000004765193552272886707_"  style="overflow:visible;"/>
		</clipPath>
		<g style="clip-path:url(#SVGID_00000075164441821073630320000007728455062903895990_);">
			
				<linearGradient id="SVGID_00000173118633425437486210000011218179373688927127_" gradientUnits="userSpaceOnUse" x1="-154.5271" y1="938.7151" x2="-154.1814" y2="938.7151" gradientTransform="matrix(1.449063e-14 236.65 -236.65 1.449063e-14 222283.7969 36570.8789)">
				<stop  offset="0" style="stop-color:#BBBDBF"/>
				<stop  offset="0.13" style="stop-color:#C1C3C4"/>
				<stop  offset="0.3" style="stop-color:#D0D2D3"/>
				<stop  offset="0.37" style="stop-color:#C7C9CA"/>
				<stop  offset="0.47" style="stop-color:#AFB1B3"/>
				<stop  offset="0.58" style="stop-color:#929496"/>
				<stop  offset="0.81" style="stop-color:#CED0D1"/>
				<stop  offset="0.82" style="stop-color:#D0D2D3"/>
				<stop  offset="1" style="stop-color:#595A5C"/>
			</linearGradient>
			
				<rect x="134" y="26.2" style="fill:url(#SVGID_00000173118633425437486210000011218179373688927127_);" width="5.7" height="8.4"/>
		</g>
	</g>
</g>
<g>
	<g>
		<defs>
			<path id="SVGID_00000101082159680981342870000004662891247299311786_" d="M147.3,15.6c-0.3,0-1.1,0.3-3.5,1.6l-0.6,0.3
				c1.1-1,1.4-1.3,1.2-1.7c0-0.1-0.1-0.1-0.2-0.2c-0.2-0.1-0.2-0.1-1.4,0.6c-0.4,0.3-1.1,0.6-1.8,1c1.1-0.8,1.4-1.1,1.2-1.5
				c0-0.1-0.1-0.1-0.2-0.2c-0.2,0-0.1,0-1.7,0.8c-0.4,0.2-1.1,0.6-1.7,0.9c1-0.9,1.1-1.2,1-1.5c-0.1-0.1-0.1-0.2-0.2-0.2
				c-0.3-0.1-0.5,0.1-2.1,1c-0.4,0.3-1,0.6-1.5,0.9c0,0,0,0,0-0.1c0.9-1.2,1-1.4,0.9-1.7c0-0.1-0.1-0.1-0.2-0.2
				c-0.2,0-0.2-0.1-1.7,0.8c-0.2,0.1-0.5,0.2-0.7,0.4c0.8-0.7,0.8-0.8,0.7-1c-0.1-0.1-0.2-0.2-0.3-0.2c-0.2,0-0.4,0-0.5,0.1
				c0,0-0.1,0-0.1-0.1c-0.3-0.1-0.5,0.1-2.2,1.1h-0.1c-0.5,0.2-0.9,0.5-1.4,0.8c-0.3,0.1-0.5,0.3-0.8,0.4c-0.1,0-0.2,0-0.3,0
				c-0.2,0.1-0.2,0.3-0.2,0.5c0.1,0.1,0.1,0.2,0.3,0.2c0.3,0,0.5,0,0.7-0.1c0,0,0.1,0,0.1,0.1c0.3,0.1,0.8-0.2,2.4-1.2
				c0,0,0.1,0,0.1-0.1c-0.7,0.7-0.7,0.7-0.6,1c0,0.1,0.1,0.1,0.2,0.2c0.2,0.1,0.3,0.1,3-1.4c0.1-0.1,0.2-0.1,0.3-0.2
				c-0.1,0.1-0.1,0.2-0.2,0.2c-0.7,0.9-0.8,1-0.7,1.3c0.1,0.1,0.2,0.2,0.3,0.2c0.3,0.1,0.9-0.2,2.8-1.3c0,0,0.1,0,0.1-0.1
				c-1,0.9-1.2,1.1-1,1.4c0,0.1,0.1,0.1,0.2,0.2c0.2,0,0.2,0.1,2.2-1c-0.8,0.6-1,0.8-0.8,1.1c0.1,0.1,0.1,0.2,0.2,0.2
				c0.3,0.1,1-0.2,3.8-1.8c-0.2,0.2-0.4,0.4-0.6,0.5c-1.4,1.2-1.6,1.4-1.4,1.7c0,0.1,0.1,0.1,0.2,0.2c0.1,0.1,0.1,0.1,0.2,0.1h0.1
				l0.1,0.1c0.2,0.1,0.2,0.1,2.5-1.2l1-0.5l0,0c-2.7,1.8-2.7,1.8-2.6,2.1c0,0.1,0.1,0.1,0.2,0.2c0.2,0.1,0.2,0.1,3-1.4
				c-1.9,1.4-2.3,1.8-2,2.2c0.1,0.1,0.1,0.2,0.3,0.2c0.3,0.1,0.7-0.1,1.7-0.7c-1.1,0.9-1.3,1.1-1.2,1.4c0,0.1,0.1,0.1,0.2,0.2
				c0.2,0.1,0.2,0.1,1.6-0.7l0.1-0.1c-1.5,1.2-1.5,1.3-1.3,1.5c0,0.1,0.1,0.1,0.1,0.1c0,0.1,0,0.1,0,0.2s0.1,0.2,0.2,0.2h0.1
				c-0.1,0.1-0.1,0.2,0,0.3c0,0.1,0.1,0.1,0.1,0.1c0,0.1,0,0.1,0.1,0.2c0,0.1,0.1,0.1,0.2,0.2c0.2,0,0.2,0,0.8-0.3
				c0.2-0.1,0.5-0.3,0.8-0.5l-0.3,0.2c-1.1,1-1.3,1.2-1.2,1.6c0,0.1,0.1,0.2,0.2,0.2c0.2,0.1,0.2,0,1.5-0.6
				c-0.2,0.3-0.4,0.5-0.6,0.7c-0.8,1-0.8,1-0.6,1.2c0,0,0,0.1,0.1,0.1c-0.1,0.1-0.1,0.2,0,0.3c0,0,0,0.1,0.1,0.1
				c-0.1,0.1,0,0.2,0,0.3c0,0.1,0.1,0.1,0.2,0.2c0.2,0,0.2,0,0.7-0.3c0.1-0.1,0.3-0.2,0.6-0.3c-0.2,0.3-0.4,0.7-0.6,0.9
				c-0.3,0.5-0.3,0.6-0.2,0.7c0,0.1,0.1,0.1,0.2,0.2h0.1c0.1,0,0.2-0.1,0.5-0.2l0,0c0,0.1,0.1,0.2,0.2,0.2c0.2,0.1,0.3,0,0.5-0.2
				h0.1c0,0,0,0,0.1,0c0.2-0.1,0.2-0.3,0.2-0.5l0,0c0.1-0.1,0.1-0.2,0-0.4c0-0.1-0.1-0.1-0.2-0.2c-0.1,0-0.2,0-0.3,0.1
				c0.6-1,0.7-1.2,0.6-1.4c0,0,0-0.1-0.1-0.1c0.1-0.1,0.2-0.3,0.1-0.4c0,0,0,0,0-0.1c0.1-0.1,0.1-0.3,0-0.4c0-0.1-0.1-0.1-0.2-0.2
				c-0.1,0-0.2-0.1-0.9,0.3c1.2-1.5,1.2-1.6,1.1-1.8c0-0.1-0.1-0.1-0.2-0.2c-0.1,0-0.2,0-0.8,0.3c1-0.9,1.1-1.2,1-1.5l0,0
				c0.1-0.1,0.1-0.2,0-0.3c0-0.1-0.1-0.1-0.1-0.1c0.2-0.3,0.2-0.4,0.1-0.5l0,0c0.1-0.1,0.1-0.3,0-0.4s-0.1-0.1-0.2-0.1
				c-0.2-0.1-0.2,0-1,0.4c1.4-1.1,1.4-1.1,1.2-1.4c0-0.1-0.1-0.2-0.2-0.2c-0.2,0-0.3,0-1,0.3c1.1-0.9,1.4-1.2,1.2-1.5
				c0-0.1-0.1-0.2-0.2-0.2c-0.2-0.1-0.5,0.1-2.2,1.1c-0.4,0.2-0.9,0.6-1.4,0.8c0.6-0.5,1.4-1,1.9-1.4c1.8-1.3,2.1-1.5,1.9-1.9
				c0-0.1-0.1-0.1-0.2-0.2c-0.1,0-0.2-0.1-0.9,0.3c1.3-0.9,1.3-1,1.1-1.3c0-0.1-0.1-0.1-0.2-0.2c-0.1,0-0.3,0-0.4,0
				c0,0-0.1,0-0.1-0.1l0,0h-0.1h-0.1C147.4,15.7,147.4,15.7,147.3,15.6"/>
		</defs>
		<clipPath id="SVGID_00000157991885249923753630000001853225555345197471_">
			<use xlink:href="#SVGID_00000101082159680981342870000004662891247299311786_"  style="overflow:visible;"/>
		</clipPath>
		<g style="clip-path:url(#SVGID_00000157991885249923753630000001853225555345197471_);">
			
				<linearGradient id="SVGID_00000063633849873322539000000002868474316372642451_" gradientUnits="userSpaceOnUse" x1="-154.5261" y1="938.7366" x2="-154.1803" y2="938.7366" gradientTransform="matrix(1.448451e-14 236.55 -236.55 1.448451e-14 222196.9531 36555.1641)">
				<stop  offset="0" style="stop-color:#BBBDBF"/>
				<stop  offset="0.13" style="stop-color:#C1C3C4"/>
				<stop  offset="0.3" style="stop-color:#D0D2D3"/>
				<stop  offset="0.37" style="stop-color:#C7C9CA"/>
				<stop  offset="0.47" style="stop-color:#AFB1B3"/>
				<stop  offset="0.58" style="stop-color:#929496"/>
				<stop  offset="0.81" style="stop-color:#CED0D1"/>
				<stop  offset="0.82" style="stop-color:#D0D2D3"/>
				<stop  offset="1" style="stop-color:#595A5C"/>
			</linearGradient>
			
				<rect x="129" y="15.6" style="fill:url(#SVGID_00000063633849873322539000000002868474316372642451_);" width="19.6" height="13.6"/>
		</g>
	</g>
</g>
<g>
	<g>
		<defs>
			<path id="SVGID_00000156580359310746401300000016693332473553741963_" d="M129.1,36.5c-0.7,0.5-1.8,1.1-3,1.7
				C127.2,37.5,128.3,36.9,129.1,36.5 M125.7,35.9c-0.2,0.1-0.5,0.3-0.8,0.5C125.2,36.2,125.5,36,125.7,35.9 M121.8,33.8l1.5-0.8
				c0.2-0.1,0.4-0.2,0.6-0.3l-1,0.6c-0.2,0.1-0.3,0.2-0.5,0.3c-0.3,0.2-0.7,0.3-1.1,0.5L121.8,33.8 M120.5,31.2
				c-0.5,0.3-1,0.6-1.4,0.8C119.4,31.8,119.9,31.5,120.5,31.2 M121.7,18.8L121.7,18.8L121.7,18.8 M126,17.3
				c-0.3,0.1-0.6,0.3-0.9,0.5C125.4,17.6,125.7,17.4,126,17.3 M124.3,20.6c2.7-1.7,6.7-4.1,7.9-4.3c-0.9,0.8-4.8,2.9-7.7,4.4L122,22
				C122.7,21.6,123.4,21.1,124.3,20.6 M130.6,16.2c0.1-0.1,0-0.2,0-0.3c-0.1-0.1-0.2-0.2-0.3-0.2c-0.3-0.1-0.9,0.1-2,0.6
				c0-0.1,0-0.3,0-0.4c-0.1-0.1-0.1-0.2-0.2-0.2c-0.4-0.1-1.5,0.4-6.3,3.1c3.6-2.1,4-2.4,3.8-2.9c-0.1-0.1-0.2-0.2-0.3-0.2
				c-0.4-0.1-1.5,0.4-4.8,2.4c2.3-1.6,2.5-1.8,2.3-2.2c-0.1-0.1-0.2-0.2-0.3-0.2c-0.5-0.1-1.4,0.4-3.5,1.7c-0.4,0.2-0.8,0.5-1.2,0.8
				c0.4-0.3,0.8-0.6,1.1-0.9c1.4-1.1,1.4-1.1,1.2-1.4c-0.1-0.1-0.1-0.2-0.3-0.2c-0.1,0-0.3,0-0.4,0s-0.1,0-0.2,0s-0.2,0-0.8,0.4
				l-0.2,0.1c-0.3,0.2-0.8,0.4-1.3,0.7h-0.1l-0.4,0.2c0.8-0.8,1-0.9,0.8-1.2c-0.1-0.1-0.1-0.2-0.2-0.2c-0.2-0.1-0.6,0.1-1.7,0.7
				c0.2-0.2,0.2-0.3,0.2-0.5c0-0.1-0.1-0.1-0.2-0.2c-0.2-0.1-0.3,0-2.2,1c-0.3,0.1-0.5,0.3-0.8,0.4c-0.1-1.1-0.1-1.2-0.2-1.3
				c0-0.1-0.1-0.1-0.2-0.2c-0.2,0-0.3,0-0.6,0.2l0.2,0.3l-0.1,0.3c0.1,0,0.1,0,0.2,0c0,0.3,0.1,0.7,0.1,0.9c0,0.1,0,0.2,0.1,0.3
				c0,0.1,0.1,0.1,0.2,0.2c0.2,0.1,0.2,0.1,1.5-0.7l0,0c-0.3,0.3-0.3,0.5-0.2,0.6c0,0.1,0.1,0.2,0.2,0.2c0.2,0.1,0.4,0,1.6-0.8
				c0.1,0,0.2-0.1,0.2-0.1c-0.6,0.6-0.8,0.9-0.6,1.1c0,0.1,0.1,0.2,0.2,0.2l0,0l0,0h0.1c0,0,0.1,0.1,0.2,0.1
				c0.3,0.1,0.6-0.1,2.2-1.1c-1.5,1.2-1.6,1.5-1.4,1.8c0.1,0.1,0.2,0.2,0.3,0.2c0.4,0.1,1-0.2,3.1-1.6l0.7-0.4
				c-0.4,0.3-0.7,0.5-1,0.7c-2.6,1.8-2.7,1.9-2.5,2.2c0.1,0.1,0.1,0.2,0.2,0.2c0.2,0.1,0.5,0,1.2-0.4c-1.1,0.8-1.4,1.2-1.2,1.5
				c0,0.1,0.1,0.2,0.2,0.2s0.2,0,0.2,0c-0.2,0.1-0.3,0.3-0.4,0.6c-0.1,0.1,0,0.3,0,0.4s0.1,0.1,0.2,0.2c0.2,0.1,0.2,0.1,3.8-1.9
				c1.5-0.8,3.6-2,5.5-3l-4.6,2.7c-5,3-5,3-4.8,3.3c0.1,0.1,0.2,0.2,0.3,0.2c0.2,0.1,0.7,0,1.3-0.3c-1.5,0.9-1.8,1.4-1.6,1.8
				l0.1,0.1c0,0.1-0.1,0.1-0.1,0.2s0,0.3,0,0.4s0.1,0.1,0.2,0.2c0.2,0.1,0.2,0.1,2.4-1.3c1.9-1.2,6.2-3.7,7.5-4
				c-0.9,1-5.4,3.6-7.5,4.9c-0.6,0.3-1,0.6-1.4,0.8c-1.3,0.8-1.4,0.9-1.2,1.1l0,0c-0.1,0.1-0.1,0.3,0,0.4c0,0.1,0.1,0.1,0.2,0.2
				c0.2,0,0.1,0,1.6-0.8c1.5-0.9,5.5-3.1,7.6-4.1c-1.5,1.1-4.5,2.9-6.3,4c-3.2,1.9-3.2,1.9-3.1,2.3c0,0.1,0.1,0.1,0.2,0.2
				c0.2,0.1,0.2,0.1,3.1-1.6l2.3-1.3c-5.8,3.5-5.8,3.7-5.6,4.1c0,0.1,0.1,0.1,0.2,0.2c-0.3,0.3-0.3,0.4-0.2,0.6l0,0l0,0
				c0,0.1,0,0.2,0,0.3l0,0v0.1c0,0.1,0,0.2,0,0.3c0.1,0.1,0.2,0.2,0.3,0.2c-0.1,0.1-0.2,0.2-0.3,0.4c0,0.1,0,0.2,0,0.3
				c0.1,0.1,0.1,0.1,0.2,0.2c0.1,0,0.2,0,0.5-0.1c-0.9,0.6-0.8,0.6-0.7,0.8c0.1,0.1,0.1,0.2,0.2,0.2c0,0,0,0,0.1,0
				c-0.4,0.3-0.4,0.5-0.3,0.7l0,0c-0.1,0.1-0.1,0.2,0,0.3l0.1,0.1c0,0-0.1,0.1-0.1,0.2c0,0.1,0,0.2,0,0.3c0.1,0.1,0.1,0.1,0.2,0.2
				c-0.1,0.1-0.2,0.2-0.2,0.3s0,0.2,0,0.4c0.1,0.1,0.2,0.2,0.3,0.2c0.1,0,0.2,0,0.3,0c-0.7,0.5-0.7,0.7-0.6,0.9
				c0.1,0.1,0.2,0.2,0.3,0.2c0.4,0,0.8,0,1.1-0.2c-1.6,1.1-1.5,1.3-1.4,1.5c0.1,0.1,0.2,0.2,0.3,0.3c0.1,0,0.2,0,0.3,0
				c-0.6,0.4-0.7,0.7-0.6,1c0.1,0.1,0.1,0.2,0.3,0.2c0.2,0,0.5,0,1.1-0.3c-1.5,1-1.4,1.1-1.3,1.3c0.1,0.1,0.2,0.2,0.3,0.2
				c-0.4,0.3-0.4,0.4-0.3,0.6l0,0v0.1c0,0.1,0,0.2,0,0.2c0,0.1,0,0.1,0,0.2c0,0.1,0,0.1,0,0.2c0,0.1,0.1,0.1,0.1,0.1
				c-0.1,0.1-0.1,0.1-0.2,0.2c0,0.1,0,0.2,0,0.3c0.1,0.1,0.2,0.2,0.3,0.2c0.2,0,0.4,0,0.5-0.1c-0.9,0.6-0.9,0.9-0.8,1.1
				c0.1,0.1,0.1,0.2,0.3,0.2c0.1,0,0.2,0,0.2,0c-0.4,0.4-0.6,0.6-0.6,0.9c0,0.1,0,0.2,0.1,0.3c0,0.1,0.1,0.1,0.2,0.2
				c0.2,0.1,0.3,0.1,4.8-2.4c0.2-0.1,0.4-0.2,0.7-0.3c0.3-0.1,0.6-0.2,0.8-0.3c-0.7,0.5-1.5,0.9-2.1,1.3c-4.7,2.9-4.6,2.9-4.4,3.3
				c0,0,0,0.1,0.1,0.1c-0.2,0.2-0.1,0.2-0.1,0.3s0.1,0.1,0.2,0.2c0.1,0,0.3,0,0.4,0c-0.8,0.4-0.7,0.5-0.6,0.8c0,0.1,0.1,0.1,0.2,0.2
				c0.1,0,0.1,0,1.6-0.7c-1.9,1.2-1.9,1.4-1.8,1.7c0,0.1,0.1,0.2,0.2,0.2s0.3,0,0.7-0.2c-0.8,0.6-1.1,1-1,1.4l0,0c0,0.1,0,0.2,0,0.3
				l0,0l-0.1,0.1c-0.1,0.2,0,0.4,0.2,0.4l0,0c0.1,0,0.2,0.1,1-0.5c0.2-0.1,0.4-0.2,0.7-0.3c-2.3,1.5-2.4,1.7-2.2,2.1l0.1,0.1
				c-0.6,0.3-0.6,0.3-0.7,0.5c0,0.1,0,0.2,0,0.3c0.1,0.1,0.2,0.2,0.3,0.2h0.1c0.8,0,3.2-1.3,8.1-4.1c1.3-0.8,2.7-1.5,3-1.7h0.1
				c0.2-0.1,0.2-0.3,0.2-0.5c0,0,0,0,0-0.1c0,0,0-0.1,0.1-0.1c0-0.1,0-0.3,0-0.4c0-0.1-0.1-0.1-0.2-0.2c-0.2,0-0.2,0-1,0.4
				c-5.3,3.2-7.7,4.4-8.8,4.8c1.4-1,4.6-2.9,6.6-4c3.6-2.1,3.6-2.1,3.4-2.4l0,0c0-0.1,0-0.2,0-0.3s0-0.2,0-0.3
				c-0.1-0.1-0.1-0.2-0.2-0.2c-0.2-0.1-0.4,0-3.2,1.7c-0.2,0.1-0.5,0.3-0.8,0.5l-0.7,0.4c-0.2,0.1-0.5,0.2-0.7,0.4
				c-0.2,0.1-0.4,0.2-0.7,0.3c-1,0.5-1.8,0.8-2.4,1.1c1.2-0.7,2.8-1.6,4.1-2.3c4.1-2.2,5-2.7,4.7-3.3c-0.1-0.1-0.1-0.2-0.2-0.2
				c-0.2,0-0.4,0-0.6,0.1c1-0.6,0.9-0.8,0.8-1c0-0.1-0.1-0.1-0.2-0.2c0.3-0.3,0.3-0.5,0.2-0.7l-0.1-0.1c0.2-0.2,0.1-0.2,0.1-0.3
				c-0.1-0.1-0.2-0.2-0.3-0.2c-0.3-0.1-1.1,0.2-2.5,0.9c2.5-1.6,2.9-2,2.9-2.3v-0.1c0-0.1,0-0.1,0-0.2c-0.1-0.1-0.2-0.2-0.3-0.3
				c-0.2,0-0.3,0-0.5,0c0.9-0.6,1-0.7,0.8-1c-0.1-0.1-0.1-0.2-0.2-0.2c-0.2-0.1-0.6,0-1.7,0.7c2.1-1.2,2.1-1.4,2-1.7l-0.1-0.1
				c0-0.1,0.1-0.1,0.1-0.2c0-0.1,0-0.2,0-0.3s0-0.2,0-0.3c0,0,0,0,0-0.1c0,0,0-0.1,0.1-0.1c0-0.1,0-0.2,0-0.3c2.9-1.6,3.2-2,3-2.5
				c-0.1-0.1-0.2-0.2-0.3-0.2c-0.6-0.2-2.5,0.9-6.7,3.4c-1.4,0.9-3.2,2-4.5,2.7c1.7-1.1,4.2-2.6,5.8-3.6c1.5-0.9,2.3-1.4,2.6-1.6
				l0,0c0.3-0.3,0.3-0.3,0.2-0.5c0-0.1-0.1-0.1-0.2-0.2c-0.1,0-0.2,0-0.6,0.2c0.7-0.5,0.9-0.9,0.7-1.2c-0.1-0.1-0.2-0.2-0.3-0.2
				c-0.4-0.1-1.3,0.4-4.5,2.3c-1.3,0.8-3.2,2-4.5,2.6c1.4-1,4.2-2.7,8.3-5.3c1.1-0.7,1.1-0.7,1-1c0-0.1-0.1-0.2-0.2-0.2
				c-0.2-0.1-0.3,0-3,1.6c-1.6,0.9-4.4,2.6-6,3.4c1.3-0.8,3.6-2.1,5.3-3.1c4.2-2.4,4.2-2.4,4-2.8c0-0.1-0.1-0.1-0.2-0.2
				c0.1-0.1,0.2-0.2,0.2-0.3c0-0.1,0-0.3,0-0.4l0,0v-0.1c0.1-0.1,0-0.3,0-0.4c0,0,0,0,0-0.1c0.1-0.1,0.1-0.2,0-0.3l0,0
				c-0.1-0.1-0.2-0.2-0.3-0.2h-0.1c0.5-0.3,0.5-0.5,0.4-0.7c-0.1-0.1-0.1-0.2-0.2-0.2c-0.1,0-0.2,0-0.3,0c0.7-0.4,0.7-0.5,0.6-0.7
				c0-0.1-0.1-0.1-0.2-0.2c0.1-0.1,0.2-0.2,0.2-0.3c0-0.1,0-0.3,0-0.4c0,0,0-0.1-0.1-0.1l0.1-0.1c0-0.1,0-0.1,0-0.2l0,0
				c0-0.1,0-0.3,0-0.4s-0.1-0.2-0.2-0.2c-0.1,0-0.1,0-0.2,0c0.5-0.3,0.5-0.4,0.3-0.6c0-0.1-0.1-0.2-0.2-0.2c-0.2-0.1-0.4,0-3.9,1.9
				c-0.4,0.2-0.9,0.5-1.3,0.7c-1.1,0.6-2,1.1-2.7,1.5l0,0c1.4-0.9,3.2-2,4.6-2.8c3.8-2.3,3.8-2.3,3.6-2.6c-0.1-0.1-0.2-0.2-0.3-0.2
				c-0.2-0.1-0.5,0-1.1,0.3c1.4-1,1.6-1.3,1.4-1.6l0,0v-0.1c0-0.1,0-0.2,0-0.3c-0.1-0.1-0.1-0.2-0.3-0.2c-0.2-0.1-0.6,0-1.3,0.4
				c1.5-1.1,1.7-1.5,1.5-1.9c0-0.1-0.1-0.1-0.2-0.2c0.2-0.1,0.2-0.2,0.2-0.3c0-0.1,0-0.2,0-0.3c0-0.1-0.1-0.1-0.2-0.2
				c-0.2,0-0.2,0-1.7,0.8l-1,0.5l-1.2,0.6c0.4-0.2,0.8-0.4,1.2-0.6c6.9-3.6,8.6-4.7,8.2-5.4c-0.1-0.1-0.2-0.2-0.3-0.3
				c-0.1,0-0.1,0-0.2,0C131.8,15.7,131.2,15.9,130.6,16.2"/>
		</defs>
		<clipPath id="SVGID_00000041994294221991110930000014662897864708354969_">
			<use xlink:href="#SVGID_00000156580359310746401300000016693332473553741963_"  style="overflow:visible;"/>
		</clipPath>
		<g style="clip-path:url(#SVGID_00000041994294221991110930000014662897864708354969_);">
			
				<linearGradient id="SVGID_00000160880687033414649070000010165880315151449743_" gradientUnits="userSpaceOnUse" x1="-154.5264" y1="938.5865" x2="-154.1807" y2="938.5865" gradientTransform="matrix(1.448941e-14 236.63 -236.63 1.448941e-14 222219.9688 36567.5742)">
				<stop  offset="0" style="stop-color:#BBBDBF"/>
				<stop  offset="0.13" style="stop-color:#C1C3C4"/>
				<stop  offset="0.3" style="stop-color:#D0D2D3"/>
				<stop  offset="0.37" style="stop-color:#C7C9CA"/>
				<stop  offset="0.47" style="stop-color:#AFB1B3"/>
				<stop  offset="0.58" style="stop-color:#929496"/>
				<stop  offset="0.81" style="stop-color:#CED0D1"/>
				<stop  offset="0.82" style="stop-color:#D0D2D3"/>
				<stop  offset="1" style="stop-color:#595A5C"/>
			</linearGradient>
			
				<rect x="111.2" y="15.5" style="fill:url(#SVGID_00000160880687033414649070000010165880315151449743_);" width="22.1" height="41.1"/>
		</g>
	</g>
</g>
<g>
	<g>
		<defs>
			<path id="SVGID_00000113329513198400316320000003534142718658036670_" d="M68.8,57c-1,0.6-2.2,1.3-2.9,1.7
				c0.3-0.9,0.3-1.1,0.2-1.2c0-0.1-0.1-0.2-0.2-0.2c-0.2,0-0.3,0-0.7,0.2h-0.1l0.1,0.3l0.1-0.3l-0.2,0.6h0.1
				c-0.1,0.2-0.1,0.4-0.2,0.5c-0.2,0.5-0.2,0.5-0.1,0.6s0.1,0.2,0.2,0.2c0.2,0.1,0.4,0,1.1-0.3c0,0.1,0,0.2,0.1,0.2
				c0.1,0.1,0.1,0.2,0.2,0.2h0.1c0.4-0.1,0.8-0.2,1.1-0.4c0,0.1,0,0.1,0.1,0.2c0,0.1,0.1,0.1,0.2,0.2c0.1,0,0.2,0.1,1-0.3
				c0,0.1,0,0.1,0.1,0.2c0,0.1,0.1,0.1,0.2,0.2c0.1,0,0.1,0,0.9-0.4c0.9-0.5,1.6-0.9,2.3-1.2c-1.2,0.8-1.5,1.1-1.3,1.4
				c0.1,0.1,0.1,0.2,0.2,0.2c0.3,0.1,0.6-0.1,2.4-1.2c0.1,0,0.1-0.1,0.2-0.1c-0.7,0.6-0.8,0.8-0.7,1.1c0.1,0.1,0.1,0.2,0.2,0.2
				c0.2,0.1,0.5,0,2.2-1c-0.4,0.4-0.5,0.6-0.3,0.8c0.1,0.2,0.4,0.1,0.5,0.1c0.8-0.5,1.4-0.8,1.8-1c-0.4,0.5-0.5,0.7-0.4,0.9
				c0,0.1,0.1,0.1,0.2,0.2c0.1,0,0.2,0,0.5-0.1c0,0.1,0.1,0.1,0.2,0.1c0.2,0,0.2,0,0.6-0.2c0,0,0.1,0,0.1-0.1v0.1
				c0,0.1,0.1,0.1,0.2,0.2c0.1,0,0.2,0,0.4-0.1c0.1,0,0.1-0.1,0.2-0.1h0.1c0.2-0.1,0.2-0.3,0.1-0.5c0,0,0,0,0-0.1
				c0.1-0.1,0.1-0.3,0-0.4l0,0c0.1-0.1,0.1-0.2,0-0.3c0-0.1-0.1-0.2-0.2-0.2c-0.2,0-0.3,0-0.8,0.2c0.4-0.4,0.4-0.5,0.3-0.7
				c0-0.1-0.1-0.2-0.2-0.2s-0.3-0.1-1.6,0.6c0.3-0.3,0.4-0.5,0.3-0.7c0-0.1-0.1-0.1-0.2-0.2c-0.2-0.1-0.3,0-1.8,0.8
				c-0.1,0-0.2,0.1-0.2,0.1c0.9-0.8,1.1-0.9,1-1.2c-0.1-0.1-0.1-0.2-0.2-0.2c-0.2-0.1-0.4,0-1,0.3c0.3-0.3,0.3-0.4,0.2-0.7
				c0-0.1-0.1-0.2-0.2-0.2h-0.1c0-0.1,0-0.1-0.1-0.2c0-0.1-0.1-0.2-0.2-0.2s-0.1,0-0.2,0c0.1-0.2,0.1-0.2,0-0.4
				c-0.1-0.1-0.1-0.2-0.2-0.2h-0.1c0.2-0.2,0.2-0.2,0.1-0.4c-0.1-0.1-0.2-0.2-0.3-0.2c-0.1,0-0.1,0-0.2,0C73.5,54.2,72,55,68.8,57"
				/>
		</defs>
		<clipPath id="SVGID_00000146464000612772335850000012561140944387964299_">
			<use xlink:href="#SVGID_00000113329513198400316320000003534142718658036670_"  style="overflow:visible;"/>
		</clipPath>
		<g style="clip-path:url(#SVGID_00000146464000612772335850000012561140944387964299_);">
			
				<linearGradient id="SVGID_00000124862880626775138590000006224596053007721662_" gradientUnits="userSpaceOnUse" x1="-154.5293" y1="938.2008" x2="-154.1836" y2="938.2008" gradientTransform="matrix(1.450962e-14 236.96 -236.96 1.450962e-14 222388.6562 36619.1953)">
				<stop  offset="0" style="stop-color:#BBBDBF"/>
				<stop  offset="0.13" style="stop-color:#C1C3C4"/>
				<stop  offset="0.3" style="stop-color:#D0D2D3"/>
				<stop  offset="0.37" style="stop-color:#C7C9CA"/>
				<stop  offset="0.47" style="stop-color:#AFB1B3"/>
				<stop  offset="0.58" style="stop-color:#929496"/>
				<stop  offset="0.81" style="stop-color:#CED0D1"/>
				<stop  offset="0.82" style="stop-color:#D0D2D3"/>
				<stop  offset="1" style="stop-color:#595A5C"/>
			</linearGradient>
			
				<rect x="65" y="54.2" style="fill:url(#SVGID_00000124862880626775138590000006224596053007721662_);" width="15.2" height="5.4"/>
		</g>
	</g>
</g>
<g>
	<g>
		<defs>
			<path id="SVGID_00000165921623288406640200000018336269796972550571_" d="M108.3,17c-0.3,0.2-1.1,0.6-1.2,0.6H107
				c-0.2,0.1-0.2,0.3-0.1,0.5c0,0.1,0.1,0.1,0.2,0.2h0.1c0.1,0,0.3-0.1,1-0.5l0,0c0,0.1,0.1,0.1,0.2,0.2c0.2,0.1,0.3,0,0.7-0.2
				l0.1-0.1l-0.1-0.2c0.3-0.3,0.4-0.4,0.3-0.7c0-0.1-0.1-0.1-0.2-0.2h-0.1C108.9,16.6,108.8,16.7,108.3,17"/>
		</defs>
		<clipPath id="SVGID_00000173859159471560823490000001911697333246027455_">
			<use xlink:href="#SVGID_00000165921623288406640200000018336269796972550571_"  style="overflow:visible;"/>
		</clipPath>
		<g style="clip-path:url(#SVGID_00000173859159471560823490000001911697333246027455_);">
			
				<linearGradient id="SVGID_00000047042267427368696370000012995809266806644107_" gradientUnits="userSpaceOnUse" x1="-154.5557" y1="938.4825" x2="-154.2101" y2="938.4825" gradientTransform="matrix(1.467678e-14 239.69 -239.69 1.467678e-14 225052.9219 37047.3477)">
				<stop  offset="0" style="stop-color:#BBBDBF"/>
				<stop  offset="0.13" style="stop-color:#C1C3C4"/>
				<stop  offset="0.3" style="stop-color:#D0D2D3"/>
				<stop  offset="0.37" style="stop-color:#C7C9CA"/>
				<stop  offset="0.47" style="stop-color:#AFB1B3"/>
				<stop  offset="0.58" style="stop-color:#929496"/>
				<stop  offset="0.81" style="stop-color:#CED0D1"/>
				<stop  offset="0.82" style="stop-color:#D0D2D3"/>
				<stop  offset="1" style="stop-color:#595A5C"/>
			</linearGradient>
			
				<rect x="106.7" y="16.6" style="fill:url(#SVGID_00000047042267427368696370000012995809266806644107_);" width="2.7" height="1.7"/>
		</g>
	</g>
</g>
<g>
	<g>
		<defs>
			<path id="SVGID_00000146460276083772764000000001526998850417807271_" d="M99.4,16.7c-0.4,0.3-1,0.6-1.4,0.8
				c0.1-0.2,0.1-0.4,0.2-0.6c0.2-0.7,0.3-0.9,0.2-1c0-0.1-0.1-0.1-0.2-0.2c-0.1,0-0.1,0-0.2,0l0,0c-0.2,0-0.3,0-0.8,0.2l0,0
				c0-0.1-0.1-0.2-0.2-0.2c-0.2,0-0.3,0-0.9,0.3c0-0.1,0-0.1,0-0.1c0-0.1-0.1-0.1-0.2-0.2c-0.1,0-0.2,0-0.4,0.1
				c-0.1,0-0.1,0.1-0.2,0.1l0.1,0.2c0,0.1-0.1,0.1-0.1,0.2C95,16.7,94.9,16.8,95,17l0.1,0.1C95,17.2,95,17.3,95,17.5
				c0,0.1,0,0.1,0,0.2s0.1,0.1,0.2,0.2c0.2,0.1,0.3,0,1.5-0.6c0.4-0.2,0.6-0.3,0.9-0.4c-0.3,1-0.3,1.2-0.3,1.4
				c0.1,0.1,0.1,0.2,0.2,0.2c0.2,0.1,0.5,0,1.1-0.4c-0.2,0.3-0.3,0.4-0.2,0.6c0.1,0.1,0.1,0.2,0.2,0.2s0.2,0,0.3,0V19
				c0,0.1,0.1,0.1,0.2,0.2l0,0c0,0,0.1,0.1,0.2,0.1l0,0c0,0.1,0.1,0.2,0.2,0.2l0,0c0,0,0,0,0,0.1s0.1,0.1,0.2,0.2
				c0.2,0.1,0.2,0.1,4.1-2c-0.6,0.4-1.2,0.8-1.7,1.1c-2,1.3-2,1.4-1.9,1.7l0,0v0.1c0,0,0,0.1,0.1,0.1c0,0.1,0,0.2,0,0.2
				c0,0.1,0.1,0.1,0.2,0.2c0.2,0,0.2,0,3-1.4c0.5-0.2,1-0.5,1.5-0.8c-4.5,3.1-4.5,3.1-4.3,3.5c0,0,0,0,0,0.1c-0.1,0.1-0.1,0.2,0,0.3
				c0,0.1,0.1,0.2,0.2,0.2s0.1,0,0.2,0c-0.4,0.4-0.5,0.5-0.3,0.7c0,0.1,0.1,0.1,0.2,0.2h0.1c-0.4,0.3-0.4,0.4-0.3,0.6
				c0,0.1,0.1,0.2,0.2,0.2c-0.3,0.2-0.3,0.4-0.2,0.6c0,0.1,0.1,0.1,0.2,0.2c0.2,0,0.2,0.1,1-0.4l0.3-0.2c-1.5,1.5-1.6,1.7-1.5,2
				c0,0,0,0,0,0.1c-0.1,0.1-0.1,0.3,0,0.4c0,0,0,0,0.1,0.1c-0.1,0.1-0.1,0.3-0.1,0.4c0,0,0,0.1,0.1,0.1c-0.1,0.1-0.1,0.3-0.1,0.5
				c0,0.1,0.1,0.1,0.2,0.2c0.2,0,0.3,0,1-0.3c-1,0.9-1.4,1.2-1.3,1.5c0,0.1,0,0.1,0,0.2s0.1,0.1,0.2,0.2c0.2,0,0.3,0,0.8-0.3
				c-1.2,1.1-1.2,1.1-1,1.4c0,0.1,0.1,0.1,0.2,0.2c-0.2,0.2-0.3,0.4-0.2,0.6c0,0.1,0.1,0.1,0.2,0.2c0.2,0.1,0.2,0,1-0.4
				c-1.4,1.4-1.3,1.6-1.2,1.8c0.1,0.1,0.1,0.2,0.2,0.2c0.2,0,0.4,0,1-0.4c-0.2,0.2-0.3,0.3-0.5,0.4c-0.9,0.7-0.9,0.8-0.7,1
				c0,0.1,0.1,0.2,0.2,0.2s0.3,0,0.6-0.2c-0.9,0.8-1,0.8-0.9,1.1c0,0.1,0.1,0.2,0.2,0.2s0.3,0,0.4,0c-0.6,0.6-0.7,0.8-0.6,1
				c0,0.1,0.1,0.1,0.2,0.2c0.2,0.1,0.2,0,1.4-0.6c0.1,0,0.1-0.1,0.2-0.1c-0.1,0.1-0.3,0.3-0.4,0.4c-1.2,1.2-1.5,1.4-1.3,1.7l0,0
				c-0.1,0.1-0.1,0.3,0,0.4c0,0.1,0.1,0.2,0.2,0.2c0.2,0.1,0.3,0,1.4-0.6c0,0,0,0-0.1,0.1c-1.6,1.8-1.6,1.8-1.5,2
				c0,0.1,0.1,0.2,0.2,0.2c0.2,0,0.3,0,1.1-0.4c-1.2,1.1-1.4,1.4-1.3,1.8c0,0,0,0.1,0.1,0.1c-0.1,0.1-0.2,0.2-0.1,0.4l0,0l0,0
				c-0.1,0.1-0.1,0.3,0,0.4c0,0.1,0.1,0.1,0.2,0.2h0.1c0.1,0,0.2,0,0.5-0.2c1.5-0.9,2-1.1,2.2-1.2c0.1,0,0.2,0,0.3,0
				c0.2-0.1,0.2-0.3,0.1-0.5v-0.1c0.1-0.1,0.1-0.3,0-0.4c0,0,0,0,0-0.1c0.1-0.1,0.1-0.3,0-0.4c0-0.1-0.1-0.1-0.2-0.2
				c-0.1-0.1-0.2-0.1-1.4,0.6c0.1-0.1,0.2-0.2,0.3-0.3c1.2-1.2,1.5-1.4,1.3-1.7c0-0.1-0.1-0.1-0.2-0.2c-0.2-0.1-0.3,0-1.3,0.6
				c-0.1,0-0.1,0.1-0.2,0.1c0.1-0.1,0.2-0.2,0.3-0.4c1.5-1.6,1.5-1.6,1.4-1.8c0,0,0,0,0-0.1c0.1-0.1,0.1-0.2,0-0.4
				c0-0.1-0.1-0.1-0.2-0.2c-0.2-0.1-0.2-0.1-0.8,0.3c-0.2,0.1-0.4,0.2-0.7,0.4l0.1-0.1c1.4-1.4,1.8-1.7,1.6-2.1
				c0-0.1-0.1-0.2-0.2-0.2s-0.2,0-0.7,0.2c0.9-0.7,1.1-0.9,0.9-1.2c0-0.1-0.1-0.2-0.2-0.2s-0.2,0-0.3,0c0.6-0.5,0.6-0.7,0.5-1
				c0-0.1-0.1-0.2-0.2-0.2s-0.2,0-0.5,0.1c0.8-0.7,0.8-0.9,0.7-1.2c-0.1-0.1-0.1-0.2-0.2-0.2c-0.3-0.1-0.5,0.1-1.6,0.7
				c0.4-0.4,0.9-0.9,1.6-1.6c0.1-0.1,0.3-0.3,0.2-0.5c0-0.1-0.1-0.1-0.2-0.2c0.2-0.2,0.3-0.3,0.2-0.5c-0.1-0.1-0.1-0.2-0.2-0.2
				c-0.2-0.1-0.4,0-0.8,0.2c1-0.9,1.2-1,1.1-1.3c0-0.1,0-0.1,0-0.2c-0.1-0.1-0.1-0.2-0.2-0.2c-0.2,0-0.3,0-0.8,0.2
				c1-0.9,1.1-1.1,1-1.4c0,0,0-0.1-0.1-0.1c0.1-0.1,0.2-0.3,0.1-0.5c0,0,0,0,0-0.1c0.1-0.1,0.1-0.3,0.1-0.4c0,0,0,0,0-0.1
				c0.1-0.1,0.1-0.3,0-0.4s-0.1-0.2-0.2-0.2c-0.2-0.1-0.5,0-1.3,0.5l0.5-0.4c1.2-1.1,1.2-1.2,1.1-1.4c0-0.1-0.1-0.1-0.2-0.2
				c0.2-0.2,0.3-0.4,0.2-0.6c-0.1-0.1-0.1-0.2-0.2-0.2l0,0c0.3-0.3,0.4-0.5,0.3-0.7c0-0.1-0.1-0.1-0.2-0.2c-0.1,0-0.2,0-0.2,0
				c0.6-0.5,0.6-0.6,0.5-0.8l0,0c0.1-0.1,0.2-0.3,0.1-0.4l0,0c0-0.1-0.1-0.1-0.2-0.2c0.5-0.3,0.9-0.7,1.4-1c3.8-2.7,3.8-2.7,3.6-3
				l0,0c0,0,0,0,0-0.1s0-0.1,0-0.2c0-0.1,0-0.2,0-0.2c0-0.1-0.1-0.1-0.2-0.2c-0.1,0-0.2,0-0.6,0.2c-1.1,0.4-2.1,1-3.1,1.6l-0.2,0.1
				c1.3-1,1.6-1.3,1.4-1.7c0-0.1-0.1-0.1-0.2-0.2c-0.1,0-0.1,0-0.6,0.2l0,0c-0.1-0.1-0.1-0.1-0.2-0.2c-0.1,0-0.3,0-0.4,0.1h-0.1
				c-0.1,0-0.1,0-0.3,0.1c0,0-0.1,0-0.1-0.1c-0.1,0-0.2,0-0.8,0.3c0,0,0-0.1-0.1-0.1c0-0.1-0.1-0.1-0.2-0.2c-0.2-0.1-0.4,0-2.2,1
				l-0.3,0.2c0.7-0.6,0.9-0.8,0.7-1c-0.1-0.1-0.1-0.2-0.2-0.2h-0.1C101.1,15.7,100.7,15.9,99.4,16.7"/>
		</defs>
		<clipPath id="SVGID_00000029026308409412797780000003238717807204375962_">
			<use xlink:href="#SVGID_00000146460276083772764000000001526998850417807271_"  style="overflow:visible;"/>
		</clipPath>
		<g style="clip-path:url(#SVGID_00000029026308409412797780000003238717807204375962_);">
			
				<linearGradient id="SVGID_00000049191581008296686700000014309609737331867541_" gradientUnits="userSpaceOnUse" x1="-154.5253" y1="938.4261" x2="-154.1797" y2="938.4261" gradientTransform="matrix(1.448329e-14 236.53 -236.53 1.448329e-14 222068.0938 36551.8555)">
				<stop  offset="0" style="stop-color:#BBBDBF"/>
				<stop  offset="0.13" style="stop-color:#C1C3C4"/>
				<stop  offset="0.3" style="stop-color:#D0D2D3"/>
				<stop  offset="0.37" style="stop-color:#C7C9CA"/>
				<stop  offset="0.47" style="stop-color:#AFB1B3"/>
				<stop  offset="0.58" style="stop-color:#929496"/>
				<stop  offset="0.81" style="stop-color:#CED0D1"/>
				<stop  offset="0.82" style="stop-color:#D0D2D3"/>
				<stop  offset="1" style="stop-color:#595A5C"/>
			</linearGradient>
			
				<rect x="94.9" y="15.6" style="fill:url(#SVGID_00000049191581008296686700000014309609737331867541_);" width="14.5" height="27.8"/>
		</g>
	</g>
</g>
<g>
	<g>
		<defs>
			<path id="SVGID_00000067930915180852046810000016820519171684289412_" d="M95.9,46.7c2.2-1.3,6.6-4,7.7-4.1
				c-0.1,0.1-0.3,0.2-0.4,0.3c-1.1,0.4-3.3,1.6-6.8,3.7l-0.2,0.1H95.9l-1.7,1C94.7,47.3,95.2,47,95.9,46.7 M96.1,39.5
				c-0.2,0.2-0.5,0.3-0.8,0.5l-1,0.5C95,40.1,95.6,39.7,96.1,39.5 M91.3,36.6L90,37.3c-1.2,0.7-2.8,1.7-3.7,2.2
				C87.4,38.7,89.8,37.4,91.3,36.6 M79.1,22.9L77.2,24c-1.8,0.8-2.7,1.2-3.1,1.5c-0.1,0-0.2,0-0.2,0c-0.2,0.1-0.2,0.3-0.2,0.4l0,0
				c0,0.1,0.1,0.1,0.1,0.1l0,0c0,0.1,0.1,0.1,0.2,0.2v0.1c0,0.1,0.1,0.1,0.2,0.2c0.2,0.1,0.2,0.1,2.1-1.1l0.6-0.3l1-0.5
				c0.6-0.3,1.1-0.5,1.5-0.7c-0.2,0.1-0.4,0.2-0.6,0.3c-4.1,2.5-4.3,2.7-4.1,3.2c0,0.1,0.1,0.1,0.2,0.2l0,0c0,0.1,0,0.1,0,0.2
				l0.1,0.1l0.1,0.1l0,0c0.1,0.1,0.2,0.2,0.3,0.2c0.3,0.1,0.7,0,1.5-0.4c-0.9,0.7-1,1-0.9,1.3c0.1,0.1,0.1,0.2,0.2,0.2
				c0.4,0.1,1.5-0.3,6.4-3.1c-1.1,0.8-2.7,1.8-4.9,3.2c-0.9,0.6-0.9,0.6-0.8,0.9c0.1,0.1,0.2,0.2,0.3,0.2c0.4,0.1,1.3-0.4,4.3-2.2
				c1.1-0.7,2.5-1.5,3.5-2.1c-1.3,0.9-3.4,2.1-4.7,2.9c-2.8,1.7-2.8,1.7-2.6,2c0,0.1,0.1,0.1,0.2,0.2c0.2,0.1,0.2,0.1,4.5-2.2
				c0.7-0.4,1.4-0.7,2.1-1.1c-1.4,1-3.1,2-4.1,2.7c-1.9,1.2-1.9,1.2-1.7,1.5c0,0.1,0.1,0.1,0.1,0.1c0.1,0.1,0.2,0.2,0.3,0.2
				c0.2,0.1,0.6,0,1.3-0.3c-0.9,0.6-0.9,0.8-0.8,1.1c0,0.1,0.1,0.2,0.2,0.2v0.1c0,0.1,0.1,0.2,0.2,0.2v0.1l0.1,0.1l0,0
				c0,0.1,0.1,0.1,0.1,0.1s0,0,0.1,0l0,0c0,0.1,0.1,0.1,0.1,0.1l0,0c0,0.1,0.1,0.2,0.2,0.2v0.1c0,0.1,0.1,0.1,0.2,0.2
				c0.1,0,0.1,0,0.8-0.3C81,34.8,81,35,81.1,35.2c0.1,0.1,0.2,0.2,0.3,0.2c0.5,0.1,1.5-0.4,4.6-2.3c1-0.6,2.4-1.4,3.3-1.9
				c-0.8,0.5-2,1.2-3,1.8c-3.7,2.2-4.6,2.8-4.3,3.4c0.1,0.1,0.2,0.2,0.3,0.2c0.3,0.1,0.9-0.1,2.5-0.9c-1.8,1.1-2,1.4-1.8,1.8
				c0.1,0.1,0.2,0.2,0.3,0.2l0,0c0,0.1,0,0.1,0,0.2c0,0.1,0.1,0.1,0.2,0.2v0.1c0.1,0.1,0.2,0.2,0.3,0.2c0.3,0,0.6,0,0.9-0.1
				c-0.6,0.5-0.5,0.6-0.4,0.8c0.1,0.1,0.1,0.2,0.2,0.2c0.2,0,0.4,0,0.5-0.1c-0.2,0.2-0.2,0.4-0.1,0.6c0.1,0.1,0.2,0.2,0.3,0.2
				c0,0.1,0,0.1,0,0.2c0,0.1,0.1,0.2,0.2,0.2c0.3,0.1,0.8-0.2,3.5-1.8l1.1-0.7c0.5-0.3,0.9-0.5,1.3-0.7C85.8,41,85.8,41,86,41.4
				c0.1,0.1,0.1,0.2,0.2,0.2c0.3,0.1,1-0.2,4.2-2.1c1.2-0.7,2.9-1.7,3.9-2.2c-1,0.8-2.8,1.9-4.1,2.7c-3.3,2.1-3.5,2.3-3.3,2.7
				c0.1,0.1,0.1,0.2,0.2,0.2s0.1,0,0.2,0c-0.1,0.1,0,0.2,0,0.3c0.1,0.1,0.2,0.2,0.3,0.2c0.2,0,0.5,0,0.7-0.1
				c-0.5,0.3-0.5,0.4-0.3,0.6c0,0.1,0.1,0.2,0.2,0.2s0.1,0,0.8-0.4l0.8-0.4c-1.2,0.8-1.3,1.1-1.2,1.4c0,0.1,0.1,0.1,0.2,0.2
				c0.2,0,0.2,0,1.4-0.7c3.7-2.2,6-3.5,7.1-3.9c-1.2,0.9-2.5,1.7-3.9,2.5c-3.5,2-4.1,2.5-3.9,3c0.1,0.1,0.2,0.2,0.3,0.2
				c0.1,0,0.3,0,0.4,0c-0.1,0.1-0.2,0.4-0.1,0.5s0.2,0.2,0.3,0.2c0.2,0.1,0.5,0,1-0.2c-0.6,0.5-0.6,0.7-0.5,0.9
				c0.1,0.1,0.1,0.2,0.2,0.2c0.4,0.1,1.3-0.3,4.4-2.2c1.1-0.7,2.6-1.5,3.5-2c-1.3,0.9-3.8,2.4-5.3,3.1c-2.4,1.4-2.4,1.4-2.3,1.7
				c0.1,0.1,0.1,0.2,0.2,0.2s0.2,0,0.5-0.1c-0.1,0.1-0.2,0.1-0.2,0.2c0,0.1,0,0.2,0,0.3C92,48.9,92,49,92.1,49s0.2,0,0.3,0
				c-0.1,0.1-0.1,0.3,0,0.4c0.1,0.1,0.1,0.2,0.2,0.2h0.1c0,0.1,0,0.2,0,0.3c0.1,0.1,0.2,0.2,0.3,0.2c0.2,0,0.3,0,0.5,0
				c-0.2,0.2-0.2,0.4-0.1,0.6c0.1,0.1,0.1,0.2,0.2,0.2l0,0c0,0.1,0,0.2,0.1,0.2c0.1,0.1,0.1,0.2,0.2,0.2s0.1,0,0.2,0
				c-0.1,0.1,0,0.3,0,0.4c0,0.1,0.1,0.1,0.2,0.2V52c0,0.1,0.1,0.2,0.2,0.2c0.2,0,0.2,0,1.1-0.5c0.7-0.3,1.5-0.7,2.2-1
				c-2.4,1.6-2.8,2.1-2.6,2.5l0.1,0.1l0,0c0,0.1,0.1,0.2,0.2,0.2s0.2,0,0.3,0c-0.1,0.1-0.1,0.3,0,0.4c0.1,0.1,0.1,0.2,0.2,0.2
				s0.2,0,0.3,0c-0.1,0.1-0.1,0.3,0,0.4l0,0c0.1,0.1,0.1,0.2,0.2,0.2c0,0,0,0,0.1,0c0,0.1,0,0.2,0.1,0.2c0,0,0,0.1,0.1,0.1
				c0,0.1,0.1,0.1,0.2,0.2c0.2,0,0.3,0.1,3.6-1.7c-0.7,0.5-1.5,1.2-2.6,2c-0.3,0.3-0.5,0.4-0.3,0.6c0,0.1,0.1,0.1,0.1,0.2l0,0l0,0
				c0,0.1,0.1,0.2,0.2,0.2c0.2,0.1,0.2,0.1,1.7-0.8c0.3-0.2,0.7-0.4,1.1-0.6c-2.2,1.6-2.4,1.8-2.2,2.2c0,0.1,0.1,0.1,0.1,0.1
				s0,0,0,0.1s0.1,0.1,0.1,0.2c0,0,0,0,0,0.1c0.1,0.1,0.1,0.1,0.2,0.2c0.1,0,0.3,0,0.8-0.2c-0.6,0.5-0.6,0.5-0.5,0.8
				c0,0.1,0.1,0.1,0.2,0.2c0.1,0,0.1,0,0.6-0.2c-0.3,0.3-0.3,0.4-0.3,0.6c0,0.1,0.1,0.1,0.1,0.1l0,0c0,0.1,0.1,0.1,0.2,0.2
				c0.1,0,0.2,0,0.5-0.1c0.1-0.1,0.2-0.1,0.3-0.2c-0.5,0.5-0.5,0.6-0.4,0.8c0,0,0,0.1,0.1,0.1c0,0,0,0,0.1,0.1
				c0,0.1,0.1,0.1,0.2,0.1c0.2,0.1,0.4,0,1.2-0.5l0.4-0.2l0,0c0,0.1,0,0.1-0.1,0.2c-0.2,0.5-0.2,0.6-0.2,0.8c0,0.1,0.1,0.2,0.2,0.2
				h0.1l0,0c0.1,0,0.2-0.1,0.6-0.2l0,0c0.1,0,0.1-0.1,0.2-0.2c0-0.1,0-0.2,0-0.3s-0.1-0.1-0.2-0.2c0.1-0.3,0.2-0.6,0.2-0.9v-0.1
				c0-0.1,0-0.1,0-0.2c-0.1-0.1-0.1-0.2-0.2-0.2s-0.1,0-0.2,0c0.5-0.4,0.5-0.5,0.5-0.7c0.1-0.1,0-0.2,0-0.3s-0.1-0.2-0.2-0.2
				c0,0,0,0-0.1,0c0.3-0.3,0.4-0.5,0.3-0.7c0-0.1-0.1-0.1-0.2-0.2c-0.1,0-0.2,0-0.3,0c0.5-0.4,0.6-0.6,0.5-0.8l0,0
				c0-0.1,0-0.2,0-0.3l0,0c0-0.1,0-0.2,0-0.3s-0.1-0.2-0.2-0.2c-0.2-0.1-0.3,0-1.8,0.8c2-1.5,2.2-1.6,2-1.9l0,0c0-0.1,0-0.1,0-0.2
				c0-0.1,0-0.1,0-0.2c0-0.1-0.1-0.1-0.2-0.2c-0.1,0-0.2-0.1-1.9,0.8c2.1-1.6,2.2-1.9,2.2-2.1c0-0.1,0-0.1,0-0.2
				c0-0.1-0.1-0.1-0.1-0.1c0.2-0.2,0.2-0.3,0.1-0.5c-0.1-0.1-0.1-0.2-0.2-0.2h-0.1c0.5-0.3,0.5-0.4,0.4-0.6
				c-0.1-0.1-0.2-0.2-0.3-0.2h-0.1c0.5-0.3,0.5-0.4,0.4-0.6c0-0.1,0-0.2,0-0.2c-0.1-0.1-0.2-0.2-0.3-0.2c-0.5-0.1-1.6,0.5-4.9,2.4
				c0.9-0.6,1.9-1.2,2.6-1.7c2.7-1.7,2.7-1.7,2.5-2.1l0,0v-0.1c0-0.1,0-0.2,0-0.3s-0.1-0.1-0.2-0.2h-0.1c0.5-0.3,0.4-0.4,0.3-0.6
				l-0.1-0.1c0.2-0.2,0.2-0.3,0.1-0.5c-0.1-0.1-0.2-0.2-0.3-0.2c-0.2,0-0.3,0-0.5,0c0.8-0.5,0.9-0.6,0.7-0.9c0-0.1-0.1-0.1-0.2-0.2
				c0.1-0.1,0.2-0.1,0.2-0.2c0-0.1,0-0.2,0-0.3c-0.1-0.1-0.1-0.2-0.2-0.2l0,0c0.4-0.3,0.4-0.4,0.3-0.6c0-0.1-0.1-0.1-0.1-0.2
				c0.1-0.1,0.1-0.2,0.2-0.3c0-0.1,0-0.3,0-0.4c-0.1-0.1-0.2-0.2-0.3-0.3c-0.5-0.1-1.4,0.2-3,1c0-0.1,0-0.2,0-0.2
				c-0.1-0.1-0.2-0.2-0.3-0.2c-0.3-0.1-1.1,0.2-2.8,1.2c2.5-1.5,2.5-1.5,2.4-1.9c-0.1-0.1-0.2-0.2-0.3-0.2c-0.1,0-0.3,0-0.4,0
				c0.3-0.2,0.2-0.3,0.1-0.5c0-0.1-0.1-0.1-0.2-0.2c-0.2-0.1-0.2,0-1.7,0.9c-1.3,0.8-4.2,2.4-6,3.3c0.7-0.5,1.7-1,2.5-1.5
				c3.9-2.3,4.8-2.9,4.5-3.6c-0.1-0.1-0.2-0.2-0.3-0.2c-0.1,0-0.3,0-0.4,0c0.3-0.2,0.2-0.3,0.1-0.5c-0.1-0.1-0.2-0.2-0.3-0.2
				c-0.1,0-0.2,0-0.3,0c0.1-0.2,0.1-0.3,0-0.5c-0.1-0.1-0.2-0.2-0.3-0.2h-0.1c0-0.1,0-0.2,0-0.3c-0.1-0.1-0.1-0.2-0.2-0.2
				c-0.3-0.1-0.8,0.1-4.5,2.2c-0.1,0-0.1,0.1-0.2,0.1c3.6-2.3,4.2-2.9,4-3.4c-0.1-0.1-0.2-0.2-0.3-0.2c-0.5-0.1-1.7,0.5-5.3,2.6
				c0,0-0.1,0-0.1,0.1c0.8-0.5,1.5-1,2.1-1.5c2.7-1.8,2.7-1.8,2.6-2.1c-0.1-0.1-0.2-0.2-0.3-0.2c0-0.1,0-0.1,0-0.2
				c-0.1-0.1-0.2-0.2-0.3-0.2c-0.3,0-0.6,0-0.8,0.2c0.6-0.4,0.6-0.5,0.5-0.7c0-0.1-0.1-0.1-0.2-0.2c-0.2-0.1-0.2-0.1-2.6,1.3
				c-1,0.5-2.4,1.4-3.7,2.1c0.8-0.5,1.7-1,2.4-1.5c3.6-2.2,3.6-2.2,3.4-2.6c0-0.1-0.1-0.1-0.2-0.2v-0.1c-0.1-0.1-0.1-0.2-0.3-0.2
				l0,0c0-0.1,0-0.1-0.1-0.2c0-0.1-0.1-0.1-0.2-0.2c-0.2-0.1-0.2-0.1-2.4,1.2c-1.4,0.8-4.2,2.5-5.8,3.2c0.8-0.5,2-1.3,3-1.9
				c4-2.4,4.7-2.9,4.4-3.5c0-0.1-0.1-0.1-0.2-0.2c-0.2-0.1-0.2-0.1-2.8,1.4c-1.5,0.9-3.9,2.3-5.3,2.9c0.8-0.6,2.3-1.4,3.3-2
				c3.6-2.1,4.4-2.7,4.1-3.3c-0.1-0.1-0.2-0.2-0.3-0.2c-0.1,0-0.2,0-0.3,0c0.1-0.1,0.1-0.3,0-0.4c0-0.1-0.1-0.1-0.2-0.2l0,0
				c0-0.1,0-0.1,0-0.2s-0.1-0.1-0.1-0.2l0,0l-0.1-0.1l0,0c0,0,0-0.1-0.1-0.1l-0.1-0.1c0-0.1-0.1-0.2-0.2-0.2v-0.1
				c0-0.1-0.1-0.1-0.2-0.2v-0.1c-0.1-0.1-0.1-0.2-0.2-0.2c-0.3-0.1-0.8,0.1-3.5,1.8c-1.3,0.8-3.1,1.9-4.3,2.5
				c0.7-0.5,1.8-1.1,2.6-1.6c4.3-2.5,4.9-3,4.6-3.5c0-0.1-0.1-0.1-0.1-0.1l0,0c-0.1-0.1-0.2-0.2-0.3-0.2c-0.3-0.1-0.9,0.1-2,0.8
				c1.5-1.1,1.5-1.3,1.4-1.6c0-0.1-0.1-0.2-0.2-0.2s-0.2-0.1-1.9,0.8c1.5-1,1.5-1.3,1.4-1.6c-0.1-0.1-0.2-0.2-0.3-0.2
				c-0.3-0.1-0.9,0.1-1.8,0.6c1.4-1.1,1.3-1.3,1.1-1.5c0-0.1-0.1-0.1-0.2-0.2c-0.2,0-0.2,0-2,1c-1.5,0.9-4.6,2.6-6.2,3.4
				c1.1-0.8,3.3-2.2,4.6-3c3-1.8,3.1-1.9,2.9-2.3c0-0.1-0.1-0.1-0.1-0.1l0,0c0,0,0-0.1-0.1-0.1c-0.1-0.1-0.1-0.2-0.2-0.2v-0.1
				c-0.1-0.1-0.2-0.2-0.3-0.2c-0.3-0.1-0.8,0.1-1.8,0.6c1.3-0.9,1.4-1.1,1.2-1.4c0-0.1-0.1-0.1-0.2-0.2v-0.1c0-0.1-0.1-0.1-0.1-0.1
				l0,0c-0.1-0.1-0.1-0.1-0.2-0.2h-0.1c-0.3,0-1.1,0.4-4.1,2.1"/>
		</defs>
		<clipPath id="SVGID_00000058576366492132825610000008408497941415407023_">
			<use xlink:href="#SVGID_00000067930915180852046810000016820519171684289412_"  style="overflow:visible;"/>
		</clipPath>
		<g style="clip-path:url(#SVGID_00000058576366492132825610000008408497941415407023_);">
			
				<linearGradient id="SVGID_00000137814956808093273510000012302936632190224018_" gradientUnits="userSpaceOnUse" x1="-154.5253" y1="938.3349" x2="-154.1796" y2="938.3349" gradientTransform="matrix(1.448022e-14 236.48 -236.48 1.448022e-14 221986.4844 36544.168)">
				<stop  offset="0" style="stop-color:#BBBDBF"/>
				<stop  offset="0.13" style="stop-color:#C1C3C4"/>
				<stop  offset="0.3" style="stop-color:#D0D2D3"/>
				<stop  offset="0.37" style="stop-color:#C7C9CA"/>
				<stop  offset="0.47" style="stop-color:#AFB1B3"/>
				<stop  offset="0.58" style="stop-color:#929496"/>
				<stop  offset="0.81" style="stop-color:#CED0D1"/>
				<stop  offset="0.82" style="stop-color:#D0D2D3"/>
				<stop  offset="1" style="stop-color:#595A5C"/>
			</linearGradient>
			
				<rect x="73.6" y="20.8" style="fill:url(#SVGID_00000137814956808093273510000012302936632190224018_);" width="30.9" height="39.9"/>
		</g>
	</g>
</g>
<g>
	<g>
		<defs>
			<path id="SVGID_00000129188509120277806540000006714759686874225542_" d="M72.8,35.6L72.8,35.6L72.8,35.6 M76.1,22.8
				c-1.5,1-3.4,2.1-4.3,2.5C73.1,24.4,74.6,23.5,76.1,22.8 M81.2,20.6c-0.8,0.5-2.1,1.3-3.5,2.1C78.9,21.9,80.3,21,81.2,20.6
				 M67.5,16.5c-0.3,0.2-0.8,0.5-1.1,0.7c0-0.2,0-0.5,0-0.6c0-0.5,0-0.5,0-0.6s-0.1-0.1-0.2-0.2c-0.2,0-0.2,0-0.4,0.1
				c0,0-0.1,0-0.1,0.1h-0.1c-0.2,0.1-0.2,0.3-0.1,0.5c0,0.1,0.1,0.2,0.2,0.2h0.1c0,1,0,1.1,0.1,1.2c0,0.1,0.1,0.2,0.2,0.2
				s0.1,0,0.2,0l0.1,0.1c0.2,0.1,0.2,0.1,1.4-0.6c-0.6,0.6-0.7,0.8-0.6,1c0.1,0.1,0.1,0.2,0.2,0.2c0.2,0,0.4,0,1-0.3
				c-0.6,0.4-0.6,0.5-0.5,0.7c0.1,0.1,0.1,0.2,0.2,0.2s0.3,0,0.4,0c-0.1,0.1-0.1,0.3,0,0.5c0.1,0.1,0.1,0.2,0.2,0.2
				c0.3,0.1,0.8,0,3.9-1.8l-0.3,0.2c-2.7,1.9-3,2.2-2.8,2.6c0.1,0.1,0.1,0.2,0.2,0.2c0.4,0.1,1.1-0.3,4-2.1c1.1-0.7,2.7-1.6,3.8-2.2
				c-1.2,0.8-3.1,1.9-4.5,2.7c-3.1,1.8-3.1,1.8-2.9,2.2c0,0.1,0.1,0.1,0.2,0.2c0.2,0,0.2,0,1.2-0.6c4.1-2.5,6.2-3.6,7.2-4
				c-1.4,1-4.6,2.9-6.2,3.9c-2.1,1.2-2.1,1.2-1.9,1.5l0,0V23c0,0.1,0,0.2,0,0.3c0,0.1,0.1,0.1,0.2,0.2c0.2,0.1,0.2,0.1,2.1-0.9
				c-2.1,1.4-2.5,1.9-2.3,2.3l0,0c0,0.1,0,0.2,0,0.3l0.1,0.1c-0.1,0.1-0.1,0.1-0.1,0.2c-0.1,0.1-0.1,0.2,0,0.4
				c0.1,0.1,0.2,0.2,0.3,0.3c0.1,0,0.1,0,0.2,0c-0.7,0.4-0.6,0.5-0.5,0.7l0,0c-0.1,0.1-0.1,0.3,0,0.4c0,0.1,0.1,0.2,0.2,0.2
				s0.2,0,0.2,0c-0.5,0.5-0.6,0.7-0.5,0.9c0,0.1,0.1,0.1,0.2,0.2c0.1,0,0.2,0,0.8-0.3l-0.4,0.3c-0.7,0.5-0.8,0.6-0.6,0.9
				c0.1,0.1,0.1,0.2,0.2,0.2c0.2,0,0.3,0,0.9-0.3c-1.2,1.1-1.2,1.1-1.1,1.4l0.1,0.1c-0.2,0.1-0.2,0.3-0.1,0.5c0,0,0,0,0,0.1
				c-0.1,0.1-0.1,0.3,0,0.4c0,0.1,0.1,0.1,0.2,0.2c0.2,0.1,0.3,0,1.2-0.5c-0.2,0.2-0.5,0.5-0.6,0.6c-0.9,0.8-0.9,0.8-0.7,1.1
				c0.1,0.1,0.1,0.2,0.2,0.2l0,0c-0.4,0.4-0.3,0.5-0.3,0.7c0.1,0.1,0.1,0.1,0.2,0.2c0.2,0.1,0.4,0,1.2-0.5c-1.4,1.4-1.6,1.7-1.5,2
				c0,0.1,0.1,0.2,0.2,0.2s0.1,0,0.2,0c-0.5,0.5-0.5,0.7-0.4,0.9c0,0.1,0.1,0.2,0.2,0.2c0.2,0.1,0.4,0.1,0.6,0
				c-0.3,0.2-0.4,0.4-0.6,0.6c-0.1,0.1-0.1,0.1-0.2,0.2l0,0c0,0.1,0,0.2,0,0.2v0.1c0,0.1,0.1,0.1,0.2,0.2c-0.2,0.1-0.3,0.3-0.2,0.5
				c0.1,0.1,0.1,0.2,0.2,0.2c0.2,0.1,0.5,0,1.2-0.4c-1.4,1.4-1.5,1.6-1.4,1.9c0,0,0,0,0,0.1c-0.2,0.1-0.1,0.2,0,0.4
				c0,0,0,0.1,0.1,0.1c-0.1,0.1-0.2,0.3-0.1,0.5c0,0.1,0.1,0.2,0.2,0.2c0.2,0,0.3,0,1.2-0.5l0.2-0.1c-1.3,1.2-1.5,1.4-1.3,1.7
				c0,0.1,0.1,0.2,0.2,0.2c0.2,0.1,0.3,0,1.2-0.4c-1.4,1.3-1.5,1.5-1.4,1.8l0,0c-0.1,0.1-0.1,0.2,0,0.3c0,0.1,0.1,0.1,0.2,0.2
				c0.2,0.1,0.3,0,0.9-0.3c-1.3,1.2-1.2,1.3-1.1,1.6c0,0.1,0.1,0.1,0.2,0.2c0.1,0,0.2,0.1,1.5-0.6c-0.3,0.2-0.5,0.5-0.7,0.7
				c-1.1,1-1.1,1.1-1,1.3c0,0.1,0.1,0.2,0.2,0.2H71c-0.4,0.3-0.4,0.4-0.3,0.6l0,0c0,0.1,0,0.2,0,0.3c0.1,0.1,0.1,0.2,0.2,0.2
				s0.3,0,0.7-0.2c-1.1,1.1-1,1.3-0.9,1.5c0,0.1,0.1,0.1,0.2,0.2c0.2,0.1,0.3,0,1.1-0.4c-0.1,0.1-0.1,0.1-0.2,0.2
				c-1.2,1.2-1.2,1.2-1.1,1.5l0,0c-0.1,0.1-0.1,0.3,0,0.4c0,0.1,0.1,0.1,0.2,0.2c0.2,0.1,0.2,0.1,1.4-0.6c-0.1,0.1-0.3,0.3-0.4,0.4
				c-1.4,1.3-1.5,1.5-1.3,1.8l0,0c-0.3,0.2-0.3,0.3-0.2,0.5c-0.2,0.2-0.1,0.2-0.1,0.4c0,0.1,0.1,0.1,0.2,0.2c-1,0.6-1,0.7-0.9,1
				c0.1,0.1,0.1,0.2,0.2,0.2c0.2,0,0.9-0.3,2.9-1.4c0.7-0.3,1.4-0.7,1.5-0.8L74.1,54l0.1-0.3l0,0c0.2-0.2,0.2-0.3,0.1-0.5l0,0
				c0-0.1,0-0.2-0.1-0.3l-0.1-0.1c0.1-0.1,0.1-0.3,0.1-0.4l0,0c0-0.1-0.1-0.2-0.2-0.2s-0.3-0.1-1.2,0.4c1.4-1.3,1.5-1.6,1.4-1.9l0,0
				c0.1-0.1,0.1-0.3,0-0.4c-0.1-0.1-0.1-0.2-0.2-0.2c-0.2,0-0.4,0-0.9,0.3c1.3-1.3,1.3-1.3,1.1-1.5c0-0.1-0.1-0.1-0.2-0.2
				c-0.2-0.1-0.3,0-1.5,0.7c-0.1,0-0.2,0.1-0.3,0.2c0.4-0.4,0.9-0.9,1.8-1.7c0.1-0.1,0.3-0.3,0.2-0.5l0,0c0-0.1,0-0.2,0-0.3
				s-0.1-0.2-0.2-0.2l0,0c0.3-0.3,0.3-0.4,0.2-0.6c-0.1-0.1-0.1-0.2-0.2-0.2c-0.2,0-0.4,0-0.9,0.3c1.1-1.1,1.3-1.4,1.1-1.7
				c0-0.1-0.1-0.1-0.1-0.1c-0.1-0.1-0.3-0.1-0.4,0c-0.4,0.2-0.8,0.4-1.1,0.6c0.4-0.4,0.9-0.8,1.1-1c0.7-0.6,0.7-0.6,0.5-0.9l0,0
				c0.1-0.1,0.1-0.3,0-0.4c-0.1-0.1-0.1-0.2-0.2-0.2c-0.2-0.1-0.5,0-1.1,0.4c1.3-1.3,1.5-1.5,1.3-1.8c0-0.1-0.1-0.1-0.2-0.2
				c-0.2-0.1-0.2-0.1-1,0.4c-0.1,0-0.2,0.1-0.3,0.2c1.4-1.3,1.7-1.6,1.5-1.9c0,0,0-0.1-0.1-0.1c0.1-0.1,0.2-0.3,0.1-0.5l0,0
				c0.1-0.1,0.1-0.3,0-0.4c0-0.1-0.1-0.1-0.2-0.2c-0.2-0.1-0.2-0.1-1.5,0.7l0.4-0.4c1.3-1.3,1.4-1.4,1.3-1.7c0-0.1-0.1-0.1-0.2-0.2
				c0.2-0.2,0.2-0.3,0.2-0.5v-0.1c-0.1-0.1-0.1-0.2-0.2-0.2c-0.2,0-0.4,0-0.6,0.1c1-0.9,1-0.9,0.9-1.1c0-0.1-0.1-0.1-0.2-0.2
				c-0.2,0-0.3,0-1.1,0.5l0.6-0.5c0.8-0.6,0.8-0.7,0.7-0.9c0-0.1-0.1-0.2-0.2-0.2c-0.2-0.1-0.4,0-1.4,0.6l-0.2,0.1l0.4-0.4
				c1.4-1.4,1.5-1.6,1.4-1.9c0-0.1-0.1-0.1-0.2-0.2c-0.1,0-0.1-0.1-0.6,0.2l0.5-0.4c0.2-0.1,0.4-0.3,0.2-0.5c0-0.1-0.1-0.2-0.2-0.2
				c-0.2-0.1-0.3,0-0.9,0.3c1.3-1.2,1.2-1.3,1.1-1.5c0,0,0,0,0-0.1c0.1-0.1,0.1-0.3,0-0.4c0-0.1-0.1-0.1-0.2-0.2
				c0.3-0.2,0.3-0.3,0.2-0.5C74,29,74,29,73.9,29s-0.2-0.1-0.8,0.3c1.1-1,1.2-1.2,1-1.4c0-0.1-0.1-0.1-0.2-0.2c-0.1,0-0.1,0-0.2,0
				c0.5-0.5,0.5-0.7,0.4-0.9c0-0.1-0.1-0.1-0.2-0.2c-0.1,0-0.2,0-0.9,0.3c0,0,0.1-0.1,0.2-0.1c1-0.8,1.1-0.9,1-1.1
				c0.6-0.3,1.2-0.7,2-1.2c0.6-0.3,1.1-0.5,1.7-0.7c3.7-1.7,5.1-2.3,5.3-2.8c0-0.1,0-0.2,0-0.3c-0.1-0.1-0.1-0.2-0.2-0.2
				s-0.3,0-0.4,0c0.1-0.1,0.2-0.4,0.1-0.5s-0.2-0.2-0.3-0.3c0,0,0,0-0.1,0c0-0.1,0-0.2,0-0.2c0-0.1-0.1-0.1-0.1-0.2c0,0,0,0,0-0.1
				C82.1,19.1,82,19,81.9,19c-0.5-0.1-1.8,0.6-5.7,2.8c-1.2,0.6-2.2,1.1-2.9,1.5c1.7-1.1,4.2-2.6,5.6-3.4c2.6-1.5,2.6-1.5,2.4-1.9
				c0-0.1-0.1-0.1-0.2-0.2v-0.1c0-0.1-0.1-0.1-0.2-0.2c-0.2-0.1-0.2-0.1-3,1.5c-0.1,0-0.2,0.1-0.3,0.2c3-1.9,2.9-2.1,2.7-2.4
				c-0.1-0.1-0.2-0.2-0.3-0.2c-0.2,0-0.4,0-0.5,0c0.3-0.3,0.3-0.4,0.2-0.6c-0.1-0.1-0.2-0.2-0.3-0.2c-0.6-0.2-2.3,0.8-5.6,2.8
				c-0.2,0.1-0.4,0.2-0.6,0.3c3-2.1,3.5-2.5,3.2-3c0-0.1-0.1-0.2-0.2-0.2s-0.1,0-1,0.4c-1.6,0.9-3,1.7-3.9,2.2l1.1-0.6
				c2.1-1.2,2.4-1.4,2.2-1.8c0-0.1-0.1-0.1-0.2-0.2c-0.2-0.1-0.2-0.1-1.4,0.7c-0.4,0.2-1,0.6-1.7,1c1.5-1.1,1.4-1.2,1.3-1.5
				c0-0.1-0.1-0.1-0.2-0.2c-0.2,0-0.2,0-1.1,0.5c-0.5,0.3-1.6,0.9-2.4,1.3c0.2-0.2,0.4-0.4,0.6-0.6c0.9-0.8,1-0.9,0.8-1.1
				c0-0.1-0.1-0.1-0.2-0.2c-0.1,0-0.2,0-0.4,0.1l-0.1-0.1h-0.1C68.9,15.7,68.6,15.9,67.5,16.5"/>
		</defs>
		<clipPath id="SVGID_00000132087055851586626420000003103173348276173473_">
			<use xlink:href="#SVGID_00000129188509120277806540000006714759686874225542_"  style="overflow:visible;"/>
		</clipPath>
		<g style="clip-path:url(#SVGID_00000132087055851586626420000003103173348276173473_);">
			
				<linearGradient id="SVGID_00000155835415595709147380000001922070512997468839_" gradientUnits="userSpaceOnUse" x1="-154.5247" y1="938.2235" x2="-154.179" y2="938.2235" gradientTransform="matrix(1.447349e-14 236.37 -236.37 1.447349e-14 221842.0469 36527.1016)">
				<stop  offset="0" style="stop-color:#BBBDBF"/>
				<stop  offset="0.13" style="stop-color:#C1C3C4"/>
				<stop  offset="0.3" style="stop-color:#D0D2D3"/>
				<stop  offset="0.37" style="stop-color:#C7C9CA"/>
				<stop  offset="0.47" style="stop-color:#AFB1B3"/>
				<stop  offset="0.58" style="stop-color:#929496"/>
				<stop  offset="0.81" style="stop-color:#CED0D1"/>
				<stop  offset="0.82" style="stop-color:#D0D2D3"/>
				<stop  offset="1" style="stop-color:#595A5C"/>
			</linearGradient>
			
				<rect x="65.2" y="15.5" style="fill:url(#SVGID_00000155835415595709147380000001922070512997468839_);" width="17.9" height="41"/>
		</g>
	</g>
</g>
<g>
	<g>
		<defs>
			<path id="SVGID_00000091701897292283472070000003571218236545720760_" d="M50.9,53.4c0.2-0.1,0.5-0.2,0.7-0.3l-1.1,0.6L50.9,53.4
				 M53.3,49.7L51,50.9C51.7,50.5,52.5,50,53.3,49.7 M59.5,47.4c-0.1,0.1-0.2,0.1-0.3,0.2c-0.1,0.1-0.2,0.1-0.4,0.1L59.5,47.4
				 M55.9,45.7l0.7-0.4c1.3-0.6,2.4-1.2,3.2-1.6L59.4,44c-0.7,0.3-1.5,0.8-2.7,1.5c-0.5,0.2-0.9,0.5-1.4,0.7L55.9,45.7 M39.3,16
				c-0.7,0.4-1.4,0.8-2.1,1.2c-0.1,0-0.2,0-0.3,0c-0.2,0.1-0.2,0.3-0.1,0.5c0.1,0.1,0.1,0.2,0.2,0.2c0.3,0.1,0.9-0.2,2.6-1.3
				c0.2-0.1,0.5-0.3,0.8-0.5c-0.6,0.7-0.8,1-0.6,1.2c0.1,0.1,0.1,0.2,0.3,0.2c0.1,0,0.2,0,0.2,0c0.1,0,0.3,0,1.1-0.4
				c-0.1,0.1-0.1,0.3,0,0.4c0,0.1,0.1,0.2,0.2,0.2c0.2,0.1,0.3,0,1.7-0.8l0.8-0.4c-0.1,0.2-0.2,0.3-0.3,0.5c-0.6,1-0.6,1-0.6,1.2
				c0,0.1,0.1,0.1,0.2,0.2h0.1c0.2,0.1,0.4,0,1.5-0.7c0.2-0.1,0.3-0.2,0.5-0.3c-1.1,1.2-1.1,1.4-1,1.6c0,0.1,0.1,0.1,0.2,0.2
				c0.1,0,0.1,0,0.4,0c-0.1,0.1-0.1,0.2,0,0.3c0,0.1,0.1,0.2,0.2,0.2c0.1,0,0.3,0,0.7-0.2c-0.4,0.3-0.4,0.4-0.3,0.6
				c0.1,0.1,0.1,0.2,0.2,0.2c0.3,0.1,0.6-0.1,1.7-0.7c-1,0.8-1.3,1.1-1.1,1.4c0,0.1,0.1,0.2,0.2,0.2c0.2,0,0.2,0,1.6-0.7
				c0.5-0.3,1.3-0.7,1.9-1c-0.3,0.3-0.6,0.5-0.9,0.8c-1.8,1.5-2.1,1.7-1.9,2.1c0,0,0,0.1,0.1,0.1c0,0.1,0,0.1,0.1,0.2
				s0.2,0.2,0.3,0.2c0.2,0.1,0.7,0,1.9-0.7c-1.4,1.1-1.6,1.5-1.4,1.8c0.1,0.1,0.2,0.2,0.3,0.2c0.3,0.1,0.9-0.1,2.4-1L51,23.3
				c-2.3,1.7-2.3,1.7-2.1,2l0.1,0.1c0,0.1,0,0.2,0,0.3c0,0,0,0,0,0.1s0,0.1,0.1,0.2c0,0,0,0,0,0.1s0,0.1,0.1,0.2
				c0,0.1,0.1,0.2,0.2,0.2h0.1c-0.2,0.2-0.2,0.3-0.1,0.4c0.1,0.1,0.2,0.2,0.3,0.2c0.2,0,0.4,0,0.6-0.1c-0.8,0.5-0.8,0.5-0.6,0.8
				c0,0,0,0.1,0.1,0.1c0,0.1,0,0.2,0,0.3v0.1c0,0.1,0,0.1,0,0.2s0,0.1,0,0.2c0.1,0.1,0.2,0.2,0.3,0.2c0.4,0.1,1.1-0.2,2.5-1.1
				c0.4-0.2,0.8-0.4,1.3-0.7l-0.5,0.3c-3.5,2.3-3.6,2.3-3.4,2.7l0,0c0,0.1,0,0.2,0,0.3c0,0,0,0.1,0.1,0.1c-0.1,0.1-0.1,0.3,0,0.4
				l0,0c0,0.1,0,0.2,0,0.2c0.1,0.1,0.2,0.2,0.3,0.2c-0.2,0.2-0.3,0.5-0.1,0.7c0,0.1,0.1,0.1,0.2,0.2c0.2,0.1,0.2,0.1,3-1.5
				c1.2-0.7,3.2-1.8,4.5-2.5c-1.3,0.8-3.7,2.2-7.4,4.2c0,0-0.1,0-0.1,0.1l0,0c-0.2,0.1-0.3,0.3-0.2,0.5l0,0c0.1,0.1,0.1,0.2,0.4,0.1
				l0,0l0.2-0.1l0.4-0.2l0.1-0.1c-1.2,0.8-1.2,1-1.1,1.3c0,0.1,0.1,0.1,0.1,0.2c-0.2,0.1-0.2,0.2-0.1,0.4l0,0c0,0.1,0,0.3,0,0.4
				c0,0.1,0.1,0.1,0.2,0.2c0.2,0.1,0.2,0.1,2.2-1c1.3-0.7,3.7-2,5.5-2.9c-1,0.6-2.2,1.3-3.2,1.8c-4.4,2.5-4.9,2.9-4.6,3.4
				c0.1,0.1,0.2,0.2,0.3,0.3c0.2,0,0.5,0,0.7-0.1c-1.1,0.7-1.1,0.9-1,1.1c0,0.3,0,0.5,0,0.8c0.1,0.1,0.1,0.2,0.2,0.2
				c0.2,0,0.3,0,0.5,0c-0.9,0.6-0.8,0.8-0.7,1l0,0v0.1c0,0.1,0,0.2,0,0.3c0,0,0,0,0,0.1s0,0.1,0,0.2c0,0.1,0,0.3,0.1,0.4
				c-0.1,0-0.1,0.1-0.1,0.2c0,0.1,0,0.2,0,0.3c0,0,0,0,0,0.1s0,0.3,0,0.4c0,0.1,0.1,0.2,0.2,0.2c0.1,0,0.3,0,1.1-0.3
				c-1.4,1-1.7,1.4-1.5,1.8c0,0.1,0.1,0.1,0.2,0.2c0.2,0.1,0.2,0.1,3.1-1.6c1.6-0.9,4.2-2.5,6.1-3.4c-0.7,0.4-1.5,0.9-2.3,1.4
				c-7.3,4.4-7.6,4.7-7.3,5.2l0,0c0,0.1-0.1,0.1-0.1,0.2c-0.1,0.1,0,0.3,0,0.4c0.1,0.1,0.2,0.2,0.3,0.3l0,0
				c-0.7,0.4-0.7,0.5-0.6,0.8c0,0.1,0.1,0.1,0.2,0.2c0.2,0.1,0.2,0.1,3.6-1.8c-3.9,2.4-4.3,2.8-4.2,3.1c0,0.1,0,0.1,0,0.2
				c0,0,0,0,0,0.1C49.1,49,49,49.1,49,49.2s0,0.2,0,0.3c0.1,0.1,0.2,0.2,0.3,0.2h0.1c-0.5,0.3-0.6,0.4-0.7,0.6c0,0.1,0,0.2,0,0.3
				c0.1,0.1,0.1,0.2,0.2,0.2c0.3,0.1,1.2-0.3,5.6-2.8c0.6-0.4,1.4-0.8,2-1.2l0.8-0.4c-1.8,1.1-3.9,2.4-5.5,3.4
				c-3.8,2.3-3.9,2.4-3.8,2.7c-0.2,0.2-0.4,0.4-0.5,0.6c0,0.1,0,0.2,0,0.3c-0.3,0.3-0.3,0.4-0.2,0.5c0,0.1,0.1,0.1,0.2,0.2
				c0.2,0.1,0.2,0.1,1.9-0.8c0.2-0.1,0.5-0.2,0.8-0.3l-0.8,0.5c-0.2,0.1-0.4,0.2-0.6,0.3C47,54,47,54,47,54.2l0,0
				c-0.2,0.1-0.3,0.3-0.4,0.5c0,0.1,0,0.1,0,0.2c-0.9,0.5-1.4,1-1.5,1.3c-0.1,0.1,0,0.3,0,0.4c0,0.1,0.1,0.2,0.2,0.2h0.1
				c0.5,0,2.2-0.8,11.1-5.6c1.5-0.8,2.8-1.5,3-1.6l-0.1-0.3v-0.1c0.5-0.3,0.7-0.5,0.8-0.7c0,0,0,0,0-0.1c0.1-0.1,0.2-0.2,0.2-0.3
				c0.1-0.1,0-0.3,0-0.4v-0.1c0.3-0.2,0.5-0.4,0.6-0.7c0-0.1,0-0.3,0-0.4c0.2-0.2,0.2-0.2,0.1-0.4c0-0.1-0.1-0.1-0.2-0.2
				c0.3-0.2,0.4-0.3,0.5-0.4c0-0.1,0-0.2,0-0.3c-0.1-0.1-0.2-0.2-0.3-0.3c-0.4,0-0.8,0-1.1,0.2c2.1-1.4,2.1-1.5,1.9-1.8
				c0-0.1-0.1-0.1-0.1-0.1c0.2-0.1,0.3-0.3,0.4-0.5c0-0.1,0-0.3,0-0.4l0,0c0.1-0.1,0.1-0.1,0.1-0.2c0-0.1,0-0.1,0-0.2
				c0-0.1,0-0.2,0-0.2c-0.1-0.1-0.2-0.2-0.3-0.2l0,0c-0.6-0.2-2.1,0.6-4.9,2.3c-0.4,0.2-0.8,0.4-1.3,0.7c1.8-1.1,3.6-2.2,4.7-2.8
				c2.2-1.3,2.2-1.3,2-1.6c0-0.1-0.1-0.2-0.2-0.2l0,0c0.4-0.3,0.4-0.6,0.3-0.8c0,0,0-0.1-0.1-0.1c0.1-0.1,0.1-0.1,0.1-0.2
				c0-0.1,0-0.2,0-0.3s-0.1-0.1-0.2-0.2c-0.2-0.1-0.2-0.1-2.9,1.5l-0.4,0.3c-0.5,0.2-1.1,0.5-1.6,0.7c-1.1,0.5-2.1,1-2.9,1.4
				c1.2-0.7,2.5-1.5,3.5-2.1c4.7-2.8,4.7-2.8,4.5-3.2c-0.1-0.1-0.2-0.2-0.3-0.2c-0.5-0.1-1.7,0.4-3.8,1.5l0.7-0.4
				c3.5-1.9,3.5-1.9,3.3-2.3l0,0l0,0c0-0.1,0-0.2,0-0.3l0,0l0,0c0-0.1,0-0.3,0-0.4c0-0.1,0-0.1,0-0.2l0,0c0-0.1,0-0.2,0-0.3
				c0,0,0-0.1-0.1-0.1l0,0c0-0.1,0-0.2,0-0.3c-0.1-0.1-0.2-0.2-0.3-0.3c-0.2,0-0.4,0-0.6,0c0.8-0.5,0.8-0.6,0.7-0.8
				c-0.1-0.1-0.1-0.2-0.1-0.3c0,0,0,0,0-0.1s0-0.2,0-0.2C62,32.1,61.9,32,61.8,32c-0.2-0.1-0.6,0-1.1,0.3c1.4-0.9,1.3-1,1.2-1.2
				c0-0.1-0.1-0.1-0.2-0.2c-0.2,0-0.2,0-1.8,0.9c-1.6,1-6,3.6-7.7,4.3c0.8-0.6,2.4-1.5,3.8-2.2c5-2.8,5.8-3.4,5.5-4.1l-0.1-0.1
				c0-0.1,0-0.2,0-0.3c0-0.1-0.1-0.1-0.2-0.2c0.1-0.1,0.1-0.2,0-0.3c0-0.1-0.1-0.2-0.2-0.2c-0.2-0.1-0.2-0.1-2.9,1.5
				c-1.4,0.8-3.9,2.3-5.5,3.1c1.4-0.9,3.9-2.3,5.4-3.2c3-1.7,3-1.7,2.8-2.1c-0.1-0.2-0.1-0.3-0.7,0c0.5-0.4,0.4-0.6,0.3-0.8
				c-0.1-0.1-0.1-0.2-0.2-0.2c-0.1,0-0.3,0-0.4,0c0.3-0.2,0.3-0.4,0.2-0.6c0,0,0-0.1-0.1-0.1v-0.1c0-0.1-0.1-0.1-0.2-0.2
				c0-0.1,0-0.2-0.1-0.2c0-0.1-0.1-0.1-0.1-0.1v-0.1c-0.1-0.1-0.2-0.2-0.3-0.2c-0.3-0.1-1,0.1-2,0.7c1.5-1,1.6-1.3,1.4-1.6
				c0,0,0-0.1-0.1-0.1l0,0l-0.1-0.1l0,0c0,0,0,0,0-0.1s-0.1-0.1-0.2-0.2c0-0.1,0-0.1-0.1-0.2c0-0.1-0.1-0.1-0.2-0.2
				c-0.1,0-0.2-0.1-0.8,0.3c0.5-0.4,0.5-0.6,0.4-0.8c0-0.1-0.1-0.1-0.2-0.2c-0.1,0-0.1,0-0.2,0c0-0.1,0-0.2,0-0.3
				c0-0.1-0.1-0.1-0.2-0.2c0,0,0,0,0-0.1s-0.1-0.1-0.2-0.2l0,0c-0.1-0.1-0.1-0.2-0.3-0.2l0,0v-0.1c-0.1-0.1-0.1-0.2-0.3-0.2
				c-0.3-0.1-0.9,0.1-2.7,1.1c2.1-1.5,2-1.6,1.9-1.9c0-0.1-0.1-0.1-0.2-0.2c-0.2-0.1-0.2-0.1-1.9,0.9c-0.9,0.5-2.6,1.5-3.5,2
				c0.6-0.5,1.7-1.3,2.4-1.9c1.9-1.5,2.2-1.6,2-2c0-0.1-0.1-0.2-0.2-0.2c0,0,0,0-0.1,0l0,0c0-0.1-0.1-0.1-0.2-0.2
				c-0.2-0.1-0.3-0.1-3.2,1.5c1.8-1.5,2.2-1.8,2-2.2c0-0.1-0.1-0.2-0.2-0.2c-0.2-0.1-0.3,0-2,0.9c1-0.8,1.2-1,1-1.4
				c0-0.1-0.1-0.2-0.2-0.2c-0.2-0.1-0.3,0-0.9,0.3c0.3-0.3,0.3-0.4,0.2-0.5s-0.1-0.2-0.2-0.2c-0.2,0-0.3,0-0.5,0.1
				c0-0.2-0.1-0.4-0.3-0.4c-0.2-0.1-0.2-0.1-2.2,1c-0.2,0.1-0.5,0.3-0.7,0.4c0.3-0.3,0.6-0.7,1-1.1c0.3-0.3,0.4-0.4,0.3-0.7
				c-0.1-0.1-0.1-0.2-0.2-0.2h-0.1c-0.1,0-0.2,0-0.3,0.1c-0.4,0.2-0.8,0.4-1.1,0.6c-0.4,0.2-0.8,0.3-1,0.5c0.8-1.2,0.8-1.3,0.7-1.4
				c0-0.1-0.1-0.2-0.2-0.2c-0.2,0-0.3,0-1,0.4c0.2-0.2,0.2-0.3,0.1-0.4c0-0.1-0.1-0.1-0.2-0.2c-0.1,0-0.1,0-0.2,0h-0.1
				c-0.1,0-0.2,0-0.5,0.2c-0.2,0.1-0.3,0.2-0.5,0.3l-0.6,0.3c-0.3,0.1-0.6,0.3-0.8,0.4c0.6-0.8,0.8-0.9,0.7-1.2
				c-0.1-0.1-0.1-0.2-0.2-0.2h-0.1C41.3,14.9,40.8,15.2,39.3,16"/>
		</defs>
		<clipPath id="SVGID_00000078743024364101518950000000300384620500146102_">
			<use xlink:href="#SVGID_00000091701897292283472070000003571218236545720760_"  style="overflow:visible;"/>
		</clipPath>
		<g style="clip-path:url(#SVGID_00000078743024364101518950000000300384620500146102_);">
			
				<linearGradient id="SVGID_00000103251081060257568720000017080228263127207329_" gradientUnits="userSpaceOnUse" x1="-154.5239" y1="938.0266" x2="-154.1781" y2="938.0266" gradientTransform="matrix(1.447226e-14 236.35 -236.35 1.447226e-14 221752.2969 36523.7148)">
				<stop  offset="0" style="stop-color:#BBBDBF"/>
				<stop  offset="0.13" style="stop-color:#C1C3C4"/>
				<stop  offset="0.3" style="stop-color:#D0D2D3"/>
				<stop  offset="0.37" style="stop-color:#C7C9CA"/>
				<stop  offset="0.47" style="stop-color:#AFB1B3"/>
				<stop  offset="0.58" style="stop-color:#929496"/>
				<stop  offset="0.81" style="stop-color:#CED0D1"/>
				<stop  offset="0.82" style="stop-color:#D0D2D3"/>
				<stop  offset="1" style="stop-color:#595A5C"/>
			</linearGradient>
			
				<rect x="36.8" y="14.9" style="fill:url(#SVGID_00000103251081060257568720000017080228263127207329_);" width="25.8" height="41.9"/>
		</g>
	</g>
</g>
<g>
	<g>
		<defs>
			<path id="SVGID_00000144325201624686330500000000341523731331654814_" d="M55.8,53.1c-1.1,0.7-2.6,1.5-4.1,2.3
				C53.1,54.5,54.6,53.7,55.8,53.1 M24.8,50.9l-1,0.6C24.1,51.3,24.5,51.1,24.8,50.9 M23.1,39.7c1.4-0.7,2.4-1.2,3.2-1.6
				c-1.1,0.6-2.4,1.3-3.5,1.9c-0.6,0.3-1.1,0.6-1.6,0.8C21.8,40.5,22.4,40.1,23.1,39.7 M23.1,36.9l0.8-0.5c1.3-0.7,2.4-1.4,3.1-1.9
				c0.3-0.1,0.5-0.3,0.8-0.4c-0.8,0.8-3.8,2.4-6.1,3.6C22.2,37.4,22.6,37.2,23.1,36.9 M22.4,23.3c0.3-0.1,0.6-0.2,0.9-0.3
				c-0.7,0.4-1.3,0.7-1.8,1.1l0,0C21.8,23.7,22.1,23.4,22.4,23.3 M30.1,19.2c0.1,0,0.2-0.1,0.3-0.1l0.1-0.1
				c-0.4,0.2-0.8,0.5-1.3,0.7L28,20.5c-0.3,0.2-0.7,0.3-1,0.5C27.9,20.5,28.9,19.9,30.1,19.2 M33.5,19.2
				C33.4,19.2,33.4,19.2,33.5,19.2c0.1-0.1,0.4-0.2,0.6-0.3C33.9,19,33.8,19.1,33.5,19.2C33.5,19.3,33.5,19.2,33.5,19.2 M37.5,15.1
				L37.5,15.1c-0.1-0.2-0.2-0.2-0.3-0.3c-0.2,0-0.5,0-0.7,0.1c-0.1-0.1-0.2-0.1-0.2-0.1c-0.2,0-0.5-0.1-1.6,0.3
				c-0.5,0-1.5,0.5-3.1,1.5c0-0.1,0-0.1-0.1-0.2s-0.1-0.2-0.3-0.2c-0.2-0.1-0.6-0.2-4.6,2.3l-0.1,0.1l0.2,0.3l0,0
				c-2.2,1.1-3.2,1.7-3.4,2.2v0.1v0.1c-0.5,0.3-0.7,0.5-0.8,0.7c0,0.1,0,0.2,0,0.2c-0.5,0.3-0.5,0.4-0.6,0.5v0.1
				c-0.6,0.4-1,0.8-1.1,1.2c-0.1,0.2-0.1,0.4,0,0.5l0,0c-0.6,0.5-1,0.9-1.2,1.2c0,0.1,0,0.2,0,0.2c-0.1,0.1-0.2,0.2-0.2,0.3
				c-0.1,0.1-0.1,0.3,0,0.5c0,0,0,0,0,0.1c-0.5,0.4-0.5,0.5-0.4,0.6l0,0c-0.1,0.1-0.3,0.2-0.3,0.3c0,0,0,0,0,0.1
				c-0.1,0.1-0.2,0.2-0.2,0.3c-0.1,0.1,0,0.3,0,0.5c0.1,0.1,0.2,0.2,0.3,0.2c0.5,0.1,1.7-0.5,6.2-3.1c1.1-0.6,2.3-1.4,3.4-2
				c0.8-0.4,1.5-0.7,2-0.9c-0.3,0.2-0.8,0.5-1.3,0.9l-0.7,0.4c-1.4,0.6-3.4,1.7-6.2,3.4c-0.8,0.4-1.7,0.8-2.6,1.3
				c-1.4,0.7-1.4,0.7-1.5,0.9c0,0.1,0,0.2,0,0.2c-0.2,0.2-0.2,0.2-0.2,0.3c-0.1,0.1-0.1,0.2-0.2,0.3c-0.1,0.1-0.1,0.3,0,0.4
				s0.2,0.2,0.3,0.2c0.3,0,0.6,0,0.8-0.2c-1.6,1-1.5,1.1-1.4,1.4c0,0.1,0.1,0.1,0.2,0.2c0.1,0,0.2,0,0.3,0c-0.6,0.5-0.9,0.9-0.8,1.2
				l0,0c0,0.1,0,0.2,0,0.3c0.1,0.1,0.2,0.2,0.3,0.3c0.3,0.1,0.8-0.1,1.6-0.5c-2.3,1.4-2.3,1.5-2.1,1.8c0,0,0,0,0,0.1l-0.1,0.1
				c0,0.1,0,0.2,0,0.3c0,0,0,0,0,0.1l-0.1,0.1c0,0.1,0,0.2,0,0.3s0.1,0.1,0.2,0.2c0.1,0,0.2,0,0.6-0.2c-0.9,0.6-1.1,1-0.9,1.3
				c0,0.1,0,0.2,0,0.3c-0.1,0.1-0.1,0.3,0,0.4c0.1,0.1,0.1,0.2,0.2,0.2c0.2,0.1,0.5,0,1.6-0.6c1.9-0.9,3.7-1.9,5.5-2.9
				c0.6-0.3,1.1-0.5,1.6-0.7c-0.6,0.3-1.2,0.7-2,1.2c-1.4,0.8-3.3,1.8-5.7,3c-1.1,0.6-1.1,0.6-1.2,0.7c0,0.1,0,0.2,0,0.3
				c0.1,0.1,0.2,0.2,0.3,0.3c0.1,0,0.2,0,0.3,0c-0.7,0.4-0.7,0.5-0.6,0.8c0,0.1,0.1,0.2,0.2,0.2c0.2,0.1,0.9-0.1,3.5-1.5
				c-3.7,2.4-3.7,2.5-3.5,2.8l0,0c0,0.1,0,0.2,0,0.2c0,0.1,0.1,0.1,0.2,0.2c0.1,0,0.2,0,0.6-0.2c0.5-0.2,1-0.4,1.5-0.6
				c-1.9,1.1-2.3,1.6-2.1,2.1c0.1,0.1,0.2,0.2,0.3,0.2c0.5,0.1,1.8-0.5,4.2-1.8l-1.8,1.1c-2.5,1.6-2.5,1.6-2.3,1.9
				c0.1,0.1,0.2,0.2,0.3,0.3c0.3,0,0.6,0,0.9-0.1c-1,0.6-1,0.8-0.9,1.1c0,0.1,0.1,0.2,0.2,0.2s0.3,0,0.6-0.1
				c-0.6,0.4-0.6,0.6-0.5,0.8c0.1,0.1,0.1,0.2,0.2,0.2s0.1,0,0.2,0c-0.1,0.1-0.1,0.1-0.2,0.2c0,0.1,0,0.2,0,0.3s0.1,0.2,0.2,0.2
				c0.2,0.1,0.5,0,2.7-1.3c0.9-0.5,1.8-0.9,2.5-1.3c-0.8,0.5-1.6,0.9-2.2,1.3c-3,1.8-3,1.8-2.8,2.1c0.1,0.1,0.1,0.2,0.2,0.2
				s0.1,0,0.2,0c-0.2,0.2-0.2,0.3-0.1,0.5c0.1,0.1,0.2,0.2,0.3,0.2c0.3,0.1,0.9-0.1,1.7-0.5c-1.2,0.8-1.3,1.1-1.2,1.4l0.1,0.1
				c0,0,0,0,0,0.1c0.1,0.1,0.2,0.2,0.3,0.2c0.2,0,0.5,0,0.7-0.1c-0.5,0.4-0.5,0.5-0.4,0.7c0,0.1,0.1,0.1,0.2,0.2
				c0.1,0,0.1,0,0.4-0.1c-0.2,0.1-0.2,0.4-0.1,0.6c0.1,0.1,0.2,0.2,0.3,0.2c0.4,0.1,1.3-0.3,3.3-1.5c-2.8,2-2.8,2-2.6,2.4
				c0,0.1,0.1,0.2,0.2,0.2c0.2,0,0.3,0,0.9-0.3c-0.4,0.4-0.5,0.6-0.4,0.9c0,0.1,0.1,0.1,0.2,0.2l0,0c0,0,0,0,0,0.1s0.1,0.1,0.2,0.2
				c0.2,0.1,0.2,0.1,1.6-0.7c-1.2,0.8-1.2,0.9-1,1.2c0.1,0.1,0.2,0.2,0.3,0.2l0,0c0,0,0,0,0,0.1c0.1,0.1,0.2,0.2,0.3,0.2
				c0.1,0.1,0.3,0.1,0.4,0c-0.1,0.1-0.1,0.3,0,0.4c0.1,0.1,0.1,0.2,0.3,0.2H25l0,0c0,0.1,0.1,0.1,0.1,0.1l0.1,0.1
				c0.3,0.1,0.8-0.2,2.6-1.3l0,0c-1.6,1.2-1.9,1.5-1.7,1.9c0,0.1,0.1,0.1,0.2,0.2c0.1,0,0.1,0,0.2,0V58c0,0.1,0.1,0.1,0.2,0.2
				c0.2,0.1,0.4,0,2.7-1.2c-1.6,1.5-1.6,1.5-1.5,1.7c0,0.1,0.1,0.1,0.2,0.2c0.2,0.1,0.4,0,1.8-0.9c0.3-0.2,0.8-0.5,1.2-0.7
				c-0.1,0.1-0.3,0.3-0.4,0.4c-1.2,1.2-1.4,1.4-1.2,1.7c0,0.1,0.1,0.2,0.2,0.2c0.2,0.1,0.4,0,1.5-0.6c-0.5,0.4-0.5,0.6-0.4,0.8
				c0.1,0.1,0.1,0.2,0.2,0.2s0.2,0,0.3,0c0,0.1,0.1,0.1,0.2,0.1s0.3,0,0.6-0.2c0,0.1,0,0.2,0,0.2c0,0.1,0.1,0.2,0.2,0.2
				c0.2,0.1,0.5-0.1,1.7-0.8c0.2-0.1,0.5-0.3,0.7-0.4c-0.1,0.1-0.1,0.2-0.2,0.2c-0.7,0.8-0.8,0.9-0.7,1.2c0.1,0.1,0.1,0.2,0.2,0.2
				c0.2,0.1,0.5-0.1,1.7-0.8c0.3-0.2,0.8-0.5,1.2-0.7c-0.5,1.4-0.5,1.5-0.4,1.6s0.1,0.2,0.2,0.2c0.3,0.1,0.7-0.1,2.4-1.2
				c0.5-0.3,1.2-0.8,1.8-1.1c-0.1,0.1-0.2,0.3-0.3,0.4c-1.1,1.4-1.1,1.4-1,1.7c0.1,0.1,0.2,0.2,0.3,0.2s0.1,0,0.2,0
				c0.4,0,1.3-0.3,2.8-1.1c-0.2,0.2-0.2,0.3-0.1,0.5c0,0.1,0.1,0.1,0.2,0.2c0.2,0.1,0.7-0.1,3.1-1.3c0,0.1,0,0.2,0.1,0.2
				c0,0.1,0.1,0.2,0.2,0.2c0.1,0,0.2,0,0.5-0.1c0.2,0,0.6-0.1,3.8-1.9c0.4-0.2,0.8-0.4,0.9-0.5v-0.1c0.7-0.3,0.7-0.4,0.8-0.5
				c0-0.1,0-0.2,0-0.2c2.4-1.3,2.8-1.7,2.6-2.2c0-0.1-0.1-0.1-0.2-0.2c1.9-1.1,2.3-1.6,2.1-2.1c-0.1-0.1-0.1-0.2-0.2-0.2
				c-0.4-0.1-1.5,0.5-7.1,3.6c-3,1.7-7.2,4.1-8.9,4.8c0.2-0.2,0.3-0.5,0.5-0.7c1.1-1.4,1.1-1.4,0.9-1.6c-0.1-0.1-0.2-0.2-0.3-0.2
				c-0.4-0.1-1.1,0.3-3.1,1.5c-0.5,0.3-1,0.6-1.4,0.9c0.1-0.3,0.3-0.8,0.5-1.3v-0.1c0-0.1,0-0.1,0-0.1c-0.1-0.1-0.1-0.2-0.2-0.2
				c-0.3-0.1-0.7,0.1-2.1,1c0.5-0.6,0.6-0.8,0.5-1.1c-0.1-0.1-0.1-0.2-0.2-0.2c-0.2,0-0.4,0-0.6,0.1c0-0.1,0-0.1,0-0.2
				c-0.1-0.1-0.1-0.2-0.2-0.2c0,0-0.1,0-0.2,0c0-0.1-0.1-0.1-0.2-0.2c-0.2-0.1-0.3,0-1.6,0.8c0,0-0.1,0-0.1,0.1
				c0.9-0.8,1-0.9,0.9-1.2c0-0.1-0.1-0.1-0.2-0.2c-0.2,0-0.2,0-1.2,0.5l-1.3,0.7l0.1-0.1c1.3-1.3,1.5-1.6,1.4-1.9
				c-0.1-0.1-0.1-0.2-0.2-0.2c-0.3-0.1-0.6,0.1-2,0.9c1.5-1.3,1.5-1.3,1.3-1.6c0-0.1-0.1-0.1-0.2-0.2c0,0,0,0-0.1,0
				c0-0.1,0-0.1,0-0.1c0-0.1-0.1-0.1-0.2-0.2c-0.1,0-0.1,0-0.7,0.3l-2.3,1.2c0.3-0.2,0.5-0.4,0.7-0.6c1.7-1.2,1.9-1.4,1.7-1.8
				c0,0,0-0.1-0.1-0.1l-0.1-0.1c0-0.1,0-0.1-0.1-0.2c-0.1-0.1-0.2-0.2-0.3-0.2c-0.1,0-0.1,0-0.2,0c0.2-0.2,0.2-0.3,0.1-0.5
				c0-0.1-0.1-0.1-0.1-0.1c0-0.1,0-0.1,0-0.2c0-0.1-0.1-0.1-0.2-0.2c-0.2-0.1-0.2-0.1-1.5,0.7c-0.3,0.2-0.6,0.3-1,0.6
				c2.5-1.6,2.5-1.6,2.3-1.9c0,0,0-0.1-0.1-0.1c0-0.1,0-0.2-0.1-0.3c-0.2-0.3-0.3-0.2-0.8,0.1l-2.8,1.5c0.5-0.3,0.9-0.5,1.2-0.8
				c2.2-1.3,2.2-1.4,2.1-1.7c-0.1-0.1-0.2-0.2-0.3-0.2c-0.4-0.1-1.1,0.2-2.8,1.2c2.8-2.1,2.8-2.1,2.7-2.4c0-0.1-0.1-0.2-0.2-0.2
				s-0.2,0-0.2,0c0.3-0.3,0.3-0.4,0.2-0.6C28.2,48.1,28.1,48,28,48c-0.2,0-0.4,0-1,0.2c1.2-0.7,1.1-0.8,1-1l0,0c0-0.1,0-0.1,0-0.2
				c0-0.1-0.1-0.1-0.2-0.2c-0.1,0-0.2-0.1-1.9,0.8c-0.1,0-0.2,0.1-0.3,0.1l-1.9,0.9c0.2-0.1,0.3-0.2,0.5-0.3
				c3.6-2.3,3.8-2.5,3.6-2.9c0-0.1-0.1-0.1-0.2-0.2h-0.1c0.3-0.3,0.3-0.5,0.2-0.7c-0.1-0.1-0.2-0.2-0.3-0.2c-0.2,0-0.4,0-0.6,0.1
				c0.8-0.6,0.8-0.8,0.7-1c0-0.1-0.1-0.1-0.2-0.2c0.1-0.1,0.1-0.1,0.1-0.2c0.1-0.1,0-0.3,0-0.4c-0.1-0.1-0.1-0.2-0.2-0.2h-0.1
				c0.3-0.3,0.4-0.5,0.3-0.8c0-0.1-0.1-0.1-0.2-0.2c-0.2-0.1-0.2-0.1-3.5,1.7c3.6-2.1,3.9-2.5,3.7-2.9c0-0.1-0.1-0.1-0.2-0.2
				c-0.2-0.1-0.2-0.1-2.1,1.1c-1.3,0.8-4.2,2.5-6.1,3.5c0.1-0.1,0.3-0.2,0.4-0.3c8.3-5.3,8.2-5.4,8-5.8c0-0.1-0.1-0.2-0.2-0.2
				c-0.2-0.1-0.2-0.1-2.9,1.5c-1.9,1.1-5.6,3.2-7,3.8c0.8-0.7,3-1.8,4.7-2.7c4.6-2.4,5.8-3.2,5.5-3.9c0,0,0,0,0-0.1s0-0.2,0-0.3
				c-0.1-0.1-0.1-0.2-0.3-0.2c-0.3-0.1-0.7,0.1-1.6,0.6c-1.2,0.5-2.3,1.1-3.4,1.8c1.1-0.7,2.1-1.4,2.9-1.9c2.6-1.6,2.6-1.6,2.4-1.9
				c0-0.1-0.1-0.1-0.2-0.2l0,0c0.4-0.4,0.5-0.7,0.3-0.9c0-0.1-0.1-0.2-0.2-0.2c0.1-0.1,0.3-0.3,0.3-0.5c0-0.1,0-0.2,0-0.3l0,0
				c0.1-0.1,0.1-0.3,0-0.4c0,0,0,0,0-0.1s0-0.2,0-0.3c-0.1-0.1-0.2-0.2-0.3-0.3c-0.1,0-0.2,0-0.4,0c1.1-0.6,1.1-0.8,0.9-1.1
				c0,0,0-0.1-0.1-0.1c0.2-0.2,0.2-0.2,0.2-0.4l0.1-0.1c0-0.1,0-0.3,0-0.4s-0.1-0.1-0.2-0.2c-0.3-0.1-0.6,0.1-4.2,2.2
				c-1.4,0.8-3.5,2-5,2.8c1-0.6,2.2-1.4,3.3-2c6.1-3.6,6.7-4,6.6-4.4l0,0c0-0.1,0-0.2,0-0.3c-0.1-0.1-0.1-0.2-0.2-0.2
				c-0.2,0-0.4,0-0.6,0.1c-0.8,0.1-2.3,1-4.7,2.5c-2.1,1-3.5,1.8-4.6,2.4c2-1.3,5.2-3,7.1-3.9c3.6-1.9,3.6-1.9,3.4-2.3
				c0-0.1-0.1-0.2-0.2-0.2c-0.2-0.1-0.6,0.1-2.7,1.2c3.2-1.9,3.6-2.1,3.5-2.4c0.1-0.1,0.1-0.2,0.2-0.3c0.1-0.1,0.1-0.3,0-0.4
				c0.3-0.3,0.3-0.3,0.2-0.5c0,0,0-0.1-0.1-0.1c0.3-0.2,0.6-0.5,0.8-0.9c0-0.1,0-0.2,0-0.3c0.2-0.1,0.3-0.3,0.4-0.5c0,0,0,0,0-0.1
				l0,0c0-0.1,0-0.2,0-0.3c0,0,0,0,0-0.1c0.6-0.4,0.6-0.5,0.6-0.6c1.3-0.6,1.9-1.1,2.1-1.5c0.1-0.1,0.1-0.3,0-0.5
				c-0.1-0.1-0.2-0.2-0.3-0.2c-0.2,0-0.3,0-0.5,0c4.2-2,5.3-2.6,5.5-3c0-0.1,0-0.2,0-0.3c-0.1-0.1-0.2-0.2-0.3-0.2s-0.1,0-0.2,0
				C38.4,14.8,37.9,14.9,37.5,15.1"/>
		</defs>
		<clipPath id="SVGID_00000104689397483927346560000003215407486518573228_">
			<use xlink:href="#SVGID_00000144325201624686330500000000341523731331654814_"  style="overflow:visible;"/>
		</clipPath>
		<g style="clip-path:url(#SVGID_00000104689397483927346560000003215407486518573228_);">
			
				<linearGradient id="SVGID_00000111874134778608939620000012532437346087606187_" gradientUnits="userSpaceOnUse" x1="-154.5255" y1="937.9297" x2="-154.1797" y2="937.9297" gradientTransform="matrix(1.448267e-14 236.52 -236.52 1.448267e-14 221876.5 36550.3555)">
				<stop  offset="0" style="stop-color:#BBBDBF"/>
				<stop  offset="0.13" style="stop-color:#C1C3C4"/>
				<stop  offset="0.3" style="stop-color:#D0D2D3"/>
				<stop  offset="0.37" style="stop-color:#C7C9CA"/>
				<stop  offset="0.47" style="stop-color:#AFB1B3"/>
				<stop  offset="0.58" style="stop-color:#929496"/>
				<stop  offset="0.81" style="stop-color:#CED0D1"/>
				<stop  offset="0.82" style="stop-color:#D0D2D3"/>
				<stop  offset="1" style="stop-color:#595A5C"/>
			</linearGradient>
			
				<rect x="16.6" y="14.7" style="fill:url(#SVGID_00000111874134778608939620000012532437346087606187_);" width="41.5" height="46"/>
		</g>
	</g>
</g>
<path class="st26" d="M39.6,61c-6.5,0-12.4-2.3-16.6-6.5s-6.6-10.2-6.6-16.8c0-13.5,9.7-23.3,23.1-23.3s23.1,9.8,23.1,23.3
	c0,6.6-2.3,12.6-6.6,16.8S46.1,61,39.6,61 M39.6,15.6c-12.7,0-22,9.3-22,22.1c0,13,9,22.1,22,22.1s22-9.1,22-22.1
	C61.6,24.9,52.3,15.6,39.6,15.6 M104.1,61h-1.8c-0.2,0-0.3-0.1-0.5-0.2L74.4,27.2v24.1c0,4.2,1,5.3,5.5,5.7c0.3,0,0.5,0.3,0.5,0.6
	v1.6c0,0.3-0.3,0.6-0.6,0.6H65.4c-0.3,0-0.6-0.3-0.6-0.6l0,0v-1.6c0-0.3,0.2-0.5,0.5-0.6c3.8-0.4,5.1-0.8,5.1-4.5V22.4
	c-3.4-4.2-4.3-4.2-4.8-4.2c-0.3,0-0.6-0.3-0.6-0.6l0,0V16c0-0.3,0.3-0.6,0.6-0.6l0,0H79c0.2,0,0.3,0.1,0.5,0.2l21.2,26.2V23.9
	c0-3.8-0.7-5.4-5.4-5.8c-0.3,0-0.5-0.3-0.5-0.6V16c0-0.3,0.3-0.6,0.6-0.6l0,0H109c0.3,0,0.6,0.3,0.6,0.6l0,0v1.6
	c0,0.3-0.2,0.5-0.5,0.6c-4.3,0.5-4.5,1.8-4.5,4.5v37.6C104.6,60.7,104.4,61,104.1,61C104,61,104,61,104.1,61 M102.5,59.8h0.9V22.7
	c0-3.4,0.7-5,5-5.6v-0.5H95.9v0.5c5,0.5,5.9,2.8,5.9,6.9v19.4c0,0.3-0.3,0.6-0.6,0.6l0,0h-0.1c-0.2,0-0.3-0.1-0.4-0.2l-22-27.2H66.2
	v0.5c1,0.2,2.3,1.1,5.3,4.8c0.1,0.1,0.1,0.2,0.1,0.3v30.3c0,4.5-2.1,5.2-5.6,5.6v0.5h13.3v-0.5c-4.7-0.6-6.1-2.2-6.1-6.8V25.7
	c0-0.3,0.3-0.6,0.6-0.6l0,0h0.1c0.2,0,0.3,0.1,0.5,0.2L102.5,59.8z M148.6,59.8h-37.3c-0.3,0-0.6-0.3-0.6-0.6v-1.6
	c0-0.3,0.2-0.5,0.5-0.6l0,0c3.6-0.4,5-0.5,5-4V22.1c0-3.6-2.1-3.8-5-4h-0.1c-0.3,0-0.5-0.3-0.5-0.6V16c0-0.3,0.3-0.6,0.6-0.6l0,0
	H148c0.3,0,0.6,0.3,0.6,0.6l0,0v12.8c0,0.3-0.3,0.6-0.6,0.6l0,0h-1.6c-0.3,0-0.5-0.2-0.6-0.5c-1.4-8.6-5.6-10.2-14-10.2
	c-3.6,0-4.1,0.3-4.1,2.4v14.2c5.4,0,8.3-1.5,9.2-9c0-0.3,0.3-0.5,0.6-0.5h1.7c0.3,0,0.6,0.3,0.6,0.6l0,0V48c0,0.3-0.3,0.6-0.6,0.6
	h-1.7c-0.3,0-0.5-0.2-0.6-0.5c-0.7-7.6-3.8-9.3-9.2-9.4v14.9c0,2.3,0.7,3,4.8,3c5.8,0,12.2-1.3,16.2-11c0.1-0.2,0.3-0.3,0.5-0.3h1.8
	c0.2,0,0.3,0.1,0.5,0.2c0.1,0.1,0.2,0.3,0.1,0.5l-2.5,13.3C149.2,59.6,148.9,59.8,148.6,59.8 M112,58.6h36.2l2.3-12.1h-0.7
	c-4.3,10-11.4,11.3-17.1,11.3c-3.9,0-5.9-0.6-5.9-4.1V38.2c0-0.3,0.3-0.6,0.6-0.6c6,0,9.9,1.7,10.9,9.9h0.5V27.1h-0.6
	c-1.1,8-4.7,9.5-10.5,9.5h-0.3c-0.3,0-0.6-0.3-0.6-0.6l0,0V21.2c0-3.4,1.9-3.6,5.2-3.6c8.7,0,13.5,1.7,15.1,10.7h0.5V16.6H112v0.5
	c2.7,0.2,5.6,0.6,5.6,5.1v30.9c0,4.3-2.3,4.7-5.6,5.1L112,58.6z M39.6,58.9c-4.9,0-8.4-2.9-10.3-8.6c-1.4-4.3-1.6-9.2-1.6-12.5
	c0-6.4,1.2-21.2,11.9-21.2s11.9,14.8,11.9,21.2c0,3.3-0.2,8.2-1.6,12.5C48,56,44.5,58.9,39.6,58.9 M39.6,17.8
	c-9.7,0-10.7,14-10.7,20c0,13.3,3.6,20,10.7,20s10.7-6.7,10.7-20C50.3,31.7,49.3,17.8,39.6,17.8"/>
<polygon class="st26" points="113.5,74.7 53.2,0.6 53.6,0.3 113.9,74.3 "/>
<polygon class="st26" points="106.4,50.5 70.4,6 70.8,5.6 106.9,50.1 "/>
<rect x="101" y="1.9" class="st26" width="0.6" height="46.5"/>
<rect x="103.8" y="7.2" class="st26" width="0.6" height="62.1"/>
<rect x="102.2" y="59" class="st26" width="55.5" height="0.6"/>
<rect x="98.8" y="60.1" class="st26" width="9" height="0.6"/>
<rect x="111.1" y="55.4" class="st26" width="0.6" height="6.4"/>
<rect x="61.6" y="59" class="st26" width="25.9" height="0.6"/>
<rect x="65.1" y="54.6" class="st26" width="0.6" height="6.7"/>
<rect x="79.5" y="55.2" class="st26" width="0.6" height="6.7"/>
<rect x="65.3" y="12.6" class="st26" width="0.6" height="10"/>
<rect x="56.5" y="15.7" class="st26" width="27.8" height="0.6"/>
<rect x="89.1" y="15.7" class="st26" width="73.2" height="0.6"/>
<rect x="73.3" y="21.8" class="st26" width="0.6" height="42.9"/>
<rect x="70.7" y="18.4" class="st26" width="0.6" height="38.9"/>
<rect x="116.7" y="11" class="st26" width="0.6" height="56.3"/>
<rect x="127" y="5" class="st26" width="0.6" height="58.1"/>
<rect x="138.9" y="22.1" class="st26" width="0.6" height="29.9"/>
<rect x="147.8" y="13.6" class="st26" width="0.6" height="18.2"/>
<rect x="143.9" y="28.6" class="st26" width="8.4" height="0.6"/>
<rect x="135" y="26.3" class="st26" width="7" height="0.6"/>
<rect x="145.7" y="45.6" class="st26" width="9" height="0.6"/>
<rect x="135.3" y="47.8" class="st26" width="9" height="0.6"/>
<rect x="95.1" y="13.4" class="st26" width="0.6" height="6.7"/>
<rect x="108.7" y="12.2" class="st26" width="0.6" height="6.5"/>
<rect x="111.1" y="13.4" class="st26" width="0.6" height="6.7"/>
<polygon class="st26" points="148.1,63.4 147.5,63.2 152.2,39.7 152.8,39.8 "/>
<path class="st26" d="M39.7,32.8c-4.4,0-8-3.6-8-8s3.6-8,8-8s8,3.6,8,8S44.1,32.8,39.7,32.8L39.7,32.8 M39.7,17.5
	c-4.1,0-7.3,3.3-7.3,7.3c0,4.1,3.3,7.3,7.3,7.3c4.1,0,7.3-3.3,7.3-7.3l0,0C47,20.8,43.7,17.5,39.7,17.5"/>
<path class="st26" d="M129.1,36.3c-4.8,0-8.7-3.9-8.7-8.7s3.9-8.7,8.7-8.7c4.8,0,8.7,3.9,8.7,8.7l0,0
	C137.8,32.4,133.9,36.3,129.1,36.3 M129.1,19.5c-4.5,0-8.1,3.6-8.1,8.1s3.6,8.1,8.1,8.1s8.1-3.6,8.1-8.1
	C137.2,23.2,133.6,19.5,129.1,19.5L129.1,19.5"/>
<path class="st26" d="M129.1,55.3c-4.8,0-8.7-3.9-8.7-8.7s3.9-8.7,8.7-8.7c4.8,0,8.7,3.9,8.7,8.7S133.9,55.3,129.1,55.3 M129.1,38.5
	c-4.5,0-8.1,3.6-8.1,8.1s3.6,8.1,8.1,8.1s8.1-3.6,8.1-8.1C137.2,42.1,133.6,38.5,129.1,38.5"/>
<path class="st26" d="M135.3,40.8c-6.4,0-11.5-5.2-11.5-11.6s5.2-11.5,11.6-11.5c6.4,0,11.5,5.2,11.5,11.6
	C146.8,35.7,141.7,40.8,135.3,40.8 M135.3,18.3c-6,0-10.9,4.9-10.9,10.9s4.9,10.9,10.9,10.9s10.9-4.9,10.9-10.9
	S141.3,18.3,135.3,18.3"/>
<path class="st26" d="M39.7,58.4c-4.4,0-8-3.6-8-8s3.6-8,8-8s8,3.6,8,8l0,0C47.6,54.9,44.1,58.4,39.7,58.4 M39.7,43.1
	c-4.1,0-7.3,3.3-7.3,7.3s3.3,7.3,7.3,7.3c4.1,0,7.3-3.3,7.3-7.3l0,0C47,46.4,43.7,43.1,39.7,43.1"/>
<path class="st26" d="M39.7,47.9c-6.3,0-11.3-5.1-11.3-11.4s5.1-11.3,11.4-11.3s11.3,5.1,11.3,11.4C51,42.8,46,47.9,39.7,47.9
	 M39.7,25.8c-5.9,0-10.8,4.8-10.8,10.7s4.8,10.8,10.7,10.8s10.8-4.8,10.8-10.7C50.4,30.6,45.6,25.8,39.7,25.8"/>
<path class="st26" d="M25.7,59.3c-14,0-25.4-11.4-25.3-25.4c0-14,11.4-25.4,25.4-25.3c14,0,25.3,11.4,25.3,25.4
	C51,48,39.7,59.3,25.7,59.3 M25.7,9.2C12,9.2,0.9,20.3,0.9,34C1,47.6,12,58.7,25.7,58.7S50.4,47.6,50.4,34
	C50.4,20.3,39.4,9.2,25.7,9.2"/>
<path class="st26" d="M53.6,67.5c-14,0-25.4-11.4-25.4-25.4s11.4-25.4,25.4-25.4S79,28.1,79,42.1l0,0C78.9,56.2,67.6,67.5,53.6,67.5
	 M53.6,17.4c-13.7,0-24.7,11.1-24.7,24.8S40,66.9,53.6,66.9c13.7,0,24.7-11.1,24.7-24.7C78.4,28.5,67.3,17.4,53.6,17.4"/>
<path class="st26" d="M66.8,57.6c-2.5,0-4.5-2-4.5-4.5s2-4.5,4.5-4.5s4.5,2,4.5,4.5S69.3,57.6,66.8,57.6 M66.8,49.3
	c-2.1,0-3.9,1.7-3.9,3.9c0,2.1,1.7,3.9,3.9,3.9c2.1,0,3.9-1.7,3.9-3.9C70.7,51,68.9,49.3,66.8,49.3"/>
<path class="st26" d="M78.1,57.6c-2.5,0-4.5-2-4.5-4.5s2-4.5,4.5-4.5s4.5,2,4.5,4.5S80.6,57.6,78.1,57.6 M78.1,49.3
	c-2.1,0-3.9,1.7-3.9,3.9c0,2.1,1.7,3.9,3.9,3.9c2.1,0,3.9-1.7,3.9-3.9l0,0C82,51,80.2,49.3,78.1,49.3"/>
<path class="st26" d="M112.9,57.6c-2.5,0-4.5-2-4.5-4.5s2-4.5,4.5-4.5s4.5,2,4.5,4.5S115.3,57.6,112.9,57.6 M112.9,49.3
	c-2.1,0-3.9,1.7-3.9,3.9c0,2.1,1.7,3.9,3.9,3.9c2.1,0,3.9-1.7,3.9-3.9l0,0C116.7,51,115,49.3,112.9,49.3"/>
<path class="st26" d="M129.7,23.6c-1.5,0-2.7-1.2-2.7-2.7s1.2-2.7,2.7-2.7s2.7,1.2,2.7,2.7C132.4,22.3,131.2,23.6,129.7,23.6
	 M129.7,18.7c-1.2,0-2.1,1-2.1,2.1c0,1.2,1,2.1,2.1,2.1c1.2,0,2.1-1,2.1-2.1l0,0C131.8,19.7,130.9,18.7,129.7,18.7"/>
<path class="st26" d="M134.2,57.7c-9,0-16.2-7.3-16.2-16.3s7.3-16.2,16.3-16.2s16.2,7.3,16.2,16.2C150.4,50.4,143.1,57.7,134.2,57.7
	 M134.2,25.8c-8.7,0-15.7,7-15.7,15.7s7,15.7,15.7,15.7s15.7-7,15.7-15.7l0,0C149.8,32.8,142.8,25.8,134.2,25.8"/>
<path class="st26" d="M112.9,26.3c-2.5,0-4.5-2-4.5-4.5s2-4.5,4.5-4.5s4.5,2,4.5,4.5S115.3,26.3,112.9,26.3L112.9,26.3 M112.9,18
	c-2.1,0-3.9,1.7-3.9,3.9c0,2.1,1.7,3.9,3.9,3.9c2.1,0,3.9-1.7,3.9-3.9l0,0C116.7,19.7,115,18,112.9,18"/>
<path class="st26" d="M108.2,26.3c-2.5,0-4.5-2-4.5-4.5s2-4.5,4.5-4.5s4.5,2,4.5,4.5l0,0C112.6,24.3,110.6,26.3,108.2,26.3
	 M108.2,18c-2.1,0-3.9,1.7-3.9,3.9s1.7,3.9,3.9,3.9s3.9-1.7,3.9-3.9l0,0C112,19.7,110.3,18,108.2,18"/>
<path class="st26" d="M96.8,26.3c-2.5,0-4.5-2-4.5-4.5s2-4.5,4.5-4.5s4.5,2,4.5,4.5l0,0C101.3,24.3,99.3,26.3,96.8,26.3 M96.8,18
	c-2.1,0-3.9,1.7-3.9,3.9c0,2.1,1.7,3.9,3.9,3.9c2.1,0,3.9-1.7,3.9-3.9l0,0C100.7,19.7,99,18,96.8,18"/>
<path class="st26" d="M64.9,27.8c-2.9,0-5.2-2.3-5.2-5.2s2.3-5.2,5.2-5.2s5.2,2.3,5.2,5.2l0,0C70.1,25.5,67.8,27.8,64.9,27.8
	 M64.9,18c-2.6,0-4.6,2.1-4.6,4.6c0,2.6,2.1,4.6,4.6,4.6c2.6,0,4.6-2.1,4.6-4.6l0,0C69.5,20.1,67.4,18,64.9,18"/>
</svg>
